G04 #@! TF.GenerationSoftware,KiCad,Pcbnew,6.0.9-8da3e8f707~116~ubuntu20.04.1*
G04 #@! TF.CreationDate,2023-04-19T18:18:49+00:00*
G04 #@! TF.ProjectId,LEC032002,4c454330-3332-4303-9032-2e6b69636164,rev?*
G04 #@! TF.SameCoordinates,Original*
G04 #@! TF.FileFunction,Soldermask,Top*
G04 #@! TF.FilePolarity,Negative*
%FSLAX46Y46*%
G04 Gerber Fmt 4.6, Leading zero omitted, Abs format (unit mm)*
G04 Created by KiCad (PCBNEW 6.0.9-8da3e8f707~116~ubuntu20.04.1) date 2023-04-19 18:18:49*
%MOMM*%
%LPD*%
G01*
G04 APERTURE LIST*
G04 Aperture macros list*
%AMRoundRect*
0 Rectangle with rounded corners*
0 $1 Rounding radius*
0 $2 $3 $4 $5 $6 $7 $8 $9 X,Y pos of 4 corners*
0 Add a 4 corners polygon primitive as box body*
4,1,4,$2,$3,$4,$5,$6,$7,$8,$9,$2,$3,0*
0 Add four circle primitives for the rounded corners*
1,1,$1+$1,$2,$3*
1,1,$1+$1,$4,$5*
1,1,$1+$1,$6,$7*
1,1,$1+$1,$8,$9*
0 Add four rect primitives between the rounded corners*
20,1,$1+$1,$2,$3,$4,$5,0*
20,1,$1+$1,$4,$5,$6,$7,0*
20,1,$1+$1,$6,$7,$8,$9,0*
20,1,$1+$1,$8,$9,$2,$3,0*%
%AMFreePoly0*
4,1,21,3.898562,0.902562,3.913500,0.866500,3.913500,-0.866500,3.898562,-0.902562,3.862500,-0.917500,0.737500,-0.917500,0.701438,-0.902562,0.686500,-0.866500,0.686500,-0.501000,-0.737500,-0.501000,-0.773562,-0.486062,-0.788500,-0.450000,-0.788500,0.450000,-0.773562,0.486062,-0.737500,0.501000,0.686500,0.501000,0.686500,0.866500,0.701438,0.902562,0.737500,0.917500,3.862500,0.917500,
3.898562,0.902562,3.898562,0.902562,$1*%
G04 Aperture macros list end*
%ADD10C,0.010000*%
%ADD11RoundRect,0.269750X0.256250X-0.218750X0.256250X0.218750X-0.256250X0.218750X-0.256250X-0.218750X0*%
%ADD12RoundRect,0.301000X0.550000X-1.500000X0.550000X1.500000X-0.550000X1.500000X-0.550000X-1.500000X0*%
%ADD13RoundRect,0.269750X0.218750X0.256250X-0.218750X0.256250X-0.218750X-0.256250X0.218750X-0.256250X0*%
%ADD14RoundRect,0.269750X-0.256250X0.218750X-0.256250X-0.218750X0.256250X-0.218750X0.256250X0.218750X0*%
%ADD15RoundRect,0.051000X-0.400000X0.500000X-0.400000X-0.500000X0.400000X-0.500000X0.400000X0.500000X0*%
%ADD16RoundRect,0.051000X-1.250000X-0.900000X1.250000X-0.900000X1.250000X0.900000X-1.250000X0.900000X0*%
%ADD17RoundRect,0.051000X1.250000X0.900000X-1.250000X0.900000X-1.250000X-0.900000X1.250000X-0.900000X0*%
%ADD18RoundRect,0.051000X-1.500000X1.500000X-1.500000X-1.500000X1.500000X-1.500000X1.500000X1.500000X0*%
%ADD19C,3.102000*%
%ADD20RoundRect,0.051000X1.500000X-1.500000X1.500000X1.500000X-1.500000X1.500000X-1.500000X-1.500000X0*%
%ADD21RoundRect,0.051000X-1.500000X-1.500000X1.500000X-1.500000X1.500000X1.500000X-1.500000X1.500000X0*%
%ADD22C,1.092600*%
%ADD23C,2.476900*%
%ADD24C,0.889400*%
%ADD25RoundRect,0.269750X-0.218750X-0.256250X0.218750X-0.256250X0.218750X0.256250X-0.218750X0.256250X0*%
%ADD26RoundRect,0.051000X-0.700000X-0.700000X0.700000X-0.700000X0.700000X0.700000X-0.700000X0.700000X0*%
%ADD27C,1.502000*%
%ADD28RoundRect,0.201000X0.150000X-0.825000X0.150000X0.825000X-0.150000X0.825000X-0.150000X-0.825000X0*%
%ADD29RoundRect,0.051000X-0.450000X0.650000X-0.450000X-0.650000X0.450000X-0.650000X0.450000X0.650000X0*%
%ADD30FreePoly0,270.000000*%
%ADD31R,3.000000X3.000000*%
%ADD32RoundRect,0.051000X-0.525000X-0.225000X0.525000X-0.225000X0.525000X0.225000X-0.525000X0.225000X0*%
%ADD33RoundRect,0.051000X0.750000X0.890000X-0.750000X0.890000X-0.750000X-0.890000X0.750000X-0.890000X0*%
%ADD34C,3.302000*%
G04 APERTURE END LIST*
G04 #@! TO.C,LOGO1*
G36*
X160599183Y-83547852D02*
G01*
X160640298Y-83577936D01*
X160680325Y-83607213D01*
X160719069Y-83635542D01*
X160756338Y-83662783D01*
X160791940Y-83688794D01*
X160825680Y-83713434D01*
X160857366Y-83736564D01*
X160886806Y-83758043D01*
X160913806Y-83777729D01*
X160938172Y-83795482D01*
X160959713Y-83811161D01*
X160978236Y-83824626D01*
X160993546Y-83835735D01*
X161005452Y-83844349D01*
X161013760Y-83850326D01*
X161018277Y-83853526D01*
X161019087Y-83854054D01*
X161021269Y-83852593D01*
X161027370Y-83848293D01*
X161037192Y-83841297D01*
X161050541Y-83831744D01*
X161067220Y-83819776D01*
X161087032Y-83805535D01*
X161109783Y-83789162D01*
X161135275Y-83770798D01*
X161163314Y-83750584D01*
X161193701Y-83728663D01*
X161226243Y-83705175D01*
X161260742Y-83680261D01*
X161297003Y-83654062D01*
X161334829Y-83626721D01*
X161374025Y-83598378D01*
X161414395Y-83569175D01*
X161430766Y-83557329D01*
X161471564Y-83527810D01*
X161511274Y-83499087D01*
X161549701Y-83471301D01*
X161586647Y-83444595D01*
X161621916Y-83419111D01*
X161655310Y-83394990D01*
X161686635Y-83372374D01*
X161715692Y-83351405D01*
X161742285Y-83332225D01*
X161766218Y-83314975D01*
X161787293Y-83299798D01*
X161805315Y-83286836D01*
X161820086Y-83276230D01*
X161831411Y-83268122D01*
X161839091Y-83262654D01*
X161842932Y-83259967D01*
X161843347Y-83259704D01*
X161843981Y-83261984D01*
X161844522Y-83269178D01*
X161844969Y-83281122D01*
X161845317Y-83297651D01*
X161845563Y-83318600D01*
X161845703Y-83343804D01*
X161845734Y-83372734D01*
X161845649Y-83486610D01*
X161511780Y-83727910D01*
X161475037Y-83754474D01*
X161439426Y-83780235D01*
X161405163Y-83805035D01*
X161372466Y-83828717D01*
X161341550Y-83851124D01*
X161312632Y-83872098D01*
X161285929Y-83891483D01*
X161261658Y-83909120D01*
X161240034Y-83924853D01*
X161221274Y-83938525D01*
X161205596Y-83949977D01*
X161193215Y-83959052D01*
X161184347Y-83965594D01*
X161179211Y-83969444D01*
X161177933Y-83970480D01*
X161179950Y-83972094D01*
X161185854Y-83976545D01*
X161195427Y-83983676D01*
X161208455Y-83993326D01*
X161224722Y-84005339D01*
X161244010Y-84019553D01*
X161266106Y-84035812D01*
X161290791Y-84053956D01*
X161317851Y-84073827D01*
X161347070Y-84095266D01*
X161378231Y-84118113D01*
X161411119Y-84142211D01*
X161445518Y-84167400D01*
X161481211Y-84193523D01*
X161509644Y-84214320D01*
X161546214Y-84241075D01*
X161581667Y-84267035D01*
X161615786Y-84292039D01*
X161648355Y-84315928D01*
X161679156Y-84338542D01*
X161707973Y-84359721D01*
X161734589Y-84379307D01*
X161758787Y-84397137D01*
X161780350Y-84413054D01*
X161799061Y-84426898D01*
X161814704Y-84438507D01*
X161827061Y-84447724D01*
X161835916Y-84454387D01*
X161841051Y-84458338D01*
X161842335Y-84459430D01*
X161842529Y-84462426D01*
X161842680Y-84469975D01*
X161842789Y-84481550D01*
X161842853Y-84496625D01*
X161842870Y-84514673D01*
X161842839Y-84535167D01*
X161842759Y-84557581D01*
X161842672Y-84574352D01*
X161842010Y-84686733D01*
X161013970Y-84080775D01*
X160955907Y-84038283D01*
X160898878Y-83996543D01*
X160843019Y-83955657D01*
X160788469Y-83915724D01*
X160735363Y-83876846D01*
X160683839Y-83839122D01*
X160634036Y-83802653D01*
X160586089Y-83767541D01*
X160540136Y-83733885D01*
X160496314Y-83701786D01*
X160454761Y-83671345D01*
X160415614Y-83642662D01*
X160379011Y-83615838D01*
X160345087Y-83590973D01*
X160313981Y-83568168D01*
X160285831Y-83547523D01*
X160260772Y-83529140D01*
X160238943Y-83513118D01*
X160220481Y-83499559D01*
X160205522Y-83488563D01*
X160194205Y-83480229D01*
X160186667Y-83474660D01*
X160183044Y-83471955D01*
X160182728Y-83471706D01*
X160181936Y-83469871D01*
X160181292Y-83465807D01*
X160180789Y-83459140D01*
X160180418Y-83449496D01*
X160180171Y-83436503D01*
X160180039Y-83419788D01*
X160180016Y-83398976D01*
X160180092Y-83373696D01*
X160180188Y-83355150D01*
X160180850Y-83241704D01*
X160599183Y-83547852D01*
G37*
D10*
X160599183Y-83547852D02*
X160640298Y-83577936D01*
X160680325Y-83607213D01*
X160719069Y-83635542D01*
X160756338Y-83662783D01*
X160791940Y-83688794D01*
X160825680Y-83713434D01*
X160857366Y-83736564D01*
X160886806Y-83758043D01*
X160913806Y-83777729D01*
X160938172Y-83795482D01*
X160959713Y-83811161D01*
X160978236Y-83824626D01*
X160993546Y-83835735D01*
X161005452Y-83844349D01*
X161013760Y-83850326D01*
X161018277Y-83853526D01*
X161019087Y-83854054D01*
X161021269Y-83852593D01*
X161027370Y-83848293D01*
X161037192Y-83841297D01*
X161050541Y-83831744D01*
X161067220Y-83819776D01*
X161087032Y-83805535D01*
X161109783Y-83789162D01*
X161135275Y-83770798D01*
X161163314Y-83750584D01*
X161193701Y-83728663D01*
X161226243Y-83705175D01*
X161260742Y-83680261D01*
X161297003Y-83654062D01*
X161334829Y-83626721D01*
X161374025Y-83598378D01*
X161414395Y-83569175D01*
X161430766Y-83557329D01*
X161471564Y-83527810D01*
X161511274Y-83499087D01*
X161549701Y-83471301D01*
X161586647Y-83444595D01*
X161621916Y-83419111D01*
X161655310Y-83394990D01*
X161686635Y-83372374D01*
X161715692Y-83351405D01*
X161742285Y-83332225D01*
X161766218Y-83314975D01*
X161787293Y-83299798D01*
X161805315Y-83286836D01*
X161820086Y-83276230D01*
X161831411Y-83268122D01*
X161839091Y-83262654D01*
X161842932Y-83259967D01*
X161843347Y-83259704D01*
X161843981Y-83261984D01*
X161844522Y-83269178D01*
X161844969Y-83281122D01*
X161845317Y-83297651D01*
X161845563Y-83318600D01*
X161845703Y-83343804D01*
X161845734Y-83372734D01*
X161845649Y-83486610D01*
X161511780Y-83727910D01*
X161475037Y-83754474D01*
X161439426Y-83780235D01*
X161405163Y-83805035D01*
X161372466Y-83828717D01*
X161341550Y-83851124D01*
X161312632Y-83872098D01*
X161285929Y-83891483D01*
X161261658Y-83909120D01*
X161240034Y-83924853D01*
X161221274Y-83938525D01*
X161205596Y-83949977D01*
X161193215Y-83959052D01*
X161184347Y-83965594D01*
X161179211Y-83969444D01*
X161177933Y-83970480D01*
X161179950Y-83972094D01*
X161185854Y-83976545D01*
X161195427Y-83983676D01*
X161208455Y-83993326D01*
X161224722Y-84005339D01*
X161244010Y-84019553D01*
X161266106Y-84035812D01*
X161290791Y-84053956D01*
X161317851Y-84073827D01*
X161347070Y-84095266D01*
X161378231Y-84118113D01*
X161411119Y-84142211D01*
X161445518Y-84167400D01*
X161481211Y-84193523D01*
X161509644Y-84214320D01*
X161546214Y-84241075D01*
X161581667Y-84267035D01*
X161615786Y-84292039D01*
X161648355Y-84315928D01*
X161679156Y-84338542D01*
X161707973Y-84359721D01*
X161734589Y-84379307D01*
X161758787Y-84397137D01*
X161780350Y-84413054D01*
X161799061Y-84426898D01*
X161814704Y-84438507D01*
X161827061Y-84447724D01*
X161835916Y-84454387D01*
X161841051Y-84458338D01*
X161842335Y-84459430D01*
X161842529Y-84462426D01*
X161842680Y-84469975D01*
X161842789Y-84481550D01*
X161842853Y-84496625D01*
X161842870Y-84514673D01*
X161842839Y-84535167D01*
X161842759Y-84557581D01*
X161842672Y-84574352D01*
X161842010Y-84686733D01*
X161013970Y-84080775D01*
X160955907Y-84038283D01*
X160898878Y-83996543D01*
X160843019Y-83955657D01*
X160788469Y-83915724D01*
X160735363Y-83876846D01*
X160683839Y-83839122D01*
X160634036Y-83802653D01*
X160586089Y-83767541D01*
X160540136Y-83733885D01*
X160496314Y-83701786D01*
X160454761Y-83671345D01*
X160415614Y-83642662D01*
X160379011Y-83615838D01*
X160345087Y-83590973D01*
X160313981Y-83568168D01*
X160285831Y-83547523D01*
X160260772Y-83529140D01*
X160238943Y-83513118D01*
X160220481Y-83499559D01*
X160205522Y-83488563D01*
X160194205Y-83480229D01*
X160186667Y-83474660D01*
X160183044Y-83471955D01*
X160182728Y-83471706D01*
X160181936Y-83469871D01*
X160181292Y-83465807D01*
X160180789Y-83459140D01*
X160180418Y-83449496D01*
X160180171Y-83436503D01*
X160180039Y-83419788D01*
X160180016Y-83398976D01*
X160180092Y-83373696D01*
X160180188Y-83355150D01*
X160180850Y-83241704D01*
X160599183Y-83547852D01*
G36*
X160548046Y-87510073D02*
G01*
X160549794Y-87512384D01*
X160553936Y-87518416D01*
X160560116Y-87527624D01*
X160567976Y-87539459D01*
X160577159Y-87553373D01*
X160587308Y-87568819D01*
X160598066Y-87585250D01*
X160609075Y-87602117D01*
X160619979Y-87618873D01*
X160630419Y-87634971D01*
X160640039Y-87649862D01*
X160648482Y-87663000D01*
X160655390Y-87673835D01*
X160660407Y-87681822D01*
X160663174Y-87686412D01*
X160663584Y-87687206D01*
X160662718Y-87690032D01*
X160658095Y-87694095D01*
X160649339Y-87699695D01*
X160643914Y-87702816D01*
X160616428Y-87719911D01*
X160588002Y-87740573D01*
X160559852Y-87763771D01*
X160533197Y-87788472D01*
X160509254Y-87813644D01*
X160499140Y-87825520D01*
X160469172Y-87866154D01*
X160443127Y-87909753D01*
X160421226Y-87955804D01*
X160403690Y-88003792D01*
X160390740Y-88053203D01*
X160383813Y-88093548D01*
X160381768Y-88115054D01*
X160380722Y-88139779D01*
X160380637Y-88166240D01*
X160381480Y-88192955D01*
X160383214Y-88218443D01*
X160385804Y-88241221D01*
X160387603Y-88252174D01*
X160399608Y-88302714D01*
X160416099Y-88351225D01*
X160436857Y-88397466D01*
X160461666Y-88441196D01*
X160490308Y-88482174D01*
X160522566Y-88520159D01*
X160558223Y-88554910D01*
X160597062Y-88586186D01*
X160638864Y-88613748D01*
X160683413Y-88637352D01*
X160730492Y-88656760D01*
X160761621Y-88666801D01*
X160806052Y-88677444D01*
X160852105Y-88684072D01*
X160890145Y-88686568D01*
X160931420Y-88687972D01*
X160931420Y-88908969D01*
X160886335Y-88907493D01*
X160826765Y-88903049D01*
X160768219Y-88893761D01*
X160710945Y-88879804D01*
X160655192Y-88861357D01*
X160601206Y-88838595D01*
X160549239Y-88811694D01*
X160499537Y-88780832D01*
X160452349Y-88746184D01*
X160407923Y-88707927D01*
X160366510Y-88666238D01*
X160328355Y-88621292D01*
X160293709Y-88573267D01*
X160262820Y-88522339D01*
X160235936Y-88468684D01*
X160222046Y-88435800D01*
X160203465Y-88382923D01*
X160188763Y-88328211D01*
X160177716Y-88270795D01*
X160175434Y-88255460D01*
X160173688Y-88239281D01*
X160172339Y-88219218D01*
X160171399Y-88196456D01*
X160170875Y-88172175D01*
X160170777Y-88147559D01*
X160171115Y-88123791D01*
X160171898Y-88102051D01*
X160173135Y-88083524D01*
X160174013Y-88075120D01*
X160184111Y-88013464D01*
X160198858Y-87953518D01*
X160218120Y-87895498D01*
X160241760Y-87839620D01*
X160269642Y-87786099D01*
X160301632Y-87735150D01*
X160337592Y-87686988D01*
X160377388Y-87641829D01*
X160420884Y-87599889D01*
X160467944Y-87561383D01*
X160518433Y-87526525D01*
X160520462Y-87525247D01*
X160530604Y-87519050D01*
X160539176Y-87514127D01*
X160545284Y-87510968D01*
X160548034Y-87510067D01*
X160548046Y-87510073D01*
G37*
X160548046Y-87510073D02*
X160549794Y-87512384D01*
X160553936Y-87518416D01*
X160560116Y-87527624D01*
X160567976Y-87539459D01*
X160577159Y-87553373D01*
X160587308Y-87568819D01*
X160598066Y-87585250D01*
X160609075Y-87602117D01*
X160619979Y-87618873D01*
X160630419Y-87634971D01*
X160640039Y-87649862D01*
X160648482Y-87663000D01*
X160655390Y-87673835D01*
X160660407Y-87681822D01*
X160663174Y-87686412D01*
X160663584Y-87687206D01*
X160662718Y-87690032D01*
X160658095Y-87694095D01*
X160649339Y-87699695D01*
X160643914Y-87702816D01*
X160616428Y-87719911D01*
X160588002Y-87740573D01*
X160559852Y-87763771D01*
X160533197Y-87788472D01*
X160509254Y-87813644D01*
X160499140Y-87825520D01*
X160469172Y-87866154D01*
X160443127Y-87909753D01*
X160421226Y-87955804D01*
X160403690Y-88003792D01*
X160390740Y-88053203D01*
X160383813Y-88093548D01*
X160381768Y-88115054D01*
X160380722Y-88139779D01*
X160380637Y-88166240D01*
X160381480Y-88192955D01*
X160383214Y-88218443D01*
X160385804Y-88241221D01*
X160387603Y-88252174D01*
X160399608Y-88302714D01*
X160416099Y-88351225D01*
X160436857Y-88397466D01*
X160461666Y-88441196D01*
X160490308Y-88482174D01*
X160522566Y-88520159D01*
X160558223Y-88554910D01*
X160597062Y-88586186D01*
X160638864Y-88613748D01*
X160683413Y-88637352D01*
X160730492Y-88656760D01*
X160761621Y-88666801D01*
X160806052Y-88677444D01*
X160852105Y-88684072D01*
X160890145Y-88686568D01*
X160931420Y-88687972D01*
X160931420Y-88908969D01*
X160886335Y-88907493D01*
X160826765Y-88903049D01*
X160768219Y-88893761D01*
X160710945Y-88879804D01*
X160655192Y-88861357D01*
X160601206Y-88838595D01*
X160549239Y-88811694D01*
X160499537Y-88780832D01*
X160452349Y-88746184D01*
X160407923Y-88707927D01*
X160366510Y-88666238D01*
X160328355Y-88621292D01*
X160293709Y-88573267D01*
X160262820Y-88522339D01*
X160235936Y-88468684D01*
X160222046Y-88435800D01*
X160203465Y-88382923D01*
X160188763Y-88328211D01*
X160177716Y-88270795D01*
X160175434Y-88255460D01*
X160173688Y-88239281D01*
X160172339Y-88219218D01*
X160171399Y-88196456D01*
X160170875Y-88172175D01*
X160170777Y-88147559D01*
X160171115Y-88123791D01*
X160171898Y-88102051D01*
X160173135Y-88083524D01*
X160174013Y-88075120D01*
X160184111Y-88013464D01*
X160198858Y-87953518D01*
X160218120Y-87895498D01*
X160241760Y-87839620D01*
X160269642Y-87786099D01*
X160301632Y-87735150D01*
X160337592Y-87686988D01*
X160377388Y-87641829D01*
X160420884Y-87599889D01*
X160467944Y-87561383D01*
X160518433Y-87526525D01*
X160520462Y-87525247D01*
X160530604Y-87519050D01*
X160539176Y-87514127D01*
X160545284Y-87510968D01*
X160548034Y-87510067D01*
X160548046Y-87510073D01*
G36*
X161462864Y-87474350D02*
G01*
X161468246Y-87476764D01*
X161476130Y-87481171D01*
X161487022Y-87487839D01*
X161501432Y-87497037D01*
X161506730Y-87500468D01*
X161557247Y-87536255D01*
X161604456Y-87575767D01*
X161648181Y-87618747D01*
X161688245Y-87664939D01*
X161724473Y-87714085D01*
X161756690Y-87765929D01*
X161784719Y-87820214D01*
X161808386Y-87876683D01*
X161827513Y-87935078D01*
X161840608Y-87988614D01*
X161844715Y-88009549D01*
X161847937Y-88028693D01*
X161850387Y-88047214D01*
X161852177Y-88066279D01*
X161853419Y-88087056D01*
X161854226Y-88110714D01*
X161854665Y-88134810D01*
X161854860Y-88153035D01*
X161854960Y-88169929D01*
X161854966Y-88184719D01*
X161854880Y-88196633D01*
X161854704Y-88204897D01*
X161854485Y-88208470D01*
X161853741Y-88214358D01*
X161852630Y-88223690D01*
X161851341Y-88234862D01*
X161850735Y-88240220D01*
X161842047Y-88295997D01*
X161828574Y-88351993D01*
X161810545Y-88407599D01*
X161788188Y-88462206D01*
X161761731Y-88515203D01*
X161731401Y-88565981D01*
X161725955Y-88574230D01*
X161705098Y-88604202D01*
X161684653Y-88630956D01*
X161663317Y-88656058D01*
X161639790Y-88681073D01*
X161624501Y-88696282D01*
X161577656Y-88738480D01*
X161528179Y-88776384D01*
X161476236Y-88809914D01*
X161421994Y-88838986D01*
X161365618Y-88863518D01*
X161307274Y-88883426D01*
X161247129Y-88898629D01*
X161201477Y-88906813D01*
X161192261Y-88908020D01*
X161179810Y-88909423D01*
X161165307Y-88910913D01*
X161149937Y-88912382D01*
X161134885Y-88913719D01*
X161121334Y-88914815D01*
X161110470Y-88915562D01*
X161103505Y-88915850D01*
X161103107Y-88913398D01*
X161102738Y-88906379D01*
X161102405Y-88895308D01*
X161102119Y-88880696D01*
X161101886Y-88863059D01*
X161101717Y-88842909D01*
X161101620Y-88820759D01*
X161101600Y-88804481D01*
X161101600Y-88693101D01*
X161135255Y-88691598D01*
X161184642Y-88686880D01*
X161233391Y-88677286D01*
X161281126Y-88663012D01*
X161327472Y-88644257D01*
X161372055Y-88621216D01*
X161414500Y-88594087D01*
X161454432Y-88563067D01*
X161491476Y-88528352D01*
X161525258Y-88490140D01*
X161530066Y-88484060D01*
X161558193Y-88443962D01*
X161582754Y-88400655D01*
X161603491Y-88354786D01*
X161620147Y-88307001D01*
X161632466Y-88257946D01*
X161640191Y-88208267D01*
X161640331Y-88206939D01*
X161641812Y-88185583D01*
X161642277Y-88160988D01*
X161641784Y-88134830D01*
X161640393Y-88108784D01*
X161638161Y-88084525D01*
X161635369Y-88064960D01*
X161623968Y-88014580D01*
X161608011Y-87965829D01*
X161587722Y-87919027D01*
X161563326Y-87874494D01*
X161535050Y-87832553D01*
X161503119Y-87793523D01*
X161467757Y-87757725D01*
X161429189Y-87725479D01*
X161387642Y-87697107D01*
X161369570Y-87686541D01*
X161361866Y-87682236D01*
X161356162Y-87679023D01*
X161353660Y-87677581D01*
X161353648Y-87677572D01*
X161354589Y-87675282D01*
X161357586Y-87669034D01*
X161362356Y-87659378D01*
X161368617Y-87646866D01*
X161376087Y-87632050D01*
X161384484Y-87615482D01*
X161393526Y-87597712D01*
X161402930Y-87579291D01*
X161412414Y-87560773D01*
X161421697Y-87542708D01*
X161430496Y-87525647D01*
X161438530Y-87510143D01*
X161445515Y-87496746D01*
X161451170Y-87486008D01*
X161455212Y-87478481D01*
X161457360Y-87474716D01*
X161457574Y-87474421D01*
X161459476Y-87473658D01*
X161462864Y-87474350D01*
G37*
X161462864Y-87474350D02*
X161468246Y-87476764D01*
X161476130Y-87481171D01*
X161487022Y-87487839D01*
X161501432Y-87497037D01*
X161506730Y-87500468D01*
X161557247Y-87536255D01*
X161604456Y-87575767D01*
X161648181Y-87618747D01*
X161688245Y-87664939D01*
X161724473Y-87714085D01*
X161756690Y-87765929D01*
X161784719Y-87820214D01*
X161808386Y-87876683D01*
X161827513Y-87935078D01*
X161840608Y-87988614D01*
X161844715Y-88009549D01*
X161847937Y-88028693D01*
X161850387Y-88047214D01*
X161852177Y-88066279D01*
X161853419Y-88087056D01*
X161854226Y-88110714D01*
X161854665Y-88134810D01*
X161854860Y-88153035D01*
X161854960Y-88169929D01*
X161854966Y-88184719D01*
X161854880Y-88196633D01*
X161854704Y-88204897D01*
X161854485Y-88208470D01*
X161853741Y-88214358D01*
X161852630Y-88223690D01*
X161851341Y-88234862D01*
X161850735Y-88240220D01*
X161842047Y-88295997D01*
X161828574Y-88351993D01*
X161810545Y-88407599D01*
X161788188Y-88462206D01*
X161761731Y-88515203D01*
X161731401Y-88565981D01*
X161725955Y-88574230D01*
X161705098Y-88604202D01*
X161684653Y-88630956D01*
X161663317Y-88656058D01*
X161639790Y-88681073D01*
X161624501Y-88696282D01*
X161577656Y-88738480D01*
X161528179Y-88776384D01*
X161476236Y-88809914D01*
X161421994Y-88838986D01*
X161365618Y-88863518D01*
X161307274Y-88883426D01*
X161247129Y-88898629D01*
X161201477Y-88906813D01*
X161192261Y-88908020D01*
X161179810Y-88909423D01*
X161165307Y-88910913D01*
X161149937Y-88912382D01*
X161134885Y-88913719D01*
X161121334Y-88914815D01*
X161110470Y-88915562D01*
X161103505Y-88915850D01*
X161103107Y-88913398D01*
X161102738Y-88906379D01*
X161102405Y-88895308D01*
X161102119Y-88880696D01*
X161101886Y-88863059D01*
X161101717Y-88842909D01*
X161101620Y-88820759D01*
X161101600Y-88804481D01*
X161101600Y-88693101D01*
X161135255Y-88691598D01*
X161184642Y-88686880D01*
X161233391Y-88677286D01*
X161281126Y-88663012D01*
X161327472Y-88644257D01*
X161372055Y-88621216D01*
X161414500Y-88594087D01*
X161454432Y-88563067D01*
X161491476Y-88528352D01*
X161525258Y-88490140D01*
X161530066Y-88484060D01*
X161558193Y-88443962D01*
X161582754Y-88400655D01*
X161603491Y-88354786D01*
X161620147Y-88307001D01*
X161632466Y-88257946D01*
X161640191Y-88208267D01*
X161640331Y-88206939D01*
X161641812Y-88185583D01*
X161642277Y-88160988D01*
X161641784Y-88134830D01*
X161640393Y-88108784D01*
X161638161Y-88084525D01*
X161635369Y-88064960D01*
X161623968Y-88014580D01*
X161608011Y-87965829D01*
X161587722Y-87919027D01*
X161563326Y-87874494D01*
X161535050Y-87832553D01*
X161503119Y-87793523D01*
X161467757Y-87757725D01*
X161429189Y-87725479D01*
X161387642Y-87697107D01*
X161369570Y-87686541D01*
X161361866Y-87682236D01*
X161356162Y-87679023D01*
X161353660Y-87677581D01*
X161353648Y-87677572D01*
X161354589Y-87675282D01*
X161357586Y-87669034D01*
X161362356Y-87659378D01*
X161368617Y-87646866D01*
X161376087Y-87632050D01*
X161384484Y-87615482D01*
X161393526Y-87597712D01*
X161402930Y-87579291D01*
X161412414Y-87560773D01*
X161421697Y-87542708D01*
X161430496Y-87525647D01*
X161438530Y-87510143D01*
X161445515Y-87496746D01*
X161451170Y-87486008D01*
X161455212Y-87478481D01*
X161457360Y-87474716D01*
X161457574Y-87474421D01*
X161459476Y-87473658D01*
X161462864Y-87474350D01*
G36*
X161845820Y-86599380D02*
G01*
X160563120Y-86599380D01*
X160563120Y-86378400D01*
X161845820Y-86378400D01*
X161845820Y-86599380D01*
G37*
X161845820Y-86599380D02*
X160563120Y-86599380D01*
X160563120Y-86378400D01*
X161845820Y-86378400D01*
X161845820Y-86599380D01*
G36*
X161452120Y-92009580D02*
G01*
X160177040Y-92009580D01*
X160177040Y-91788600D01*
X161452120Y-91788600D01*
X161452120Y-92009580D01*
G37*
X161452120Y-92009580D02*
X160177040Y-92009580D01*
X160177040Y-91788600D01*
X161452120Y-91788600D01*
X161452120Y-92009580D01*
G36*
X161853440Y-90409380D02*
G01*
X161629920Y-90409380D01*
X161629920Y-89317180D01*
X161853440Y-89317180D01*
X161853440Y-90409380D01*
G37*
X161853440Y-90409380D02*
X161629920Y-90409380D01*
X161629920Y-89317180D01*
X161853440Y-89317180D01*
X161853440Y-90409380D01*
G36*
X161853440Y-92009580D02*
G01*
X161629920Y-92009580D01*
X161629920Y-90861500D01*
X161853440Y-90861500D01*
X161853440Y-92009580D01*
G37*
X161853440Y-92009580D02*
X161629920Y-92009580D01*
X161629920Y-90861500D01*
X161853440Y-90861500D01*
X161853440Y-92009580D01*
G36*
X160395480Y-87168340D02*
G01*
X160174500Y-87168340D01*
X160174500Y-85799280D01*
X160395480Y-85799280D01*
X160395480Y-87168340D01*
G37*
X160395480Y-87168340D02*
X160174500Y-87168340D01*
X160174500Y-85799280D01*
X160395480Y-85799280D01*
X160395480Y-87168340D01*
G36*
X160747001Y-84079871D02*
G01*
X160753439Y-84083923D01*
X160762779Y-84090183D01*
X160774461Y-84098245D01*
X160787928Y-84107707D01*
X160802622Y-84118162D01*
X160817984Y-84129207D01*
X160833457Y-84140438D01*
X160848483Y-84151449D01*
X160862504Y-84161838D01*
X160874962Y-84171199D01*
X160885298Y-84179128D01*
X160892955Y-84185221D01*
X160897375Y-84189073D01*
X160898247Y-84190190D01*
X160896223Y-84191929D01*
X160890295Y-84196496D01*
X160880671Y-84203736D01*
X160867561Y-84213498D01*
X160851174Y-84225627D01*
X160831719Y-84239971D01*
X160809405Y-84256375D01*
X160784442Y-84274687D01*
X160757037Y-84294753D01*
X160727402Y-84316421D01*
X160695743Y-84339535D01*
X160662272Y-84363944D01*
X160627196Y-84389494D01*
X160590724Y-84416032D01*
X160553067Y-84443404D01*
X160541493Y-84451810D01*
X160503445Y-84479442D01*
X160466468Y-84506293D01*
X160430772Y-84532211D01*
X160396572Y-84557040D01*
X160364081Y-84580626D01*
X160333511Y-84602814D01*
X160305075Y-84623451D01*
X160278985Y-84642382D01*
X160255456Y-84659452D01*
X160234699Y-84674507D01*
X160216927Y-84687392D01*
X160202354Y-84697953D01*
X160191192Y-84706036D01*
X160183654Y-84711486D01*
X160179952Y-84714149D01*
X160179630Y-84714375D01*
X160178417Y-84715123D01*
X160177412Y-84715285D01*
X160176595Y-84714437D01*
X160175947Y-84712156D01*
X160175449Y-84708019D01*
X160175081Y-84701601D01*
X160174823Y-84692478D01*
X160174655Y-84680228D01*
X160174559Y-84664427D01*
X160174514Y-84644651D01*
X160174500Y-84620475D01*
X160174499Y-84603446D01*
X160174500Y-84489032D01*
X160457044Y-84283731D01*
X160490835Y-84259201D01*
X160523537Y-84235507D01*
X160554909Y-84212820D01*
X160584714Y-84191311D01*
X160612711Y-84171152D01*
X160638663Y-84152513D01*
X160662329Y-84135565D01*
X160683470Y-84120480D01*
X160701848Y-84107429D01*
X160717223Y-84096582D01*
X160729356Y-84088111D01*
X160738009Y-84082186D01*
X160742942Y-84078979D01*
X160744021Y-84078430D01*
X160747001Y-84079871D01*
G37*
X160747001Y-84079871D02*
X160753439Y-84083923D01*
X160762779Y-84090183D01*
X160774461Y-84098245D01*
X160787928Y-84107707D01*
X160802622Y-84118162D01*
X160817984Y-84129207D01*
X160833457Y-84140438D01*
X160848483Y-84151449D01*
X160862504Y-84161838D01*
X160874962Y-84171199D01*
X160885298Y-84179128D01*
X160892955Y-84185221D01*
X160897375Y-84189073D01*
X160898247Y-84190190D01*
X160896223Y-84191929D01*
X160890295Y-84196496D01*
X160880671Y-84203736D01*
X160867561Y-84213498D01*
X160851174Y-84225627D01*
X160831719Y-84239971D01*
X160809405Y-84256375D01*
X160784442Y-84274687D01*
X160757037Y-84294753D01*
X160727402Y-84316421D01*
X160695743Y-84339535D01*
X160662272Y-84363944D01*
X160627196Y-84389494D01*
X160590724Y-84416032D01*
X160553067Y-84443404D01*
X160541493Y-84451810D01*
X160503445Y-84479442D01*
X160466468Y-84506293D01*
X160430772Y-84532211D01*
X160396572Y-84557040D01*
X160364081Y-84580626D01*
X160333511Y-84602814D01*
X160305075Y-84623451D01*
X160278985Y-84642382D01*
X160255456Y-84659452D01*
X160234699Y-84674507D01*
X160216927Y-84687392D01*
X160202354Y-84697953D01*
X160191192Y-84706036D01*
X160183654Y-84711486D01*
X160179952Y-84714149D01*
X160179630Y-84714375D01*
X160178417Y-84715123D01*
X160177412Y-84715285D01*
X160176595Y-84714437D01*
X160175947Y-84712156D01*
X160175449Y-84708019D01*
X160175081Y-84701601D01*
X160174823Y-84692478D01*
X160174655Y-84680228D01*
X160174559Y-84664427D01*
X160174514Y-84644651D01*
X160174500Y-84620475D01*
X160174499Y-84603446D01*
X160174500Y-84489032D01*
X160457044Y-84283731D01*
X160490835Y-84259201D01*
X160523537Y-84235507D01*
X160554909Y-84212820D01*
X160584714Y-84191311D01*
X160612711Y-84171152D01*
X160638663Y-84152513D01*
X160662329Y-84135565D01*
X160683470Y-84120480D01*
X160701848Y-84107429D01*
X160717223Y-84096582D01*
X160729356Y-84088111D01*
X160738009Y-84082186D01*
X160742942Y-84078979D01*
X160744021Y-84078430D01*
X160747001Y-84079871D01*
G36*
X161845820Y-85352240D02*
G01*
X160174500Y-85352240D01*
X160174500Y-85131260D01*
X161845820Y-85131260D01*
X161845820Y-85352240D01*
G37*
X161845820Y-85352240D02*
X160174500Y-85352240D01*
X160174500Y-85131260D01*
X161845820Y-85131260D01*
X161845820Y-85352240D01*
G36*
X160387860Y-90190940D02*
G01*
X160700280Y-90190940D01*
X160700280Y-90414460D01*
X160166880Y-90414460D01*
X160166880Y-89317180D01*
X160387860Y-89317180D01*
X160387860Y-90190940D01*
G37*
X160387860Y-90190940D02*
X160700280Y-90190940D01*
X160700280Y-90414460D01*
X160166880Y-90414460D01*
X160166880Y-89317180D01*
X160387860Y-89317180D01*
X160387860Y-90190940D01*
G36*
X161109220Y-90190940D02*
G01*
X161452120Y-90190940D01*
X161452120Y-90411920D01*
X160885700Y-90411920D01*
X160885700Y-89431480D01*
X161109220Y-89431480D01*
X161109220Y-90190940D01*
G37*
X161109220Y-90190940D02*
X161452120Y-90190940D01*
X161452120Y-90411920D01*
X160885700Y-90411920D01*
X160885700Y-89431480D01*
X161109220Y-89431480D01*
X161109220Y-90190940D01*
G36*
X160599183Y-83547852D02*
G01*
X160640298Y-83577936D01*
X160680325Y-83607213D01*
X160719069Y-83635542D01*
X160756338Y-83662783D01*
X160791940Y-83688794D01*
X160825680Y-83713434D01*
X160857366Y-83736564D01*
X160886806Y-83758043D01*
X160913806Y-83777729D01*
X160938172Y-83795482D01*
X160959713Y-83811161D01*
X160978236Y-83824626D01*
X160993546Y-83835735D01*
X161005452Y-83844349D01*
X161013760Y-83850326D01*
X161018277Y-83853526D01*
X161019087Y-83854054D01*
X161021269Y-83852593D01*
X161027370Y-83848293D01*
X161037192Y-83841297D01*
X161050541Y-83831744D01*
X161067220Y-83819776D01*
X161087032Y-83805535D01*
X161109783Y-83789162D01*
X161135275Y-83770798D01*
X161163314Y-83750584D01*
X161193701Y-83728663D01*
X161226243Y-83705175D01*
X161260742Y-83680261D01*
X161297003Y-83654062D01*
X161334829Y-83626721D01*
X161374025Y-83598378D01*
X161414395Y-83569175D01*
X161430766Y-83557329D01*
X161471564Y-83527810D01*
X161511274Y-83499087D01*
X161549701Y-83471301D01*
X161586647Y-83444595D01*
X161621916Y-83419111D01*
X161655310Y-83394990D01*
X161686635Y-83372374D01*
X161715692Y-83351405D01*
X161742285Y-83332225D01*
X161766218Y-83314975D01*
X161787293Y-83299798D01*
X161805315Y-83286836D01*
X161820086Y-83276230D01*
X161831411Y-83268122D01*
X161839091Y-83262654D01*
X161842932Y-83259967D01*
X161843347Y-83259704D01*
X161843981Y-83261984D01*
X161844522Y-83269178D01*
X161844969Y-83281122D01*
X161845317Y-83297651D01*
X161845563Y-83318600D01*
X161845703Y-83343804D01*
X161845734Y-83372734D01*
X161845649Y-83486610D01*
X161511780Y-83727910D01*
X161475037Y-83754474D01*
X161439426Y-83780235D01*
X161405163Y-83805035D01*
X161372466Y-83828717D01*
X161341550Y-83851124D01*
X161312632Y-83872098D01*
X161285929Y-83891483D01*
X161261658Y-83909120D01*
X161240034Y-83924853D01*
X161221274Y-83938525D01*
X161205596Y-83949977D01*
X161193215Y-83959052D01*
X161184347Y-83965594D01*
X161179211Y-83969444D01*
X161177933Y-83970480D01*
X161179950Y-83972094D01*
X161185854Y-83976545D01*
X161195427Y-83983676D01*
X161208455Y-83993326D01*
X161224722Y-84005339D01*
X161244010Y-84019553D01*
X161266106Y-84035812D01*
X161290791Y-84053956D01*
X161317851Y-84073827D01*
X161347070Y-84095266D01*
X161378231Y-84118113D01*
X161411119Y-84142211D01*
X161445518Y-84167400D01*
X161481211Y-84193523D01*
X161509644Y-84214320D01*
X161546214Y-84241075D01*
X161581667Y-84267035D01*
X161615786Y-84292039D01*
X161648355Y-84315928D01*
X161679156Y-84338542D01*
X161707973Y-84359721D01*
X161734589Y-84379307D01*
X161758787Y-84397137D01*
X161780350Y-84413054D01*
X161799061Y-84426898D01*
X161814704Y-84438507D01*
X161827061Y-84447724D01*
X161835916Y-84454387D01*
X161841051Y-84458338D01*
X161842335Y-84459430D01*
X161842529Y-84462426D01*
X161842680Y-84469975D01*
X161842789Y-84481550D01*
X161842853Y-84496625D01*
X161842870Y-84514673D01*
X161842839Y-84535167D01*
X161842759Y-84557581D01*
X161842672Y-84574352D01*
X161842010Y-84686733D01*
X161013970Y-84080775D01*
X160955907Y-84038283D01*
X160898878Y-83996543D01*
X160843019Y-83955657D01*
X160788469Y-83915724D01*
X160735363Y-83876846D01*
X160683839Y-83839122D01*
X160634036Y-83802653D01*
X160586089Y-83767541D01*
X160540136Y-83733885D01*
X160496314Y-83701786D01*
X160454761Y-83671345D01*
X160415614Y-83642662D01*
X160379011Y-83615838D01*
X160345087Y-83590973D01*
X160313981Y-83568168D01*
X160285831Y-83547523D01*
X160260772Y-83529140D01*
X160238943Y-83513118D01*
X160220481Y-83499559D01*
X160205522Y-83488563D01*
X160194205Y-83480229D01*
X160186667Y-83474660D01*
X160183044Y-83471955D01*
X160182728Y-83471706D01*
X160181936Y-83469871D01*
X160181292Y-83465807D01*
X160180789Y-83459140D01*
X160180418Y-83449496D01*
X160180171Y-83436503D01*
X160180039Y-83419788D01*
X160180016Y-83398976D01*
X160180092Y-83373696D01*
X160180188Y-83355150D01*
X160180850Y-83241704D01*
X160599183Y-83547852D01*
G37*
X160599183Y-83547852D02*
X160640298Y-83577936D01*
X160680325Y-83607213D01*
X160719069Y-83635542D01*
X160756338Y-83662783D01*
X160791940Y-83688794D01*
X160825680Y-83713434D01*
X160857366Y-83736564D01*
X160886806Y-83758043D01*
X160913806Y-83777729D01*
X160938172Y-83795482D01*
X160959713Y-83811161D01*
X160978236Y-83824626D01*
X160993546Y-83835735D01*
X161005452Y-83844349D01*
X161013760Y-83850326D01*
X161018277Y-83853526D01*
X161019087Y-83854054D01*
X161021269Y-83852593D01*
X161027370Y-83848293D01*
X161037192Y-83841297D01*
X161050541Y-83831744D01*
X161067220Y-83819776D01*
X161087032Y-83805535D01*
X161109783Y-83789162D01*
X161135275Y-83770798D01*
X161163314Y-83750584D01*
X161193701Y-83728663D01*
X161226243Y-83705175D01*
X161260742Y-83680261D01*
X161297003Y-83654062D01*
X161334829Y-83626721D01*
X161374025Y-83598378D01*
X161414395Y-83569175D01*
X161430766Y-83557329D01*
X161471564Y-83527810D01*
X161511274Y-83499087D01*
X161549701Y-83471301D01*
X161586647Y-83444595D01*
X161621916Y-83419111D01*
X161655310Y-83394990D01*
X161686635Y-83372374D01*
X161715692Y-83351405D01*
X161742285Y-83332225D01*
X161766218Y-83314975D01*
X161787293Y-83299798D01*
X161805315Y-83286836D01*
X161820086Y-83276230D01*
X161831411Y-83268122D01*
X161839091Y-83262654D01*
X161842932Y-83259967D01*
X161843347Y-83259704D01*
X161843981Y-83261984D01*
X161844522Y-83269178D01*
X161844969Y-83281122D01*
X161845317Y-83297651D01*
X161845563Y-83318600D01*
X161845703Y-83343804D01*
X161845734Y-83372734D01*
X161845649Y-83486610D01*
X161511780Y-83727910D01*
X161475037Y-83754474D01*
X161439426Y-83780235D01*
X161405163Y-83805035D01*
X161372466Y-83828717D01*
X161341550Y-83851124D01*
X161312632Y-83872098D01*
X161285929Y-83891483D01*
X161261658Y-83909120D01*
X161240034Y-83924853D01*
X161221274Y-83938525D01*
X161205596Y-83949977D01*
X161193215Y-83959052D01*
X161184347Y-83965594D01*
X161179211Y-83969444D01*
X161177933Y-83970480D01*
X161179950Y-83972094D01*
X161185854Y-83976545D01*
X161195427Y-83983676D01*
X161208455Y-83993326D01*
X161224722Y-84005339D01*
X161244010Y-84019553D01*
X161266106Y-84035812D01*
X161290791Y-84053956D01*
X161317851Y-84073827D01*
X161347070Y-84095266D01*
X161378231Y-84118113D01*
X161411119Y-84142211D01*
X161445518Y-84167400D01*
X161481211Y-84193523D01*
X161509644Y-84214320D01*
X161546214Y-84241075D01*
X161581667Y-84267035D01*
X161615786Y-84292039D01*
X161648355Y-84315928D01*
X161679156Y-84338542D01*
X161707973Y-84359721D01*
X161734589Y-84379307D01*
X161758787Y-84397137D01*
X161780350Y-84413054D01*
X161799061Y-84426898D01*
X161814704Y-84438507D01*
X161827061Y-84447724D01*
X161835916Y-84454387D01*
X161841051Y-84458338D01*
X161842335Y-84459430D01*
X161842529Y-84462426D01*
X161842680Y-84469975D01*
X161842789Y-84481550D01*
X161842853Y-84496625D01*
X161842870Y-84514673D01*
X161842839Y-84535167D01*
X161842759Y-84557581D01*
X161842672Y-84574352D01*
X161842010Y-84686733D01*
X161013970Y-84080775D01*
X160955907Y-84038283D01*
X160898878Y-83996543D01*
X160843019Y-83955657D01*
X160788469Y-83915724D01*
X160735363Y-83876846D01*
X160683839Y-83839122D01*
X160634036Y-83802653D01*
X160586089Y-83767541D01*
X160540136Y-83733885D01*
X160496314Y-83701786D01*
X160454761Y-83671345D01*
X160415614Y-83642662D01*
X160379011Y-83615838D01*
X160345087Y-83590973D01*
X160313981Y-83568168D01*
X160285831Y-83547523D01*
X160260772Y-83529140D01*
X160238943Y-83513118D01*
X160220481Y-83499559D01*
X160205522Y-83488563D01*
X160194205Y-83480229D01*
X160186667Y-83474660D01*
X160183044Y-83471955D01*
X160182728Y-83471706D01*
X160181936Y-83469871D01*
X160181292Y-83465807D01*
X160180789Y-83459140D01*
X160180418Y-83449496D01*
X160180171Y-83436503D01*
X160180039Y-83419788D01*
X160180016Y-83398976D01*
X160180092Y-83373696D01*
X160180188Y-83355150D01*
X160180850Y-83241704D01*
X160599183Y-83547852D01*
G36*
X160548046Y-87510073D02*
G01*
X160549794Y-87512384D01*
X160553936Y-87518416D01*
X160560116Y-87527624D01*
X160567976Y-87539459D01*
X160577159Y-87553373D01*
X160587308Y-87568819D01*
X160598066Y-87585250D01*
X160609075Y-87602117D01*
X160619979Y-87618873D01*
X160630419Y-87634971D01*
X160640039Y-87649862D01*
X160648482Y-87663000D01*
X160655390Y-87673835D01*
X160660407Y-87681822D01*
X160663174Y-87686412D01*
X160663584Y-87687206D01*
X160662718Y-87690032D01*
X160658095Y-87694095D01*
X160649339Y-87699695D01*
X160643914Y-87702816D01*
X160616428Y-87719911D01*
X160588002Y-87740573D01*
X160559852Y-87763771D01*
X160533197Y-87788472D01*
X160509254Y-87813644D01*
X160499140Y-87825520D01*
X160469172Y-87866154D01*
X160443127Y-87909753D01*
X160421226Y-87955804D01*
X160403690Y-88003792D01*
X160390740Y-88053203D01*
X160383813Y-88093548D01*
X160381768Y-88115054D01*
X160380722Y-88139779D01*
X160380637Y-88166240D01*
X160381480Y-88192955D01*
X160383214Y-88218443D01*
X160385804Y-88241221D01*
X160387603Y-88252174D01*
X160399608Y-88302714D01*
X160416099Y-88351225D01*
X160436857Y-88397466D01*
X160461666Y-88441196D01*
X160490308Y-88482174D01*
X160522566Y-88520159D01*
X160558223Y-88554910D01*
X160597062Y-88586186D01*
X160638864Y-88613748D01*
X160683413Y-88637352D01*
X160730492Y-88656760D01*
X160761621Y-88666801D01*
X160806052Y-88677444D01*
X160852105Y-88684072D01*
X160890145Y-88686568D01*
X160931420Y-88687972D01*
X160931420Y-88908969D01*
X160886335Y-88907493D01*
X160826765Y-88903049D01*
X160768219Y-88893761D01*
X160710945Y-88879804D01*
X160655192Y-88861357D01*
X160601206Y-88838595D01*
X160549239Y-88811694D01*
X160499537Y-88780832D01*
X160452349Y-88746184D01*
X160407923Y-88707927D01*
X160366510Y-88666238D01*
X160328355Y-88621292D01*
X160293709Y-88573267D01*
X160262820Y-88522339D01*
X160235936Y-88468684D01*
X160222046Y-88435800D01*
X160203465Y-88382923D01*
X160188763Y-88328211D01*
X160177716Y-88270795D01*
X160175434Y-88255460D01*
X160173688Y-88239281D01*
X160172339Y-88219218D01*
X160171399Y-88196456D01*
X160170875Y-88172175D01*
X160170777Y-88147559D01*
X160171115Y-88123791D01*
X160171898Y-88102051D01*
X160173135Y-88083524D01*
X160174013Y-88075120D01*
X160184111Y-88013464D01*
X160198858Y-87953518D01*
X160218120Y-87895498D01*
X160241760Y-87839620D01*
X160269642Y-87786099D01*
X160301632Y-87735150D01*
X160337592Y-87686988D01*
X160377388Y-87641829D01*
X160420884Y-87599889D01*
X160467944Y-87561383D01*
X160518433Y-87526525D01*
X160520462Y-87525247D01*
X160530604Y-87519050D01*
X160539176Y-87514127D01*
X160545284Y-87510968D01*
X160548034Y-87510067D01*
X160548046Y-87510073D01*
G37*
X160548046Y-87510073D02*
X160549794Y-87512384D01*
X160553936Y-87518416D01*
X160560116Y-87527624D01*
X160567976Y-87539459D01*
X160577159Y-87553373D01*
X160587308Y-87568819D01*
X160598066Y-87585250D01*
X160609075Y-87602117D01*
X160619979Y-87618873D01*
X160630419Y-87634971D01*
X160640039Y-87649862D01*
X160648482Y-87663000D01*
X160655390Y-87673835D01*
X160660407Y-87681822D01*
X160663174Y-87686412D01*
X160663584Y-87687206D01*
X160662718Y-87690032D01*
X160658095Y-87694095D01*
X160649339Y-87699695D01*
X160643914Y-87702816D01*
X160616428Y-87719911D01*
X160588002Y-87740573D01*
X160559852Y-87763771D01*
X160533197Y-87788472D01*
X160509254Y-87813644D01*
X160499140Y-87825520D01*
X160469172Y-87866154D01*
X160443127Y-87909753D01*
X160421226Y-87955804D01*
X160403690Y-88003792D01*
X160390740Y-88053203D01*
X160383813Y-88093548D01*
X160381768Y-88115054D01*
X160380722Y-88139779D01*
X160380637Y-88166240D01*
X160381480Y-88192955D01*
X160383214Y-88218443D01*
X160385804Y-88241221D01*
X160387603Y-88252174D01*
X160399608Y-88302714D01*
X160416099Y-88351225D01*
X160436857Y-88397466D01*
X160461666Y-88441196D01*
X160490308Y-88482174D01*
X160522566Y-88520159D01*
X160558223Y-88554910D01*
X160597062Y-88586186D01*
X160638864Y-88613748D01*
X160683413Y-88637352D01*
X160730492Y-88656760D01*
X160761621Y-88666801D01*
X160806052Y-88677444D01*
X160852105Y-88684072D01*
X160890145Y-88686568D01*
X160931420Y-88687972D01*
X160931420Y-88908969D01*
X160886335Y-88907493D01*
X160826765Y-88903049D01*
X160768219Y-88893761D01*
X160710945Y-88879804D01*
X160655192Y-88861357D01*
X160601206Y-88838595D01*
X160549239Y-88811694D01*
X160499537Y-88780832D01*
X160452349Y-88746184D01*
X160407923Y-88707927D01*
X160366510Y-88666238D01*
X160328355Y-88621292D01*
X160293709Y-88573267D01*
X160262820Y-88522339D01*
X160235936Y-88468684D01*
X160222046Y-88435800D01*
X160203465Y-88382923D01*
X160188763Y-88328211D01*
X160177716Y-88270795D01*
X160175434Y-88255460D01*
X160173688Y-88239281D01*
X160172339Y-88219218D01*
X160171399Y-88196456D01*
X160170875Y-88172175D01*
X160170777Y-88147559D01*
X160171115Y-88123791D01*
X160171898Y-88102051D01*
X160173135Y-88083524D01*
X160174013Y-88075120D01*
X160184111Y-88013464D01*
X160198858Y-87953518D01*
X160218120Y-87895498D01*
X160241760Y-87839620D01*
X160269642Y-87786099D01*
X160301632Y-87735150D01*
X160337592Y-87686988D01*
X160377388Y-87641829D01*
X160420884Y-87599889D01*
X160467944Y-87561383D01*
X160518433Y-87526525D01*
X160520462Y-87525247D01*
X160530604Y-87519050D01*
X160539176Y-87514127D01*
X160545284Y-87510968D01*
X160548034Y-87510067D01*
X160548046Y-87510073D01*
G36*
X161462864Y-87474350D02*
G01*
X161468246Y-87476764D01*
X161476130Y-87481171D01*
X161487022Y-87487839D01*
X161501432Y-87497037D01*
X161506730Y-87500468D01*
X161557247Y-87536255D01*
X161604456Y-87575767D01*
X161648181Y-87618747D01*
X161688245Y-87664939D01*
X161724473Y-87714085D01*
X161756690Y-87765929D01*
X161784719Y-87820214D01*
X161808386Y-87876683D01*
X161827513Y-87935078D01*
X161840608Y-87988614D01*
X161844715Y-88009549D01*
X161847937Y-88028693D01*
X161850387Y-88047214D01*
X161852177Y-88066279D01*
X161853419Y-88087056D01*
X161854226Y-88110714D01*
X161854665Y-88134810D01*
X161854860Y-88153035D01*
X161854960Y-88169929D01*
X161854966Y-88184719D01*
X161854880Y-88196633D01*
X161854704Y-88204897D01*
X161854485Y-88208470D01*
X161853741Y-88214358D01*
X161852630Y-88223690D01*
X161851341Y-88234862D01*
X161850735Y-88240220D01*
X161842047Y-88295997D01*
X161828574Y-88351993D01*
X161810545Y-88407599D01*
X161788188Y-88462206D01*
X161761731Y-88515203D01*
X161731401Y-88565981D01*
X161725955Y-88574230D01*
X161705098Y-88604202D01*
X161684653Y-88630956D01*
X161663317Y-88656058D01*
X161639790Y-88681073D01*
X161624501Y-88696282D01*
X161577656Y-88738480D01*
X161528179Y-88776384D01*
X161476236Y-88809914D01*
X161421994Y-88838986D01*
X161365618Y-88863518D01*
X161307274Y-88883426D01*
X161247129Y-88898629D01*
X161201477Y-88906813D01*
X161192261Y-88908020D01*
X161179810Y-88909423D01*
X161165307Y-88910913D01*
X161149937Y-88912382D01*
X161134885Y-88913719D01*
X161121334Y-88914815D01*
X161110470Y-88915562D01*
X161103505Y-88915850D01*
X161103107Y-88913398D01*
X161102738Y-88906379D01*
X161102405Y-88895308D01*
X161102119Y-88880696D01*
X161101886Y-88863059D01*
X161101717Y-88842909D01*
X161101620Y-88820759D01*
X161101600Y-88804481D01*
X161101600Y-88693101D01*
X161135255Y-88691598D01*
X161184642Y-88686880D01*
X161233391Y-88677286D01*
X161281126Y-88663012D01*
X161327472Y-88644257D01*
X161372055Y-88621216D01*
X161414500Y-88594087D01*
X161454432Y-88563067D01*
X161491476Y-88528352D01*
X161525258Y-88490140D01*
X161530066Y-88484060D01*
X161558193Y-88443962D01*
X161582754Y-88400655D01*
X161603491Y-88354786D01*
X161620147Y-88307001D01*
X161632466Y-88257946D01*
X161640191Y-88208267D01*
X161640331Y-88206939D01*
X161641812Y-88185583D01*
X161642277Y-88160988D01*
X161641784Y-88134830D01*
X161640393Y-88108784D01*
X161638161Y-88084525D01*
X161635369Y-88064960D01*
X161623968Y-88014580D01*
X161608011Y-87965829D01*
X161587722Y-87919027D01*
X161563326Y-87874494D01*
X161535050Y-87832553D01*
X161503119Y-87793523D01*
X161467757Y-87757725D01*
X161429189Y-87725479D01*
X161387642Y-87697107D01*
X161369570Y-87686541D01*
X161361866Y-87682236D01*
X161356162Y-87679023D01*
X161353660Y-87677581D01*
X161353648Y-87677572D01*
X161354589Y-87675282D01*
X161357586Y-87669034D01*
X161362356Y-87659378D01*
X161368617Y-87646866D01*
X161376087Y-87632050D01*
X161384484Y-87615482D01*
X161393526Y-87597712D01*
X161402930Y-87579291D01*
X161412414Y-87560773D01*
X161421697Y-87542708D01*
X161430496Y-87525647D01*
X161438530Y-87510143D01*
X161445515Y-87496746D01*
X161451170Y-87486008D01*
X161455212Y-87478481D01*
X161457360Y-87474716D01*
X161457574Y-87474421D01*
X161459476Y-87473658D01*
X161462864Y-87474350D01*
G37*
X161462864Y-87474350D02*
X161468246Y-87476764D01*
X161476130Y-87481171D01*
X161487022Y-87487839D01*
X161501432Y-87497037D01*
X161506730Y-87500468D01*
X161557247Y-87536255D01*
X161604456Y-87575767D01*
X161648181Y-87618747D01*
X161688245Y-87664939D01*
X161724473Y-87714085D01*
X161756690Y-87765929D01*
X161784719Y-87820214D01*
X161808386Y-87876683D01*
X161827513Y-87935078D01*
X161840608Y-87988614D01*
X161844715Y-88009549D01*
X161847937Y-88028693D01*
X161850387Y-88047214D01*
X161852177Y-88066279D01*
X161853419Y-88087056D01*
X161854226Y-88110714D01*
X161854665Y-88134810D01*
X161854860Y-88153035D01*
X161854960Y-88169929D01*
X161854966Y-88184719D01*
X161854880Y-88196633D01*
X161854704Y-88204897D01*
X161854485Y-88208470D01*
X161853741Y-88214358D01*
X161852630Y-88223690D01*
X161851341Y-88234862D01*
X161850735Y-88240220D01*
X161842047Y-88295997D01*
X161828574Y-88351993D01*
X161810545Y-88407599D01*
X161788188Y-88462206D01*
X161761731Y-88515203D01*
X161731401Y-88565981D01*
X161725955Y-88574230D01*
X161705098Y-88604202D01*
X161684653Y-88630956D01*
X161663317Y-88656058D01*
X161639790Y-88681073D01*
X161624501Y-88696282D01*
X161577656Y-88738480D01*
X161528179Y-88776384D01*
X161476236Y-88809914D01*
X161421994Y-88838986D01*
X161365618Y-88863518D01*
X161307274Y-88883426D01*
X161247129Y-88898629D01*
X161201477Y-88906813D01*
X161192261Y-88908020D01*
X161179810Y-88909423D01*
X161165307Y-88910913D01*
X161149937Y-88912382D01*
X161134885Y-88913719D01*
X161121334Y-88914815D01*
X161110470Y-88915562D01*
X161103505Y-88915850D01*
X161103107Y-88913398D01*
X161102738Y-88906379D01*
X161102405Y-88895308D01*
X161102119Y-88880696D01*
X161101886Y-88863059D01*
X161101717Y-88842909D01*
X161101620Y-88820759D01*
X161101600Y-88804481D01*
X161101600Y-88693101D01*
X161135255Y-88691598D01*
X161184642Y-88686880D01*
X161233391Y-88677286D01*
X161281126Y-88663012D01*
X161327472Y-88644257D01*
X161372055Y-88621216D01*
X161414500Y-88594087D01*
X161454432Y-88563067D01*
X161491476Y-88528352D01*
X161525258Y-88490140D01*
X161530066Y-88484060D01*
X161558193Y-88443962D01*
X161582754Y-88400655D01*
X161603491Y-88354786D01*
X161620147Y-88307001D01*
X161632466Y-88257946D01*
X161640191Y-88208267D01*
X161640331Y-88206939D01*
X161641812Y-88185583D01*
X161642277Y-88160988D01*
X161641784Y-88134830D01*
X161640393Y-88108784D01*
X161638161Y-88084525D01*
X161635369Y-88064960D01*
X161623968Y-88014580D01*
X161608011Y-87965829D01*
X161587722Y-87919027D01*
X161563326Y-87874494D01*
X161535050Y-87832553D01*
X161503119Y-87793523D01*
X161467757Y-87757725D01*
X161429189Y-87725479D01*
X161387642Y-87697107D01*
X161369570Y-87686541D01*
X161361866Y-87682236D01*
X161356162Y-87679023D01*
X161353660Y-87677581D01*
X161353648Y-87677572D01*
X161354589Y-87675282D01*
X161357586Y-87669034D01*
X161362356Y-87659378D01*
X161368617Y-87646866D01*
X161376087Y-87632050D01*
X161384484Y-87615482D01*
X161393526Y-87597712D01*
X161402930Y-87579291D01*
X161412414Y-87560773D01*
X161421697Y-87542708D01*
X161430496Y-87525647D01*
X161438530Y-87510143D01*
X161445515Y-87496746D01*
X161451170Y-87486008D01*
X161455212Y-87478481D01*
X161457360Y-87474716D01*
X161457574Y-87474421D01*
X161459476Y-87473658D01*
X161462864Y-87474350D01*
G36*
X161845820Y-86599380D02*
G01*
X160563120Y-86599380D01*
X160563120Y-86378400D01*
X161845820Y-86378400D01*
X161845820Y-86599380D01*
G37*
X161845820Y-86599380D02*
X160563120Y-86599380D01*
X160563120Y-86378400D01*
X161845820Y-86378400D01*
X161845820Y-86599380D01*
G36*
X161452120Y-92009580D02*
G01*
X160177040Y-92009580D01*
X160177040Y-91788600D01*
X161452120Y-91788600D01*
X161452120Y-92009580D01*
G37*
X161452120Y-92009580D02*
X160177040Y-92009580D01*
X160177040Y-91788600D01*
X161452120Y-91788600D01*
X161452120Y-92009580D01*
G36*
X161853440Y-90409380D02*
G01*
X161629920Y-90409380D01*
X161629920Y-89317180D01*
X161853440Y-89317180D01*
X161853440Y-90409380D01*
G37*
X161853440Y-90409380D02*
X161629920Y-90409380D01*
X161629920Y-89317180D01*
X161853440Y-89317180D01*
X161853440Y-90409380D01*
G36*
X161853440Y-92009580D02*
G01*
X161629920Y-92009580D01*
X161629920Y-90861500D01*
X161853440Y-90861500D01*
X161853440Y-92009580D01*
G37*
X161853440Y-92009580D02*
X161629920Y-92009580D01*
X161629920Y-90861500D01*
X161853440Y-90861500D01*
X161853440Y-92009580D01*
G36*
X160395480Y-87168340D02*
G01*
X160174500Y-87168340D01*
X160174500Y-85799280D01*
X160395480Y-85799280D01*
X160395480Y-87168340D01*
G37*
X160395480Y-87168340D02*
X160174500Y-87168340D01*
X160174500Y-85799280D01*
X160395480Y-85799280D01*
X160395480Y-87168340D01*
G36*
X160747001Y-84079871D02*
G01*
X160753439Y-84083923D01*
X160762779Y-84090183D01*
X160774461Y-84098245D01*
X160787928Y-84107707D01*
X160802622Y-84118162D01*
X160817984Y-84129207D01*
X160833457Y-84140438D01*
X160848483Y-84151449D01*
X160862504Y-84161838D01*
X160874962Y-84171199D01*
X160885298Y-84179128D01*
X160892955Y-84185221D01*
X160897375Y-84189073D01*
X160898247Y-84190190D01*
X160896223Y-84191929D01*
X160890295Y-84196496D01*
X160880671Y-84203736D01*
X160867561Y-84213498D01*
X160851174Y-84225627D01*
X160831719Y-84239971D01*
X160809405Y-84256375D01*
X160784442Y-84274687D01*
X160757037Y-84294753D01*
X160727402Y-84316421D01*
X160695743Y-84339535D01*
X160662272Y-84363944D01*
X160627196Y-84389494D01*
X160590724Y-84416032D01*
X160553067Y-84443404D01*
X160541493Y-84451810D01*
X160503445Y-84479442D01*
X160466468Y-84506293D01*
X160430772Y-84532211D01*
X160396572Y-84557040D01*
X160364081Y-84580626D01*
X160333511Y-84602814D01*
X160305075Y-84623451D01*
X160278985Y-84642382D01*
X160255456Y-84659452D01*
X160234699Y-84674507D01*
X160216927Y-84687392D01*
X160202354Y-84697953D01*
X160191192Y-84706036D01*
X160183654Y-84711486D01*
X160179952Y-84714149D01*
X160179630Y-84714375D01*
X160178417Y-84715123D01*
X160177412Y-84715285D01*
X160176595Y-84714437D01*
X160175947Y-84712156D01*
X160175449Y-84708019D01*
X160175081Y-84701601D01*
X160174823Y-84692478D01*
X160174655Y-84680228D01*
X160174559Y-84664427D01*
X160174514Y-84644651D01*
X160174500Y-84620475D01*
X160174499Y-84603446D01*
X160174500Y-84489032D01*
X160457044Y-84283731D01*
X160490835Y-84259201D01*
X160523537Y-84235507D01*
X160554909Y-84212820D01*
X160584714Y-84191311D01*
X160612711Y-84171152D01*
X160638663Y-84152513D01*
X160662329Y-84135565D01*
X160683470Y-84120480D01*
X160701848Y-84107429D01*
X160717223Y-84096582D01*
X160729356Y-84088111D01*
X160738009Y-84082186D01*
X160742942Y-84078979D01*
X160744021Y-84078430D01*
X160747001Y-84079871D01*
G37*
X160747001Y-84079871D02*
X160753439Y-84083923D01*
X160762779Y-84090183D01*
X160774461Y-84098245D01*
X160787928Y-84107707D01*
X160802622Y-84118162D01*
X160817984Y-84129207D01*
X160833457Y-84140438D01*
X160848483Y-84151449D01*
X160862504Y-84161838D01*
X160874962Y-84171199D01*
X160885298Y-84179128D01*
X160892955Y-84185221D01*
X160897375Y-84189073D01*
X160898247Y-84190190D01*
X160896223Y-84191929D01*
X160890295Y-84196496D01*
X160880671Y-84203736D01*
X160867561Y-84213498D01*
X160851174Y-84225627D01*
X160831719Y-84239971D01*
X160809405Y-84256375D01*
X160784442Y-84274687D01*
X160757037Y-84294753D01*
X160727402Y-84316421D01*
X160695743Y-84339535D01*
X160662272Y-84363944D01*
X160627196Y-84389494D01*
X160590724Y-84416032D01*
X160553067Y-84443404D01*
X160541493Y-84451810D01*
X160503445Y-84479442D01*
X160466468Y-84506293D01*
X160430772Y-84532211D01*
X160396572Y-84557040D01*
X160364081Y-84580626D01*
X160333511Y-84602814D01*
X160305075Y-84623451D01*
X160278985Y-84642382D01*
X160255456Y-84659452D01*
X160234699Y-84674507D01*
X160216927Y-84687392D01*
X160202354Y-84697953D01*
X160191192Y-84706036D01*
X160183654Y-84711486D01*
X160179952Y-84714149D01*
X160179630Y-84714375D01*
X160178417Y-84715123D01*
X160177412Y-84715285D01*
X160176595Y-84714437D01*
X160175947Y-84712156D01*
X160175449Y-84708019D01*
X160175081Y-84701601D01*
X160174823Y-84692478D01*
X160174655Y-84680228D01*
X160174559Y-84664427D01*
X160174514Y-84644651D01*
X160174500Y-84620475D01*
X160174499Y-84603446D01*
X160174500Y-84489032D01*
X160457044Y-84283731D01*
X160490835Y-84259201D01*
X160523537Y-84235507D01*
X160554909Y-84212820D01*
X160584714Y-84191311D01*
X160612711Y-84171152D01*
X160638663Y-84152513D01*
X160662329Y-84135565D01*
X160683470Y-84120480D01*
X160701848Y-84107429D01*
X160717223Y-84096582D01*
X160729356Y-84088111D01*
X160738009Y-84082186D01*
X160742942Y-84078979D01*
X160744021Y-84078430D01*
X160747001Y-84079871D01*
G36*
X161845820Y-85352240D02*
G01*
X160174500Y-85352240D01*
X160174500Y-85131260D01*
X161845820Y-85131260D01*
X161845820Y-85352240D01*
G37*
X161845820Y-85352240D02*
X160174500Y-85352240D01*
X160174500Y-85131260D01*
X161845820Y-85131260D01*
X161845820Y-85352240D01*
G36*
X160387860Y-90190940D02*
G01*
X160700280Y-90190940D01*
X160700280Y-90414460D01*
X160166880Y-90414460D01*
X160166880Y-89317180D01*
X160387860Y-89317180D01*
X160387860Y-90190940D01*
G37*
X160387860Y-90190940D02*
X160700280Y-90190940D01*
X160700280Y-90414460D01*
X160166880Y-90414460D01*
X160166880Y-89317180D01*
X160387860Y-89317180D01*
X160387860Y-90190940D01*
G36*
X161109220Y-90190940D02*
G01*
X161452120Y-90190940D01*
X161452120Y-90411920D01*
X160885700Y-90411920D01*
X160885700Y-89431480D01*
X161109220Y-89431480D01*
X161109220Y-90190940D01*
G37*
X161109220Y-90190940D02*
X161452120Y-90190940D01*
X161452120Y-90411920D01*
X160885700Y-90411920D01*
X160885700Y-89431480D01*
X161109220Y-89431480D01*
X161109220Y-90190940D01*
G04 #@! TD*
D11*
G04 #@! TO.C,C1*
X185750000Y-87437500D03*
X185750000Y-85862500D03*
G04 #@! TD*
D12*
G04 #@! TO.C,C2*
X168750000Y-90200000D03*
X168750000Y-84800000D03*
G04 #@! TD*
D11*
G04 #@! TO.C,C3*
X173500000Y-85037500D03*
X173500000Y-83462500D03*
G04 #@! TD*
D13*
G04 #@! TO.C,C4*
X191187500Y-93350000D03*
X189612500Y-93350000D03*
G04 #@! TD*
D11*
G04 #@! TO.C,C5*
X176500000Y-85037500D03*
X176500000Y-83462500D03*
G04 #@! TD*
D12*
G04 #@! TO.C,C6*
X181250000Y-90200000D03*
X181250000Y-84800000D03*
G04 #@! TD*
D11*
G04 #@! TO.C,C7*
X179900000Y-107787500D03*
X179900000Y-106212500D03*
G04 #@! TD*
D14*
G04 #@! TO.C,C8*
X178500000Y-102712500D03*
X178500000Y-104287500D03*
G04 #@! TD*
D13*
G04 #@! TO.C,C9*
X176037500Y-110250000D03*
X174462500Y-110250000D03*
G04 #@! TD*
D15*
G04 #@! TO.C,D1*
X167520000Y-93675000D03*
X164980000Y-93675000D03*
X164980000Y-99825000D03*
X167520000Y-99825000D03*
G04 #@! TD*
D14*
G04 #@! TO.C,D11*
X160500000Y-97612500D03*
X160500000Y-99187500D03*
G04 #@! TD*
D16*
G04 #@! TO.C,D3*
X189750000Y-114750000D03*
X193750000Y-114750000D03*
G04 #@! TD*
G04 #@! TO.C,D4*
X182750000Y-114750000D03*
X186750000Y-114750000D03*
G04 #@! TD*
G04 #@! TO.C,D5*
X189750000Y-101750000D03*
X193750000Y-101750000D03*
G04 #@! TD*
G04 #@! TO.C,D6*
X182750000Y-101750000D03*
X186750000Y-101750000D03*
G04 #@! TD*
D17*
G04 #@! TO.C,D7*
X193750000Y-118250000D03*
X189750000Y-118250000D03*
G04 #@! TD*
G04 #@! TO.C,D8*
X186750000Y-118250000D03*
X182750000Y-118250000D03*
G04 #@! TD*
G04 #@! TO.C,D9*
X193750000Y-105250000D03*
X189750000Y-105250000D03*
G04 #@! TD*
G04 #@! TO.C,D10*
X186750000Y-105250000D03*
X182750000Y-105250000D03*
G04 #@! TD*
D18*
G04 #@! TO.C,J1*
X163000000Y-103710000D03*
D19*
X163000000Y-108790000D03*
G04 #@! TD*
D20*
G04 #@! TO.C,J2*
X201000000Y-117290000D03*
D19*
X201000000Y-112210000D03*
G04 #@! TD*
D21*
G04 #@! TO.C,J3*
X172210000Y-116000000D03*
D19*
X177290000Y-116000000D03*
G04 #@! TD*
D20*
G04 #@! TO.C,J4*
X201000000Y-82790000D03*
D19*
X201000000Y-77710000D03*
G04 #@! TD*
D20*
G04 #@! TO.C,J5*
X201000000Y-95290000D03*
D19*
X201000000Y-90210000D03*
G04 #@! TD*
D22*
G04 #@! TO.C,PROG1*
X179060000Y-97766000D03*
D23*
X171440000Y-99290000D03*
X177155000Y-94210000D03*
D22*
X179060000Y-95734000D03*
D23*
X171440000Y-94210000D03*
D22*
X171440000Y-96750000D03*
D23*
X177155000Y-99290000D03*
D24*
X172710000Y-97385000D03*
X173980000Y-97385000D03*
X175250000Y-97385000D03*
X176520000Y-97385000D03*
X177790000Y-97385000D03*
X177790000Y-96115000D03*
X176520000Y-96115000D03*
X175250000Y-96115000D03*
X173980000Y-96115000D03*
X172710000Y-96115000D03*
G04 #@! TD*
D25*
G04 #@! TO.C,R1*
X189612500Y-91850000D03*
X191187500Y-91850000D03*
G04 #@! TD*
G04 #@! TO.C,R2*
X170712500Y-110250000D03*
X172287500Y-110250000D03*
G04 #@! TD*
D11*
G04 #@! TO.C,R3*
X162200000Y-95937500D03*
X162200000Y-94362500D03*
G04 #@! TD*
G04 #@! TO.C,R4*
X194500000Y-112037500D03*
X194500000Y-110462500D03*
G04 #@! TD*
G04 #@! TO.C,R5*
X194500000Y-99037500D03*
X194500000Y-97462500D03*
G04 #@! TD*
D14*
G04 #@! TO.C,R6*
X181000000Y-109712500D03*
X181000000Y-111287500D03*
G04 #@! TD*
G04 #@! TO.C,R7*
X181000000Y-96712500D03*
X181000000Y-98287500D03*
G04 #@! TD*
D26*
G04 #@! TO.C,RV1*
X189960000Y-78750000D03*
D27*
X192500000Y-76210000D03*
X195040000Y-78750000D03*
G04 #@! TD*
D26*
G04 #@! TO.C,RV2*
X182460000Y-78750000D03*
D27*
X185000000Y-76210000D03*
X187540000Y-78750000D03*
G04 #@! TD*
D26*
G04 #@! TO.C,RV3*
X174960000Y-78750000D03*
D27*
X177500000Y-76210000D03*
X180040000Y-78750000D03*
G04 #@! TD*
D28*
G04 #@! TO.C,U1*
X187440000Y-88875000D03*
X188710000Y-88875000D03*
X189980000Y-88875000D03*
X191250000Y-88875000D03*
X192520000Y-88875000D03*
X193790000Y-88875000D03*
X195060000Y-88875000D03*
X195060000Y-83925000D03*
X193790000Y-83925000D03*
X192520000Y-83925000D03*
X191250000Y-83925000D03*
X189980000Y-83925000D03*
X188710000Y-83925000D03*
X187440000Y-83925000D03*
G04 #@! TD*
D29*
G04 #@! TO.C,U2*
X176500000Y-86850000D03*
D30*
X175000000Y-86937500D03*
D29*
X173500000Y-86850000D03*
G04 #@! TD*
D31*
G04 #@! TO.C,U3*
X173500000Y-106500000D03*
D32*
X170725000Y-104225000D03*
X170725000Y-104875000D03*
X170725000Y-105525000D03*
X170725000Y-106175000D03*
X170725000Y-106825000D03*
X170725000Y-107475000D03*
X170725000Y-108125000D03*
X170725000Y-108775000D03*
X176275000Y-108775000D03*
X176275000Y-108125000D03*
X176275000Y-107475000D03*
X176275000Y-106825000D03*
X176275000Y-106175000D03*
X176275000Y-105525000D03*
X176275000Y-104875000D03*
X176275000Y-104225000D03*
G04 #@! TD*
D33*
G04 #@! TO.C,U4*
X192515000Y-111270000D03*
X192515000Y-108730000D03*
X182985000Y-108730000D03*
X182985000Y-111270000D03*
G04 #@! TD*
G04 #@! TO.C,U5*
X192515000Y-98270000D03*
X192515000Y-95730000D03*
X182985000Y-95730000D03*
X182985000Y-98270000D03*
G04 #@! TD*
D34*
G04 #@! TO.C,H3*
X162750000Y-116250000D03*
G04 #@! TD*
G04 #@! TO.C,H1*
X162750000Y-78750000D03*
G04 #@! TD*
G04 #@! TO.C,H2*
X201000000Y-103750000D03*
G04 #@! TD*
D26*
G04 #@! TO.C,RV4*
X167460000Y-78750000D03*
D27*
X170000000Y-76210000D03*
X172540000Y-78750000D03*
G04 #@! TD*
D14*
G04 #@! TO.C,D2*
X162200000Y-97612500D03*
X162200000Y-99187500D03*
G04 #@! TD*
D11*
G04 #@! TO.C,R9*
X160500000Y-95887500D03*
X160500000Y-94312500D03*
G04 #@! TD*
G36*
X170166075Y-108385084D02*
G01*
X170181263Y-108395233D01*
X170200199Y-108399000D01*
X171249801Y-108399000D01*
X171268738Y-108395233D01*
X171283773Y-108385186D01*
X171285768Y-108385055D01*
X171286880Y-108386718D01*
X171286793Y-108387447D01*
X171267898Y-108447788D01*
X171286955Y-108512690D01*
X171286483Y-108514633D01*
X171284564Y-108515197D01*
X171283925Y-108514916D01*
X171268737Y-108504767D01*
X171249801Y-108501000D01*
X170200199Y-108501000D01*
X170181262Y-108504767D01*
X170166227Y-108514814D01*
X170164232Y-108514945D01*
X170163120Y-108513282D01*
X170163207Y-108512553D01*
X170182102Y-108452212D01*
X170163045Y-108387310D01*
X170163517Y-108385367D01*
X170165436Y-108384803D01*
X170166075Y-108385084D01*
G37*
G36*
X175716075Y-108385084D02*
G01*
X175731263Y-108395233D01*
X175750199Y-108399000D01*
X176799801Y-108399000D01*
X176818738Y-108395233D01*
X176833773Y-108385186D01*
X176835768Y-108385055D01*
X176836880Y-108386718D01*
X176836793Y-108387447D01*
X176817898Y-108447788D01*
X176836955Y-108512690D01*
X176836483Y-108514633D01*
X176834564Y-108515197D01*
X176833925Y-108514916D01*
X176818737Y-108504767D01*
X176799801Y-108501000D01*
X175750199Y-108501000D01*
X175731262Y-108504767D01*
X175716227Y-108514814D01*
X175714232Y-108514945D01*
X175713120Y-108513282D01*
X175713207Y-108512553D01*
X175732102Y-108452212D01*
X175713045Y-108387310D01*
X175713517Y-108385367D01*
X175715436Y-108384803D01*
X175716075Y-108385084D01*
G37*
G36*
X175716075Y-107735084D02*
G01*
X175731263Y-107745233D01*
X175750199Y-107749000D01*
X176799801Y-107749000D01*
X176818738Y-107745233D01*
X176833773Y-107735186D01*
X176835768Y-107735055D01*
X176836880Y-107736718D01*
X176836793Y-107737447D01*
X176817898Y-107797788D01*
X176836955Y-107862690D01*
X176836483Y-107864633D01*
X176834564Y-107865197D01*
X176833925Y-107864916D01*
X176818737Y-107854767D01*
X176799801Y-107851000D01*
X175750199Y-107851000D01*
X175731262Y-107854767D01*
X175716227Y-107864814D01*
X175714232Y-107864945D01*
X175713120Y-107863282D01*
X175713207Y-107862553D01*
X175732102Y-107802212D01*
X175713045Y-107737310D01*
X175713517Y-107735367D01*
X175715436Y-107734803D01*
X175716075Y-107735084D01*
G37*
G36*
X170166075Y-107735084D02*
G01*
X170181263Y-107745233D01*
X170200199Y-107749000D01*
X171249801Y-107749000D01*
X171268738Y-107745233D01*
X171283773Y-107735186D01*
X171285768Y-107735055D01*
X171286880Y-107736718D01*
X171286793Y-107737447D01*
X171267898Y-107797788D01*
X171286955Y-107862690D01*
X171286483Y-107864633D01*
X171284564Y-107865197D01*
X171283925Y-107864916D01*
X171268737Y-107854767D01*
X171249801Y-107851000D01*
X170200199Y-107851000D01*
X170181262Y-107854767D01*
X170166227Y-107864814D01*
X170164232Y-107864945D01*
X170163120Y-107863282D01*
X170163207Y-107862553D01*
X170182102Y-107802212D01*
X170163045Y-107737310D01*
X170163517Y-107735367D01*
X170165436Y-107734803D01*
X170166075Y-107735084D01*
G37*
G36*
X175716075Y-107085084D02*
G01*
X175731263Y-107095233D01*
X175750199Y-107099000D01*
X176799801Y-107099000D01*
X176818738Y-107095233D01*
X176833773Y-107085186D01*
X176835768Y-107085055D01*
X176836880Y-107086718D01*
X176836793Y-107087447D01*
X176817898Y-107147788D01*
X176836955Y-107212690D01*
X176836483Y-107214633D01*
X176834564Y-107215197D01*
X176833925Y-107214916D01*
X176818737Y-107204767D01*
X176799801Y-107201000D01*
X175750199Y-107201000D01*
X175731262Y-107204767D01*
X175716227Y-107214814D01*
X175714232Y-107214945D01*
X175713120Y-107213282D01*
X175713207Y-107212553D01*
X175732102Y-107152212D01*
X175713045Y-107087310D01*
X175713517Y-107085367D01*
X175715436Y-107084803D01*
X175716075Y-107085084D01*
G37*
G36*
X170166075Y-107085084D02*
G01*
X170181263Y-107095233D01*
X170200199Y-107099000D01*
X171249801Y-107099000D01*
X171268738Y-107095233D01*
X171283773Y-107085186D01*
X171285768Y-107085055D01*
X171286880Y-107086718D01*
X171286793Y-107087447D01*
X171267898Y-107147788D01*
X171286955Y-107212690D01*
X171286483Y-107214633D01*
X171284564Y-107215197D01*
X171283925Y-107214916D01*
X171268737Y-107204767D01*
X171249801Y-107201000D01*
X170200199Y-107201000D01*
X170181262Y-107204767D01*
X170166227Y-107214814D01*
X170164232Y-107214945D01*
X170163120Y-107213282D01*
X170163207Y-107212553D01*
X170182102Y-107152212D01*
X170163045Y-107087310D01*
X170163517Y-107085367D01*
X170165436Y-107084803D01*
X170166075Y-107085084D01*
G37*
G36*
X175716075Y-106435084D02*
G01*
X175731263Y-106445233D01*
X175750199Y-106449000D01*
X176799801Y-106449000D01*
X176818738Y-106445233D01*
X176833773Y-106435186D01*
X176835768Y-106435055D01*
X176836880Y-106436718D01*
X176836793Y-106437447D01*
X176817898Y-106497788D01*
X176836955Y-106562690D01*
X176836483Y-106564633D01*
X176834564Y-106565197D01*
X176833925Y-106564916D01*
X176818737Y-106554767D01*
X176799801Y-106551000D01*
X175750199Y-106551000D01*
X175731262Y-106554767D01*
X175716227Y-106564814D01*
X175714232Y-106564945D01*
X175713120Y-106563282D01*
X175713207Y-106562553D01*
X175732102Y-106502212D01*
X175713045Y-106437310D01*
X175713517Y-106435367D01*
X175715436Y-106434803D01*
X175716075Y-106435084D01*
G37*
G36*
X170166075Y-106435084D02*
G01*
X170181263Y-106445233D01*
X170200199Y-106449000D01*
X171249801Y-106449000D01*
X171268738Y-106445233D01*
X171283773Y-106435186D01*
X171285768Y-106435055D01*
X171286880Y-106436718D01*
X171286793Y-106437447D01*
X171267898Y-106497788D01*
X171286955Y-106562690D01*
X171286483Y-106564633D01*
X171284564Y-106565197D01*
X171283925Y-106564916D01*
X171268737Y-106554767D01*
X171249801Y-106551000D01*
X170200199Y-106551000D01*
X170181262Y-106554767D01*
X170166227Y-106564814D01*
X170164232Y-106564945D01*
X170163120Y-106563282D01*
X170163207Y-106562553D01*
X170182102Y-106502212D01*
X170163045Y-106437310D01*
X170163517Y-106435367D01*
X170165436Y-106434803D01*
X170166075Y-106435084D01*
G37*
G36*
X175716075Y-105785084D02*
G01*
X175731263Y-105795233D01*
X175750199Y-105799000D01*
X176799801Y-105799000D01*
X176818738Y-105795233D01*
X176833773Y-105785186D01*
X176835768Y-105785055D01*
X176836880Y-105786718D01*
X176836793Y-105787447D01*
X176817898Y-105847788D01*
X176836955Y-105912690D01*
X176836483Y-105914633D01*
X176834564Y-105915197D01*
X176833925Y-105914916D01*
X176818737Y-105904767D01*
X176799801Y-105901000D01*
X175750199Y-105901000D01*
X175731262Y-105904767D01*
X175716227Y-105914814D01*
X175714232Y-105914945D01*
X175713120Y-105913282D01*
X175713207Y-105912553D01*
X175732102Y-105852212D01*
X175713045Y-105787310D01*
X175713517Y-105785367D01*
X175715436Y-105784803D01*
X175716075Y-105785084D01*
G37*
G36*
X170166075Y-105785084D02*
G01*
X170181263Y-105795233D01*
X170200199Y-105799000D01*
X171249801Y-105799000D01*
X171268738Y-105795233D01*
X171283773Y-105785186D01*
X171285768Y-105785055D01*
X171286880Y-105786718D01*
X171286793Y-105787447D01*
X171267898Y-105847788D01*
X171286955Y-105912690D01*
X171286483Y-105914633D01*
X171284564Y-105915197D01*
X171283925Y-105914916D01*
X171268737Y-105904767D01*
X171249801Y-105901000D01*
X170200199Y-105901000D01*
X170181262Y-105904767D01*
X170166227Y-105914814D01*
X170164232Y-105914945D01*
X170163120Y-105913282D01*
X170163207Y-105912553D01*
X170182102Y-105852212D01*
X170163045Y-105787310D01*
X170163517Y-105785367D01*
X170165436Y-105784803D01*
X170166075Y-105785084D01*
G37*
G36*
X170166075Y-105135084D02*
G01*
X170181263Y-105145233D01*
X170200199Y-105149000D01*
X171249801Y-105149000D01*
X171268738Y-105145233D01*
X171283773Y-105135186D01*
X171285768Y-105135055D01*
X171286880Y-105136718D01*
X171286793Y-105137447D01*
X171267898Y-105197788D01*
X171286955Y-105262690D01*
X171286483Y-105264633D01*
X171284564Y-105265197D01*
X171283925Y-105264916D01*
X171268737Y-105254767D01*
X171249801Y-105251000D01*
X170200199Y-105251000D01*
X170181262Y-105254767D01*
X170166227Y-105264814D01*
X170164232Y-105264945D01*
X170163120Y-105263282D01*
X170163207Y-105262553D01*
X170182102Y-105202212D01*
X170163045Y-105137310D01*
X170163517Y-105135367D01*
X170165436Y-105134803D01*
X170166075Y-105135084D01*
G37*
G36*
X175716075Y-105135084D02*
G01*
X175731263Y-105145233D01*
X175750199Y-105149000D01*
X176799801Y-105149000D01*
X176818738Y-105145233D01*
X176833773Y-105135186D01*
X176835768Y-105135055D01*
X176836880Y-105136718D01*
X176836793Y-105137447D01*
X176817898Y-105197788D01*
X176836955Y-105262690D01*
X176836483Y-105264633D01*
X176834564Y-105265197D01*
X176833925Y-105264916D01*
X176818737Y-105254767D01*
X176799801Y-105251000D01*
X175750199Y-105251000D01*
X175731262Y-105254767D01*
X175716227Y-105264814D01*
X175714232Y-105264945D01*
X175713120Y-105263282D01*
X175713207Y-105262553D01*
X175732102Y-105202212D01*
X175713045Y-105137310D01*
X175713517Y-105135367D01*
X175715436Y-105134803D01*
X175716075Y-105135084D01*
G37*
G36*
X170166075Y-104485084D02*
G01*
X170181263Y-104495233D01*
X170200199Y-104499000D01*
X171249801Y-104499000D01*
X171268738Y-104495233D01*
X171283773Y-104485186D01*
X171285768Y-104485055D01*
X171286880Y-104486718D01*
X171286793Y-104487447D01*
X171267898Y-104547788D01*
X171286955Y-104612690D01*
X171286483Y-104614633D01*
X171284564Y-104615197D01*
X171283925Y-104614916D01*
X171268737Y-104604767D01*
X171249801Y-104601000D01*
X170200199Y-104601000D01*
X170181262Y-104604767D01*
X170166227Y-104614814D01*
X170164232Y-104614945D01*
X170163120Y-104613282D01*
X170163207Y-104612553D01*
X170182102Y-104552212D01*
X170163045Y-104487310D01*
X170163517Y-104485367D01*
X170165436Y-104484803D01*
X170166075Y-104485084D01*
G37*
G36*
X175716075Y-104485084D02*
G01*
X175731263Y-104495233D01*
X175750199Y-104499000D01*
X176799801Y-104499000D01*
X176818738Y-104495233D01*
X176833773Y-104485186D01*
X176835768Y-104485055D01*
X176836880Y-104486718D01*
X176836793Y-104487447D01*
X176817898Y-104547788D01*
X176836955Y-104612690D01*
X176836483Y-104614633D01*
X176834564Y-104615197D01*
X176833925Y-104614916D01*
X176818737Y-104604767D01*
X176799801Y-104601000D01*
X175750199Y-104601000D01*
X175731262Y-104604767D01*
X175716227Y-104614814D01*
X175714232Y-104614945D01*
X175713120Y-104613282D01*
X175713207Y-104612553D01*
X175732102Y-104552212D01*
X175713045Y-104487310D01*
X175713517Y-104485367D01*
X175715436Y-104484803D01*
X175716075Y-104485084D01*
G37*
M02*
