G04 #@! TF.GenerationSoftware,KiCad,Pcbnew,6.0.9-8da3e8f707~116~ubuntu20.04.1*
G04 #@! TF.CreationDate,2023-04-19T18:10:52+00:00*
G04 #@! TF.ProjectId,LEC032002,4c454330-3332-4303-9032-2e6b69636164,rev?*
G04 #@! TF.SameCoordinates,Original*
G04 #@! TF.FileFunction,Copper,L2,Bot*
G04 #@! TF.FilePolarity,Positive*
%FSLAX46Y46*%
G04 Gerber Fmt 4.6, Leading zero omitted, Abs format (unit mm)*
G04 Created by KiCad (PCBNEW 6.0.9-8da3e8f707~116~ubuntu20.04.1) date 2023-04-19 18:10:52*
%MOMM*%
%LPD*%
G01*
G04 APERTURE LIST*
G04 #@! TA.AperFunction,ComponentPad*
%ADD10R,3.000000X3.000000*%
G04 #@! TD*
G04 #@! TA.AperFunction,ComponentPad*
%ADD11C,3.000000*%
G04 #@! TD*
G04 #@! TA.AperFunction,ComponentPad*
%ADD12R,1.400000X1.400000*%
G04 #@! TD*
G04 #@! TA.AperFunction,ComponentPad*
%ADD13C,1.400000*%
G04 #@! TD*
G04 #@! TA.AperFunction,ComponentPad*
%ADD14C,0.600000*%
G04 #@! TD*
G04 #@! TA.AperFunction,SMDPad,CuDef*
%ADD15R,3.400000X5.000000*%
G04 #@! TD*
G04 #@! TA.AperFunction,SMDPad,CuDef*
%ADD16C,1.000000*%
G04 #@! TD*
G04 #@! TA.AperFunction,ViaPad*
%ADD17C,0.800000*%
G04 #@! TD*
G04 #@! TA.AperFunction,Conductor*
%ADD18C,0.400000*%
G04 #@! TD*
G04 #@! TA.AperFunction,Conductor*
%ADD19C,0.300000*%
G04 #@! TD*
G04 #@! TA.AperFunction,Conductor*
%ADD20C,0.200000*%
G04 #@! TD*
G04 APERTURE END LIST*
D10*
G04 #@! TO.P,J1,1*
G04 #@! TO.N,Net-(D1-Pad3)*
X163000000Y-103710000D03*
D11*
G04 #@! TO.P,J1,2*
G04 #@! TO.N,Net-(D1-Pad4)*
X163000000Y-108790000D03*
G04 #@! TD*
D10*
G04 #@! TO.P,J2,1*
G04 #@! TO.N,/TRACK_B_END1*
X201000000Y-117290000D03*
D11*
G04 #@! TO.P,J2,2*
G04 #@! TO.N,/TRACK_B_END2*
X201000000Y-112210000D03*
G04 #@! TD*
D10*
G04 #@! TO.P,J3,1*
G04 #@! TO.N,/TRACK_A*
X172210000Y-116000000D03*
D11*
G04 #@! TO.P,J3,2*
G04 #@! TO.N,/TRACK_B*
X177290000Y-116000000D03*
G04 #@! TD*
D10*
G04 #@! TO.P,J4,1*
G04 #@! TO.N,/ILS2*
X201000000Y-82790000D03*
D11*
G04 #@! TO.P,J4,2*
G04 #@! TO.N,GND*
X201000000Y-77710000D03*
G04 #@! TD*
D10*
G04 #@! TO.P,J5,1*
G04 #@! TO.N,/ILS1-SCK*
X201000000Y-95290000D03*
D11*
G04 #@! TO.P,J5,2*
G04 #@! TO.N,GND*
X201000000Y-90210000D03*
G04 #@! TD*
D12*
G04 #@! TO.P,RV1,1*
G04 #@! TO.N,+5V*
X189960000Y-78750000D03*
D13*
G04 #@! TO.P,RV1,2*
G04 #@! TO.N,/DELAY*
X192500000Y-76210000D03*
G04 #@! TO.P,RV1,3*
G04 #@! TO.N,GND*
X195040000Y-78750000D03*
G04 #@! TD*
D12*
G04 #@! TO.P,RV2,1*
G04 #@! TO.N,+5V*
X182460000Y-78750000D03*
D13*
G04 #@! TO.P,RV2,2*
G04 #@! TO.N,/DECEL*
X185000000Y-76210000D03*
G04 #@! TO.P,RV2,3*
G04 #@! TO.N,GND*
X187540000Y-78750000D03*
G04 #@! TD*
D12*
G04 #@! TO.P,RV3,1*
G04 #@! TO.N,+5V*
X174960000Y-78750000D03*
D13*
G04 #@! TO.P,RV3,2*
G04 #@! TO.N,/ACCEL*
X177500000Y-76210000D03*
G04 #@! TO.P,RV3,3*
G04 #@! TO.N,GND*
X180040000Y-78750000D03*
G04 #@! TD*
D14*
G04 #@! TO.P,U3,17*
G04 #@! TO.N,GND*
X173500000Y-104300000D03*
X174600000Y-106500000D03*
X172400000Y-108700000D03*
D15*
X173500000Y-106500000D03*
D14*
X174600000Y-105400000D03*
X173500000Y-106500000D03*
X174600000Y-107600000D03*
X174600000Y-104300000D03*
X172400000Y-104300000D03*
X172400000Y-105400000D03*
X172400000Y-106500000D03*
X173500000Y-108700000D03*
X172400000Y-107600000D03*
X173500000Y-107600000D03*
X174600000Y-108700000D03*
X173500000Y-105400000D03*
G04 #@! TD*
D12*
G04 #@! TO.P,RV4,1*
G04 #@! TO.N,+5V*
X167460000Y-78750000D03*
D13*
G04 #@! TO.P,RV4,2*
G04 #@! TO.N,/MAX_SPEED*
X170000000Y-76210000D03*
G04 #@! TO.P,RV4,3*
G04 #@! TO.N,GND*
X172540000Y-78750000D03*
G04 #@! TD*
D16*
G04 #@! TO.P,TP1,1*
G04 #@! TO.N,Net-(D1-Pad3)*
X160300000Y-103900000D03*
G04 #@! TD*
G04 #@! TO.P,TP2,1*
G04 #@! TO.N,Net-(D1-Pad4)*
X160800000Y-110800000D03*
G04 #@! TD*
G04 #@! TO.P,TP3,1*
G04 #@! TO.N,+5V*
X184300000Y-78700000D03*
G04 #@! TD*
G04 #@! TO.P,TP4,1*
G04 #@! TO.N,/ILS1-SCK*
X180900000Y-112700000D03*
G04 #@! TD*
G04 #@! TO.P,TP5,1*
G04 #@! TO.N,/RESET*
X192600000Y-92900000D03*
G04 #@! TD*
G04 #@! TO.P,TP6,1*
G04 #@! TO.N,/MOSI-DIR*
X196100000Y-87100000D03*
G04 #@! TD*
G04 #@! TO.P,TP7,1*
G04 #@! TO.N,/MISO-M_EN*
X197500000Y-85500000D03*
G04 #@! TD*
G04 #@! TO.P,TP8,1*
G04 #@! TO.N,/DELAY*
X194200000Y-76200000D03*
G04 #@! TD*
G04 #@! TO.P,TP9,1*
G04 #@! TO.N,/DECEL*
X186800000Y-76300000D03*
G04 #@! TD*
G04 #@! TO.P,TP10,1*
G04 #@! TO.N,/ACCEL*
X179300000Y-76200000D03*
G04 #@! TD*
G04 #@! TO.P,TP11,1*
G04 #@! TO.N,/MAX_SPEED*
X171700000Y-76200000D03*
G04 #@! TD*
G04 #@! TO.P,TP12,1*
G04 #@! TO.N,GND*
X174900000Y-83000000D03*
G04 #@! TD*
G04 #@! TO.P,TP13,1*
G04 #@! TO.N,Net-(TP13-Pad1)*
X176900000Y-104000000D03*
G04 #@! TD*
G04 #@! TO.P,TP16,1*
G04 #@! TO.N,/MOTOR_FAULT*
X189500000Y-89800000D03*
G04 #@! TD*
G04 #@! TO.P,TP17,1*
G04 #@! TO.N,/MOTOR_CURRENT*
X195000000Y-91000000D03*
G04 #@! TD*
G04 #@! TO.P,TP18,1*
G04 #@! TO.N,Net-(R2-Pad1)*
X170800000Y-111600000D03*
G04 #@! TD*
G04 #@! TO.P,TP15,1*
G04 #@! TO.N,/ILS2*
X198000000Y-82700000D03*
G04 #@! TD*
D17*
G04 #@! TO.N,GND*
X165000000Y-82500000D03*
X173200000Y-95000000D03*
X173900000Y-111700000D03*
X197500000Y-115000000D03*
X187500000Y-97500000D03*
X197500000Y-95000000D03*
X176000000Y-81000000D03*
X174200000Y-102400000D03*
X178900000Y-81600000D03*
X181800000Y-107400000D03*
X165000000Y-110000000D03*
X177500000Y-112500000D03*
X190000000Y-110000000D03*
X185700000Y-83100000D03*
X197500000Y-97500000D03*
X185100000Y-90900000D03*
X171900000Y-92200000D03*
X173000000Y-113000000D03*
X175000000Y-98800000D03*
X165000000Y-97500000D03*
X187300000Y-81600000D03*
X165000000Y-85000000D03*
X185000000Y-95000000D03*
X186400000Y-92100000D03*
X185000000Y-92100000D03*
X176500000Y-91800000D03*
X195000000Y-92500000D03*
X179400000Y-86000000D03*
X182000000Y-81700000D03*
X175300000Y-103000000D03*
X197500000Y-92500000D03*
X179300000Y-99300000D03*
X187500000Y-110000000D03*
X170300000Y-95900000D03*
X195000000Y-107500000D03*
X172000000Y-81000000D03*
X190000000Y-86000000D03*
X177500000Y-80000000D03*
X177600000Y-91900000D03*
X174200000Y-91800000D03*
X196600000Y-82500000D03*
X175400000Y-91800000D03*
X167000000Y-83000000D03*
X177600000Y-109400000D03*
X170000000Y-80000000D03*
X178300000Y-105700000D03*
X186400000Y-90900000D03*
X180200000Y-81600000D03*
X187600000Y-86000000D03*
X197500000Y-90000000D03*
X190000000Y-97500000D03*
X169400000Y-102000000D03*
X197500000Y-100000000D03*
X172100000Y-101100000D03*
X172400000Y-111600000D03*
X171000000Y-113000000D03*
X183600000Y-92100000D03*
X175100000Y-100100000D03*
X165000000Y-95000000D03*
X169000000Y-81000000D03*
G04 #@! TO.N,+5V*
X171100000Y-101800000D03*
X181200000Y-108200000D03*
X176200000Y-101900000D03*
X162100000Y-100400000D03*
X181000000Y-95100000D03*
X168900000Y-106600000D03*
X179000000Y-88900000D03*
G04 #@! TO.N,Vdrive*
X177900000Y-110400000D03*
X179900000Y-102800000D03*
G04 #@! TO.N,/RESET*
X192500000Y-92800000D03*
X180100000Y-94200000D03*
G04 #@! TO.N,/ILS1-SCK*
X180900000Y-112700000D03*
X179100000Y-93300000D03*
G04 #@! TO.N,Net-(R2-Pad1)*
X170800000Y-111600000D03*
G04 #@! TO.N,/MOTOR_CURRENT*
X195000000Y-91000000D03*
G04 #@! TO.N,/MOTOR_FAULT*
X173200000Y-101500000D03*
X190000000Y-90700000D03*
G04 #@! TO.N,Net-(TP13-Pad1)*
X176700000Y-103200000D03*
G04 #@! TO.N,/LED*
X160400000Y-102000000D03*
X193200000Y-87200000D03*
G04 #@! TO.N,/ILS2*
X195900000Y-95400000D03*
X181799997Y-98300000D03*
G04 #@! TO.N,/MISO-M_EN*
X174000000Y-93000000D03*
X188700000Y-86800000D03*
X195100000Y-81500000D03*
X168700000Y-107700000D03*
G04 #@! TO.N,/MOSI-DIR*
X169565676Y-98026337D03*
X196100000Y-87100000D03*
G04 #@! TD*
D18*
G04 #@! TO.N,GND*
X173500000Y-106500000D02*
X171400000Y-106500000D01*
X173500000Y-106500000D02*
X173500000Y-103500000D01*
X173500000Y-106500000D02*
X173500000Y-109700000D01*
X173500000Y-106500000D02*
X175600000Y-106500000D01*
G04 #@! TO.N,+5V*
X166600000Y-106784002D02*
X166600000Y-101600000D01*
D19*
X176200000Y-101900000D02*
X178300000Y-101900000D01*
X179700000Y-100500000D02*
X181000000Y-100500000D01*
X171100000Y-101800000D02*
X169499995Y-100199995D01*
D18*
X167900010Y-92848532D02*
X172748542Y-88000000D01*
X165400000Y-100400000D02*
X162100000Y-100400000D01*
X166600000Y-101600000D02*
X165400000Y-100400000D01*
X168900000Y-106600000D02*
X167900000Y-105700000D01*
X167900005Y-100199995D02*
X167900010Y-92848532D01*
D19*
X181000000Y-95100000D02*
X181000000Y-100500000D01*
D18*
X167900000Y-105700000D02*
X167900005Y-100199995D01*
X168900000Y-106600000D02*
X169800000Y-106600000D01*
X184300000Y-78700000D02*
X182510000Y-78700000D01*
D19*
X181000000Y-100500000D02*
X181000000Y-108000000D01*
X178300000Y-101900000D02*
X179700000Y-100500000D01*
D18*
X178100000Y-88000000D02*
X179000000Y-88900000D01*
X169800000Y-106600000D02*
X170000000Y-106800000D01*
X168415998Y-108600000D02*
X166600000Y-106784002D01*
X182510000Y-78700000D02*
X182460000Y-78750000D01*
X170000000Y-108000000D02*
X169400000Y-108600000D01*
X172748542Y-88000000D02*
X178100000Y-88000000D01*
X169400000Y-108600000D02*
X168415998Y-108600000D01*
D19*
X181000000Y-108000000D02*
X181200000Y-108200000D01*
D18*
X170000000Y-106800000D02*
X170000000Y-108000000D01*
D19*
X169499995Y-100199995D02*
X167900005Y-100199995D01*
G04 #@! TO.N,Vdrive*
X177900000Y-110300000D02*
X177900000Y-110400000D01*
X179900000Y-108300000D02*
X177900000Y-110300000D01*
X179900000Y-102800000D02*
X179900000Y-108300000D01*
G04 #@! TO.N,/RESET*
X190900000Y-94200000D02*
X191100000Y-94200000D01*
X180100000Y-94200000D02*
X190900000Y-94200000D01*
X191100000Y-94200000D02*
X192500000Y-92800000D01*
D18*
G04 #@! TO.N,Net-(D1-Pad4)*
X160800000Y-110800000D02*
X160990000Y-110800000D01*
X160990000Y-110800000D02*
X163000000Y-108790000D01*
G04 #@! TO.N,Net-(D1-Pad3)*
X160300000Y-103900000D02*
X162810000Y-103900000D01*
X162810000Y-103900000D02*
X163000000Y-103710000D01*
D19*
G04 #@! TO.N,/ILS1-SCK*
X193449999Y-92049999D02*
X195300000Y-93900000D01*
X180800000Y-93600000D02*
X190500000Y-93600000D01*
X180500000Y-93300000D02*
X180800000Y-93600000D01*
D18*
X201000000Y-97300000D02*
X201000000Y-95290000D01*
X199500000Y-98800000D02*
X201000000Y-97300000D01*
D19*
X191800000Y-92300000D02*
X191907120Y-92300000D01*
X191800000Y-92300000D02*
X192050001Y-92049999D01*
D18*
X194800000Y-98800000D02*
X199500000Y-98800000D01*
D19*
X198990000Y-95290000D02*
X201000000Y-95290000D01*
X197600000Y-93900000D02*
X198990000Y-95290000D01*
X195300000Y-93900000D02*
X197600000Y-93900000D01*
X192050001Y-92049999D02*
X193449999Y-92049999D01*
X179100000Y-93300000D02*
X180500000Y-93300000D01*
X190500000Y-93600000D02*
X191800000Y-92300000D01*
D18*
X180900000Y-112700000D02*
X194800000Y-98800000D01*
G04 #@! TO.N,/DELAY*
X194190000Y-76210000D02*
X194200000Y-76200000D01*
X192500000Y-76210000D02*
X194190000Y-76210000D01*
G04 #@! TO.N,/DECEL*
X185090000Y-76300000D02*
X185000000Y-76210000D01*
X186800000Y-76300000D02*
X185090000Y-76300000D01*
G04 #@! TO.N,/ACCEL*
X177500000Y-76210000D02*
X179290000Y-76210000D01*
X179290000Y-76210000D02*
X179300000Y-76200000D01*
G04 #@! TO.N,/MAX_SPEED*
X170010000Y-76200000D02*
X170000000Y-76210000D01*
X171700000Y-76200000D02*
X170010000Y-76200000D01*
D19*
G04 #@! TO.N,/MOTOR_FAULT*
X190000000Y-90400000D02*
X190000000Y-90700000D01*
X180064219Y-90650021D02*
X181614220Y-89100020D01*
X169450034Y-93490578D02*
X173390582Y-89550030D01*
X178235781Y-90650021D02*
X180064219Y-90650021D01*
X170195301Y-97595301D02*
X169450034Y-96850034D01*
X181614220Y-89100020D02*
X188700020Y-89100020D01*
X173200000Y-101500000D02*
X173200000Y-98774572D01*
X172020729Y-97595301D02*
X170195301Y-97595301D01*
X173200000Y-98774572D02*
X172020729Y-97595301D01*
X177135790Y-89550030D02*
X178235781Y-90650021D01*
X188700020Y-89100020D02*
X190000000Y-90400000D01*
X169450034Y-96850034D02*
X169450034Y-93490578D01*
X173390582Y-89550030D02*
X177135790Y-89550030D01*
G04 #@! TO.N,Net-(TP13-Pad1)*
X176700000Y-103800000D02*
X176900000Y-104000000D01*
X176700000Y-103200000D02*
X176700000Y-103800000D01*
D18*
G04 #@! TO.N,/LED*
X186600000Y-85600000D02*
X188100000Y-84100000D01*
D19*
X178700000Y-86700000D02*
X178750001Y-86750001D01*
D18*
X161500000Y-99400000D02*
X165500000Y-99400000D01*
X161000000Y-99900000D02*
X161500000Y-99400000D01*
X166500000Y-92400000D02*
X172200000Y-86700000D01*
X180049999Y-86750001D02*
X180100000Y-86700000D01*
X188100000Y-84100000D02*
X191200000Y-84100000D01*
X193200000Y-86100000D02*
X193200000Y-87200000D01*
D19*
X178750001Y-86750001D02*
X180049999Y-86750001D01*
D18*
X166500000Y-98400000D02*
X166500000Y-92400000D01*
X185500000Y-86700000D02*
X186600000Y-85600000D01*
X161000000Y-101400000D02*
X161000000Y-99900000D01*
X180100000Y-86700000D02*
X185500000Y-86700000D01*
X191200000Y-84100000D02*
X193200000Y-86100000D01*
X165500000Y-99400000D02*
X166500000Y-98400000D01*
X160400000Y-102000000D02*
X161000000Y-101400000D01*
X172200000Y-86700000D02*
X178700000Y-86700000D01*
G04 #@! TO.N,/ILS2*
X200910000Y-82700000D02*
X201000000Y-82790000D01*
X195500000Y-95800000D02*
X195900000Y-95400000D01*
X183900000Y-98300000D02*
X186400000Y-95800000D01*
X181799997Y-98300000D02*
X183900000Y-98300000D01*
X198000000Y-82700000D02*
X200910000Y-82700000D01*
X186400000Y-95800000D02*
X195500000Y-95800000D01*
D19*
G04 #@! TO.N,/MISO-M_EN*
X172600000Y-91047732D02*
X173597692Y-90050040D01*
D18*
X197450000Y-85150000D02*
X195100000Y-82800000D01*
D19*
X187400030Y-89600030D02*
X189250001Y-91450001D01*
X189250001Y-91450001D02*
X190360001Y-91450001D01*
X190360001Y-91450001D02*
X190900000Y-90910002D01*
X181821330Y-89600030D02*
X187400030Y-89600030D01*
X174000000Y-93000000D02*
X172600000Y-91600000D01*
D18*
X197450000Y-86050000D02*
X197450000Y-85150000D01*
X168700000Y-107700000D02*
X167300000Y-106300000D01*
D19*
X172600000Y-91600000D02*
X172600000Y-91047732D01*
D18*
X188100000Y-87400000D02*
X188700000Y-86800000D01*
X195100000Y-82800000D02*
X195100000Y-81500000D01*
D19*
X173597692Y-90050040D02*
X176928680Y-90050040D01*
X190900000Y-90200000D02*
X191800000Y-89300000D01*
D18*
X167300000Y-92600000D02*
X172500000Y-87400000D01*
D19*
X180271329Y-91150031D02*
X181821330Y-89600030D01*
D18*
X172500000Y-87400000D02*
X188100000Y-87400000D01*
D19*
X197500000Y-87600000D02*
X197500000Y-85900000D01*
X191800000Y-89300000D02*
X195800000Y-89300000D01*
X195800000Y-89300000D02*
X197500000Y-87600000D01*
D18*
X167300000Y-105500000D02*
X167300000Y-92600000D01*
D19*
X176928680Y-90050040D02*
X178028671Y-91150031D01*
X178028671Y-91150031D02*
X180271329Y-91150031D01*
D18*
X167300000Y-106300000D02*
X167300000Y-105500000D01*
D19*
X190900000Y-90910002D02*
X190900000Y-90200000D01*
G04 #@! TO.N,/MOSI-DIR*
X177342900Y-89050020D02*
X178442891Y-90150011D01*
X178442891Y-90150011D02*
X179857109Y-90150011D01*
X173183472Y-89050020D02*
X177342900Y-89050020D01*
X169565676Y-98026337D02*
X168950024Y-97410685D01*
X168950024Y-97410685D02*
X168950024Y-93283468D01*
X179857109Y-90150011D02*
X181407110Y-88600010D01*
X195299990Y-88600010D02*
X196100000Y-87800000D01*
X196100000Y-87800000D02*
X196100000Y-87100000D01*
X181407110Y-88600010D02*
X195299990Y-88600010D01*
X168950024Y-93283468D02*
X173183472Y-89050020D01*
G04 #@! TD*
G04 #@! TO.N,GND*
D20*
X195758904Y-75218523D02*
X195769079Y-75230921D01*
X195818566Y-75271535D01*
X195875026Y-75301713D01*
X195936288Y-75320297D01*
X195942362Y-75320895D01*
X195984039Y-75325000D01*
X195984046Y-75325000D01*
X195999999Y-75326571D01*
X196015952Y-75325000D01*
X204865382Y-75325000D01*
X206175001Y-76634620D01*
X206175000Y-83865381D01*
X204781478Y-85258904D01*
X204769080Y-85269079D01*
X204728466Y-85318566D01*
X204715797Y-85342268D01*
X204698287Y-85375027D01*
X204679703Y-85436289D01*
X204673429Y-85500000D01*
X204675001Y-85515963D01*
X204675000Y-87484047D01*
X204673429Y-87500000D01*
X204675000Y-87515953D01*
X204675000Y-87515960D01*
X204676538Y-87531574D01*
X204679703Y-87563711D01*
X204688366Y-87592267D01*
X204698287Y-87624973D01*
X204728465Y-87681433D01*
X204769079Y-87730921D01*
X204781483Y-87741101D01*
X206175001Y-89134620D01*
X206175000Y-96365381D01*
X204781483Y-97758899D01*
X204769079Y-97769079D01*
X204728465Y-97818567D01*
X204709646Y-97853776D01*
X204698287Y-97875027D01*
X204679844Y-97935826D01*
X204679703Y-97936290D01*
X204675000Y-97984040D01*
X204675000Y-97984047D01*
X204673429Y-98000000D01*
X204675000Y-98015953D01*
X204675001Y-109484037D01*
X204673429Y-109500000D01*
X204679703Y-109563711D01*
X204698287Y-109624973D01*
X204698288Y-109624974D01*
X204728466Y-109681434D01*
X204769080Y-109730921D01*
X204781478Y-109741096D01*
X206175001Y-111134620D01*
X206175000Y-118365381D01*
X204865382Y-119675000D01*
X180015952Y-119675000D01*
X179999999Y-119673429D01*
X179984046Y-119675000D01*
X179984039Y-119675000D01*
X179942362Y-119679105D01*
X179936288Y-119679703D01*
X179875026Y-119698287D01*
X179818566Y-119728465D01*
X179769079Y-119769079D01*
X179758905Y-119781476D01*
X178365382Y-121175000D01*
X171134619Y-121175000D01*
X169741101Y-119781483D01*
X169730921Y-119769079D01*
X169681434Y-119728465D01*
X169624974Y-119698287D01*
X169563711Y-119679703D01*
X169515961Y-119675000D01*
X169515953Y-119675000D01*
X169500000Y-119673429D01*
X169484047Y-119675000D01*
X161134619Y-119675000D01*
X159325000Y-117865382D01*
X159325000Y-116062866D01*
X160850000Y-116062866D01*
X160850000Y-116437134D01*
X160923016Y-116804209D01*
X161066242Y-117149987D01*
X161274174Y-117461179D01*
X161538821Y-117725826D01*
X161850013Y-117933758D01*
X162195791Y-118076984D01*
X162562866Y-118150000D01*
X162937134Y-118150000D01*
X163304209Y-118076984D01*
X163649987Y-117933758D01*
X163961179Y-117725826D01*
X164225826Y-117461179D01*
X164433758Y-117149987D01*
X164576984Y-116804209D01*
X164650000Y-116437134D01*
X164650000Y-116062866D01*
X164576984Y-115695791D01*
X164433758Y-115350013D01*
X164225826Y-115038821D01*
X163961179Y-114774174D01*
X163649987Y-114566242D01*
X163490065Y-114500000D01*
X170408549Y-114500000D01*
X170408549Y-117500000D01*
X170414341Y-117558810D01*
X170431496Y-117615360D01*
X170459353Y-117667477D01*
X170496842Y-117713158D01*
X170542523Y-117750647D01*
X170594640Y-117778504D01*
X170651190Y-117795659D01*
X170710000Y-117801451D01*
X173710000Y-117801451D01*
X173768810Y-117795659D01*
X173825360Y-117778504D01*
X173877477Y-117750647D01*
X173923158Y-117713158D01*
X173960647Y-117667477D01*
X173988504Y-117615360D01*
X174005659Y-117558810D01*
X174011451Y-117500000D01*
X174011451Y-115822716D01*
X175490000Y-115822716D01*
X175490000Y-116177284D01*
X175559173Y-116525041D01*
X175694861Y-116852620D01*
X175891849Y-117147433D01*
X176142567Y-117398151D01*
X176437380Y-117595139D01*
X176764959Y-117730827D01*
X177112716Y-117800000D01*
X177467284Y-117800000D01*
X177815041Y-117730827D01*
X178142620Y-117595139D01*
X178437433Y-117398151D01*
X178688151Y-117147433D01*
X178885139Y-116852620D01*
X179020827Y-116525041D01*
X179090000Y-116177284D01*
X179090000Y-115822716D01*
X179083493Y-115790000D01*
X199198549Y-115790000D01*
X199198549Y-118790000D01*
X199204341Y-118848810D01*
X199221496Y-118905360D01*
X199249353Y-118957477D01*
X199286842Y-119003158D01*
X199332523Y-119040647D01*
X199384640Y-119068504D01*
X199441190Y-119085659D01*
X199500000Y-119091451D01*
X202500000Y-119091451D01*
X202558810Y-119085659D01*
X202615360Y-119068504D01*
X202667477Y-119040647D01*
X202713158Y-119003158D01*
X202750647Y-118957477D01*
X202778504Y-118905360D01*
X202795659Y-118848810D01*
X202801451Y-118790000D01*
X202801451Y-115790000D01*
X202795659Y-115731190D01*
X202778504Y-115674640D01*
X202750647Y-115622523D01*
X202713158Y-115576842D01*
X202667477Y-115539353D01*
X202615360Y-115511496D01*
X202558810Y-115494341D01*
X202500000Y-115488549D01*
X199500000Y-115488549D01*
X199441190Y-115494341D01*
X199384640Y-115511496D01*
X199332523Y-115539353D01*
X199286842Y-115576842D01*
X199249353Y-115622523D01*
X199221496Y-115674640D01*
X199204341Y-115731190D01*
X199198549Y-115790000D01*
X179083493Y-115790000D01*
X179020827Y-115474959D01*
X178885139Y-115147380D01*
X178688151Y-114852567D01*
X178437433Y-114601849D01*
X178142620Y-114404861D01*
X177815041Y-114269173D01*
X177467284Y-114200000D01*
X177112716Y-114200000D01*
X176764959Y-114269173D01*
X176437380Y-114404861D01*
X176142567Y-114601849D01*
X175891849Y-114852567D01*
X175694861Y-115147380D01*
X175559173Y-115474959D01*
X175490000Y-115822716D01*
X174011451Y-115822716D01*
X174011451Y-114500000D01*
X174005659Y-114441190D01*
X173988504Y-114384640D01*
X173960647Y-114332523D01*
X173923158Y-114286842D01*
X173877477Y-114249353D01*
X173825360Y-114221496D01*
X173768810Y-114204341D01*
X173710000Y-114198549D01*
X170710000Y-114198549D01*
X170651190Y-114204341D01*
X170594640Y-114221496D01*
X170542523Y-114249353D01*
X170496842Y-114286842D01*
X170459353Y-114332523D01*
X170431496Y-114384640D01*
X170414341Y-114441190D01*
X170408549Y-114500000D01*
X163490065Y-114500000D01*
X163304209Y-114423016D01*
X162937134Y-114350000D01*
X162562866Y-114350000D01*
X162195791Y-114423016D01*
X161850013Y-114566242D01*
X161538821Y-114774174D01*
X161274174Y-115038821D01*
X161066242Y-115350013D01*
X160923016Y-115695791D01*
X160850000Y-116062866D01*
X159325000Y-116062866D01*
X159325000Y-111515952D01*
X159326571Y-111499999D01*
X159325000Y-111484046D01*
X159325000Y-111484039D01*
X159320297Y-111436289D01*
X159301713Y-111375026D01*
X159271535Y-111318566D01*
X159230921Y-111269079D01*
X159218524Y-111258905D01*
X158680826Y-110721207D01*
X160000000Y-110721207D01*
X160000000Y-110878793D01*
X160030743Y-111033351D01*
X160091049Y-111178942D01*
X160178599Y-111309970D01*
X160290030Y-111421401D01*
X160421058Y-111508951D01*
X160566649Y-111569257D01*
X160721207Y-111600000D01*
X160878793Y-111600000D01*
X161033351Y-111569257D01*
X161149353Y-111521207D01*
X170000000Y-111521207D01*
X170000000Y-111678793D01*
X170030743Y-111833351D01*
X170091049Y-111978942D01*
X170178599Y-112109970D01*
X170290030Y-112221401D01*
X170421058Y-112308951D01*
X170566649Y-112369257D01*
X170721207Y-112400000D01*
X170878793Y-112400000D01*
X171033351Y-112369257D01*
X171178942Y-112308951D01*
X171309970Y-112221401D01*
X171421401Y-112109970D01*
X171508951Y-111978942D01*
X171569257Y-111833351D01*
X171600000Y-111678793D01*
X171600000Y-111521207D01*
X171569257Y-111366649D01*
X171508951Y-111221058D01*
X171421401Y-111090030D01*
X171309970Y-110978599D01*
X171178942Y-110891049D01*
X171033351Y-110830743D01*
X170878793Y-110800000D01*
X170721207Y-110800000D01*
X170566649Y-110830743D01*
X170421058Y-110891049D01*
X170290030Y-110978599D01*
X170178599Y-111090030D01*
X170091049Y-111221058D01*
X170030743Y-111366649D01*
X170000000Y-111521207D01*
X161149353Y-111521207D01*
X161178942Y-111508951D01*
X161309970Y-111421401D01*
X161421401Y-111309970D01*
X161508951Y-111178942D01*
X161569257Y-111033351D01*
X161595453Y-110901652D01*
X162126151Y-110370954D01*
X162147380Y-110385139D01*
X162474959Y-110520827D01*
X162822716Y-110590000D01*
X163177284Y-110590000D01*
X163525041Y-110520827D01*
X163852620Y-110385139D01*
X164147433Y-110188151D01*
X164398151Y-109937433D01*
X164595139Y-109642620D01*
X164730827Y-109315041D01*
X164800000Y-108967284D01*
X164800000Y-108612716D01*
X164730827Y-108264959D01*
X164595139Y-107937380D01*
X164398151Y-107642567D01*
X164147433Y-107391849D01*
X163852620Y-107194861D01*
X163525041Y-107059173D01*
X163177284Y-106990000D01*
X162822716Y-106990000D01*
X162474959Y-107059173D01*
X162147380Y-107194861D01*
X161852567Y-107391849D01*
X161601849Y-107642567D01*
X161404861Y-107937380D01*
X161269173Y-108264959D01*
X161200000Y-108612716D01*
X161200000Y-108967284D01*
X161269173Y-109315041D01*
X161404861Y-109642620D01*
X161419046Y-109663849D01*
X161046645Y-110036250D01*
X161033351Y-110030743D01*
X160878793Y-110000000D01*
X160721207Y-110000000D01*
X160566649Y-110030743D01*
X160421058Y-110091049D01*
X160290030Y-110178599D01*
X160178599Y-110290030D01*
X160091049Y-110421058D01*
X160030743Y-110566649D01*
X160000000Y-110721207D01*
X158680826Y-110721207D01*
X157825000Y-109865382D01*
X157825000Y-103821207D01*
X159500000Y-103821207D01*
X159500000Y-103978793D01*
X159530743Y-104133351D01*
X159591049Y-104278942D01*
X159678599Y-104409970D01*
X159790030Y-104521401D01*
X159921058Y-104608951D01*
X160066649Y-104669257D01*
X160221207Y-104700000D01*
X160378793Y-104700000D01*
X160533351Y-104669257D01*
X160678942Y-104608951D01*
X160809970Y-104521401D01*
X160921401Y-104409970D01*
X160928063Y-104400000D01*
X161198549Y-104400000D01*
X161198549Y-105210000D01*
X161204341Y-105268810D01*
X161221496Y-105325360D01*
X161249353Y-105377477D01*
X161286842Y-105423158D01*
X161332523Y-105460647D01*
X161384640Y-105488504D01*
X161441190Y-105505659D01*
X161500000Y-105511451D01*
X164500000Y-105511451D01*
X164558810Y-105505659D01*
X164615360Y-105488504D01*
X164667477Y-105460647D01*
X164713158Y-105423158D01*
X164750647Y-105377477D01*
X164778504Y-105325360D01*
X164795659Y-105268810D01*
X164801451Y-105210000D01*
X164801451Y-102210000D01*
X164795659Y-102151190D01*
X164778504Y-102094640D01*
X164750647Y-102042523D01*
X164713158Y-101996842D01*
X164667477Y-101959353D01*
X164615360Y-101931496D01*
X164558810Y-101914341D01*
X164500000Y-101908549D01*
X161500000Y-101908549D01*
X161441190Y-101914341D01*
X161384640Y-101931496D01*
X161332523Y-101959353D01*
X161286842Y-101996842D01*
X161249353Y-102042523D01*
X161221496Y-102094640D01*
X161204341Y-102151190D01*
X161198549Y-102210000D01*
X161198549Y-103400000D01*
X160928063Y-103400000D01*
X160921401Y-103390030D01*
X160809970Y-103278599D01*
X160678942Y-103191049D01*
X160533351Y-103130743D01*
X160378793Y-103100000D01*
X160221207Y-103100000D01*
X160066649Y-103130743D01*
X159921058Y-103191049D01*
X159790030Y-103278599D01*
X159678599Y-103390030D01*
X159591049Y-103521058D01*
X159530743Y-103666649D01*
X159500000Y-103821207D01*
X157825000Y-103821207D01*
X157825000Y-102634618D01*
X158528562Y-101931056D01*
X159700000Y-101931056D01*
X159700000Y-102068944D01*
X159726901Y-102204182D01*
X159779668Y-102331574D01*
X159856274Y-102446224D01*
X159953776Y-102543726D01*
X160068426Y-102620332D01*
X160195818Y-102673099D01*
X160331056Y-102700000D01*
X160468944Y-102700000D01*
X160604182Y-102673099D01*
X160731574Y-102620332D01*
X160846224Y-102543726D01*
X160943726Y-102446224D01*
X161020332Y-102331574D01*
X161073099Y-102204182D01*
X161100000Y-102068944D01*
X161100000Y-102007106D01*
X161336181Y-101770925D01*
X161355264Y-101755264D01*
X161417746Y-101679129D01*
X161464175Y-101592267D01*
X161492765Y-101498017D01*
X161500000Y-101424560D01*
X161500000Y-101424559D01*
X161502419Y-101400001D01*
X161500000Y-101375443D01*
X161500000Y-100762003D01*
X161556274Y-100846224D01*
X161653776Y-100943726D01*
X161768426Y-101020332D01*
X161895818Y-101073099D01*
X162031056Y-101100000D01*
X162168944Y-101100000D01*
X162304182Y-101073099D01*
X162431574Y-101020332D01*
X162546224Y-100943726D01*
X162589950Y-100900000D01*
X165192895Y-100900000D01*
X166100001Y-101807108D01*
X166100000Y-106759442D01*
X166097581Y-106784002D01*
X166107235Y-106882019D01*
X166112088Y-106898017D01*
X166135825Y-106976268D01*
X166182254Y-107063131D01*
X166244736Y-107139266D01*
X166263824Y-107154931D01*
X168045073Y-108936181D01*
X168060734Y-108955264D01*
X168136869Y-109017746D01*
X168223731Y-109064175D01*
X168289390Y-109084092D01*
X168317980Y-109092765D01*
X168415997Y-109102419D01*
X168440557Y-109100000D01*
X169375440Y-109100000D01*
X169400000Y-109102419D01*
X169424560Y-109100000D01*
X169498017Y-109092765D01*
X169592267Y-109064175D01*
X169679129Y-109017746D01*
X169755264Y-108955264D01*
X169770929Y-108936176D01*
X170336181Y-108370925D01*
X170355264Y-108355264D01*
X170417746Y-108279129D01*
X170464175Y-108192267D01*
X170492765Y-108098017D01*
X170500000Y-108024560D01*
X170500000Y-108024559D01*
X170502419Y-108000001D01*
X170500000Y-107975443D01*
X170500000Y-106824560D01*
X170502419Y-106800000D01*
X170492765Y-106701983D01*
X170478593Y-106655264D01*
X170464175Y-106607733D01*
X170417746Y-106520871D01*
X170355264Y-106444736D01*
X170336181Y-106429075D01*
X170170928Y-106263823D01*
X170155264Y-106244736D01*
X170079129Y-106182254D01*
X169992267Y-106135825D01*
X169898017Y-106107235D01*
X169800000Y-106097581D01*
X169775440Y-106100000D01*
X169389950Y-106100000D01*
X169346224Y-106056274D01*
X169231574Y-105979668D01*
X169104182Y-105926901D01*
X168968944Y-105900000D01*
X168869645Y-105900000D01*
X168399999Y-105477319D01*
X168400000Y-104000000D01*
X171398065Y-104000000D01*
X171400000Y-106246000D01*
X171500000Y-106346000D01*
X171714332Y-106346000D01*
X171712248Y-106352519D01*
X171696690Y-106489526D01*
X171708161Y-106626937D01*
X171715932Y-106654000D01*
X171500000Y-106654000D01*
X171400000Y-106754000D01*
X171398065Y-109000000D01*
X171405788Y-109078414D01*
X171428660Y-109153814D01*
X171465803Y-109223303D01*
X171515789Y-109284211D01*
X171576697Y-109334197D01*
X171646186Y-109371340D01*
X171721586Y-109394212D01*
X171800000Y-109401935D01*
X172370692Y-109401171D01*
X172389526Y-109403310D01*
X172415869Y-109401111D01*
X173246000Y-109400000D01*
X173281084Y-109364916D01*
X173345998Y-109385667D01*
X173345998Y-109400000D01*
X173460377Y-109400000D01*
X173489526Y-109403310D01*
X173529176Y-109400000D01*
X173654002Y-109400000D01*
X173654002Y-109384067D01*
X173719312Y-109365312D01*
X173754000Y-109400000D01*
X174569993Y-109401092D01*
X174589526Y-109403310D01*
X174615369Y-109401153D01*
X175200000Y-109401935D01*
X175278414Y-109394212D01*
X175353814Y-109371340D01*
X175423303Y-109334197D01*
X175484211Y-109284211D01*
X175534197Y-109223303D01*
X175571340Y-109153814D01*
X175594212Y-109078414D01*
X175601935Y-109000000D01*
X175600000Y-106754000D01*
X175500000Y-106654000D01*
X175285668Y-106654000D01*
X175287752Y-106647481D01*
X175303310Y-106510474D01*
X175291839Y-106373063D01*
X175284068Y-106346000D01*
X175500000Y-106346000D01*
X175600000Y-106246000D01*
X175601935Y-104000000D01*
X175594212Y-103921586D01*
X175571340Y-103846186D01*
X175534197Y-103776697D01*
X175484211Y-103715789D01*
X175423303Y-103665803D01*
X175353814Y-103628660D01*
X175278414Y-103605788D01*
X175200000Y-103598065D01*
X174629308Y-103598829D01*
X174610474Y-103596690D01*
X174584131Y-103598889D01*
X173754000Y-103600000D01*
X173718916Y-103635084D01*
X173654002Y-103614333D01*
X173654002Y-103600000D01*
X173539623Y-103600000D01*
X173510474Y-103596690D01*
X173470824Y-103600000D01*
X173345998Y-103600000D01*
X173345998Y-103615933D01*
X173280688Y-103634688D01*
X173246000Y-103600000D01*
X172430007Y-103598908D01*
X172410474Y-103596690D01*
X172384631Y-103598847D01*
X171800000Y-103598065D01*
X171721586Y-103605788D01*
X171646186Y-103628660D01*
X171576697Y-103665803D01*
X171515789Y-103715789D01*
X171465803Y-103776697D01*
X171428660Y-103846186D01*
X171405788Y-103921586D01*
X171398065Y-104000000D01*
X168400000Y-104000000D01*
X168400004Y-100649995D01*
X169313600Y-100649995D01*
X170400000Y-101736396D01*
X170400000Y-101868944D01*
X170426901Y-102004182D01*
X170479668Y-102131574D01*
X170556274Y-102246224D01*
X170653776Y-102343726D01*
X170768426Y-102420332D01*
X170895818Y-102473099D01*
X171031056Y-102500000D01*
X171168944Y-102500000D01*
X171304182Y-102473099D01*
X171431574Y-102420332D01*
X171546224Y-102343726D01*
X171643726Y-102246224D01*
X171720332Y-102131574D01*
X171773099Y-102004182D01*
X171800000Y-101868944D01*
X171800000Y-101731056D01*
X171773099Y-101595818D01*
X171720332Y-101468426D01*
X171643726Y-101353776D01*
X171546224Y-101256274D01*
X171431574Y-101179668D01*
X171304182Y-101126901D01*
X171168944Y-101100000D01*
X171036396Y-101100000D01*
X169833824Y-99897429D01*
X169819732Y-99880258D01*
X169751211Y-99824024D01*
X169673036Y-99782238D01*
X169588210Y-99756506D01*
X169522100Y-99749995D01*
X169522089Y-99749995D01*
X169499995Y-99747819D01*
X169477901Y-99749995D01*
X168400004Y-99749995D01*
X168400009Y-93283468D01*
X168497848Y-93283468D01*
X168500025Y-93305572D01*
X168500024Y-97388591D01*
X168497848Y-97410685D01*
X168500024Y-97432779D01*
X168500024Y-97432789D01*
X168506535Y-97498899D01*
X168517189Y-97534020D01*
X168532267Y-97583725D01*
X168574053Y-97661901D01*
X168616196Y-97713252D01*
X168630287Y-97730422D01*
X168647457Y-97744513D01*
X168865676Y-97962732D01*
X168865676Y-98095281D01*
X168892577Y-98230519D01*
X168945344Y-98357911D01*
X169021950Y-98472561D01*
X169119452Y-98570063D01*
X169234102Y-98646669D01*
X169361494Y-98699436D01*
X169496732Y-98726337D01*
X169634620Y-98726337D01*
X169769858Y-98699436D01*
X169897250Y-98646669D01*
X170011900Y-98570063D01*
X170109402Y-98472561D01*
X170186008Y-98357911D01*
X170238775Y-98230519D01*
X170265676Y-98095281D01*
X170265676Y-98045301D01*
X170625484Y-98045301D01*
X170491806Y-98134622D01*
X170284622Y-98341806D01*
X170121839Y-98585428D01*
X170009712Y-98856127D01*
X169952550Y-99143499D01*
X169952550Y-99436501D01*
X170009712Y-99723873D01*
X170121839Y-99994572D01*
X170284622Y-100238194D01*
X170491806Y-100445378D01*
X170735428Y-100608161D01*
X171006127Y-100720288D01*
X171293499Y-100777450D01*
X171586501Y-100777450D01*
X171873873Y-100720288D01*
X172144572Y-100608161D01*
X172388194Y-100445378D01*
X172595378Y-100238194D01*
X172750001Y-100006785D01*
X172750000Y-100960050D01*
X172656274Y-101053776D01*
X172579668Y-101168426D01*
X172526901Y-101295818D01*
X172500000Y-101431056D01*
X172500000Y-101568944D01*
X172526901Y-101704182D01*
X172579668Y-101831574D01*
X172656274Y-101946224D01*
X172753776Y-102043726D01*
X172868426Y-102120332D01*
X172995818Y-102173099D01*
X173131056Y-102200000D01*
X173268944Y-102200000D01*
X173404182Y-102173099D01*
X173531574Y-102120332D01*
X173646224Y-102043726D01*
X173743726Y-101946224D01*
X173820332Y-101831574D01*
X173820546Y-101831056D01*
X175500000Y-101831056D01*
X175500000Y-101968944D01*
X175526901Y-102104182D01*
X175579668Y-102231574D01*
X175656274Y-102346224D01*
X175753776Y-102443726D01*
X175868426Y-102520332D01*
X175995818Y-102573099D01*
X176131056Y-102600000D01*
X176268944Y-102600000D01*
X176367268Y-102580442D01*
X176253776Y-102656274D01*
X176156274Y-102753776D01*
X176079668Y-102868426D01*
X176026901Y-102995818D01*
X176000000Y-103131056D01*
X176000000Y-103268944D01*
X176026901Y-103404182D01*
X176079668Y-103531574D01*
X176156274Y-103646224D01*
X176173493Y-103663443D01*
X176130743Y-103766649D01*
X176100000Y-103921207D01*
X176100000Y-104078793D01*
X176130743Y-104233351D01*
X176191049Y-104378942D01*
X176278599Y-104509970D01*
X176390030Y-104621401D01*
X176521058Y-104708951D01*
X176666649Y-104769257D01*
X176821207Y-104800000D01*
X176978793Y-104800000D01*
X177133351Y-104769257D01*
X177278942Y-104708951D01*
X177409970Y-104621401D01*
X177521401Y-104509970D01*
X177608951Y-104378942D01*
X177669257Y-104233351D01*
X177700000Y-104078793D01*
X177700000Y-103921207D01*
X177669257Y-103766649D01*
X177608951Y-103621058D01*
X177521401Y-103490030D01*
X177409970Y-103378599D01*
X177381916Y-103359854D01*
X177400000Y-103268944D01*
X177400000Y-103131056D01*
X177373099Y-102995818D01*
X177320332Y-102868426D01*
X177243726Y-102753776D01*
X177146224Y-102656274D01*
X177031574Y-102579668D01*
X176904182Y-102526901D01*
X176768944Y-102500000D01*
X176631056Y-102500000D01*
X176532732Y-102519558D01*
X176646224Y-102443726D01*
X176739950Y-102350000D01*
X178277906Y-102350000D01*
X178300000Y-102352176D01*
X178322094Y-102350000D01*
X178322105Y-102350000D01*
X178388215Y-102343489D01*
X178473041Y-102317757D01*
X178551216Y-102275971D01*
X178619737Y-102219737D01*
X178633829Y-102202566D01*
X179886396Y-100950000D01*
X180550000Y-100950000D01*
X180550000Y-102540052D01*
X180520332Y-102468426D01*
X180443726Y-102353776D01*
X180346224Y-102256274D01*
X180231574Y-102179668D01*
X180104182Y-102126901D01*
X179968944Y-102100000D01*
X179831056Y-102100000D01*
X179695818Y-102126901D01*
X179568426Y-102179668D01*
X179453776Y-102256274D01*
X179356274Y-102353776D01*
X179279668Y-102468426D01*
X179226901Y-102595818D01*
X179200000Y-102731056D01*
X179200000Y-102868944D01*
X179226901Y-103004182D01*
X179279668Y-103131574D01*
X179356274Y-103246224D01*
X179450000Y-103339950D01*
X179450001Y-108113603D01*
X177863605Y-109700000D01*
X177831056Y-109700000D01*
X177695818Y-109726901D01*
X177568426Y-109779668D01*
X177453776Y-109856274D01*
X177356274Y-109953776D01*
X177279668Y-110068426D01*
X177226901Y-110195818D01*
X177200000Y-110331056D01*
X177200000Y-110468944D01*
X177226901Y-110604182D01*
X177279668Y-110731574D01*
X177356274Y-110846224D01*
X177453776Y-110943726D01*
X177568426Y-111020332D01*
X177695818Y-111073099D01*
X177831056Y-111100000D01*
X177968944Y-111100000D01*
X178104182Y-111073099D01*
X178231574Y-111020332D01*
X178346224Y-110943726D01*
X178443726Y-110846224D01*
X178520332Y-110731574D01*
X178573099Y-110604182D01*
X178600000Y-110468944D01*
X178600000Y-110331056D01*
X178584295Y-110252101D01*
X180202572Y-108633824D01*
X180219737Y-108619737D01*
X180233824Y-108602572D01*
X180233828Y-108602568D01*
X180275971Y-108551217D01*
X180317757Y-108473041D01*
X180343489Y-108388215D01*
X180350000Y-108322105D01*
X180350000Y-108322095D01*
X180352176Y-108300001D01*
X180350000Y-108277906D01*
X180350000Y-103339950D01*
X180443726Y-103246224D01*
X180520332Y-103131574D01*
X180550000Y-103059948D01*
X180550001Y-107940049D01*
X180526901Y-107995818D01*
X180500000Y-108131056D01*
X180500000Y-108268944D01*
X180526901Y-108404182D01*
X180579668Y-108531574D01*
X180656274Y-108646224D01*
X180753776Y-108743726D01*
X180868426Y-108820332D01*
X180995818Y-108873099D01*
X181131056Y-108900000D01*
X181268944Y-108900000D01*
X181404182Y-108873099D01*
X181531574Y-108820332D01*
X181646224Y-108743726D01*
X181743726Y-108646224D01*
X181820332Y-108531574D01*
X181873099Y-108404182D01*
X181900000Y-108268944D01*
X181900000Y-108131056D01*
X181873099Y-107995818D01*
X181820332Y-107868426D01*
X181743726Y-107753776D01*
X181646224Y-107656274D01*
X181531574Y-107579668D01*
X181450000Y-107545879D01*
X181450000Y-100522105D01*
X181452177Y-100500000D01*
X181450000Y-100477895D01*
X181450000Y-98908022D01*
X181468423Y-98920332D01*
X181595815Y-98973099D01*
X181731053Y-99000000D01*
X181868941Y-99000000D01*
X182004179Y-98973099D01*
X182131571Y-98920332D01*
X182246221Y-98843726D01*
X182289947Y-98800000D01*
X183875440Y-98800000D01*
X183900000Y-98802419D01*
X183924560Y-98800000D01*
X183998017Y-98792765D01*
X184092267Y-98764175D01*
X184179129Y-98717746D01*
X184255264Y-98655264D01*
X184270929Y-98636176D01*
X186607106Y-96300000D01*
X195475440Y-96300000D01*
X195500000Y-96302419D01*
X195524560Y-96300000D01*
X195598017Y-96292765D01*
X195692267Y-96264175D01*
X195779129Y-96217746D01*
X195855264Y-96155264D01*
X195870928Y-96136177D01*
X195907105Y-96100000D01*
X195968944Y-96100000D01*
X196104182Y-96073099D01*
X196231574Y-96020332D01*
X196346224Y-95943726D01*
X196443726Y-95846224D01*
X196520332Y-95731574D01*
X196573099Y-95604182D01*
X196600000Y-95468944D01*
X196600000Y-95331056D01*
X196573099Y-95195818D01*
X196520332Y-95068426D01*
X196443726Y-94953776D01*
X196346224Y-94856274D01*
X196231574Y-94779668D01*
X196104182Y-94726901D01*
X195968944Y-94700000D01*
X195831056Y-94700000D01*
X195695818Y-94726901D01*
X195568426Y-94779668D01*
X195453776Y-94856274D01*
X195356274Y-94953776D01*
X195279668Y-95068426D01*
X195226901Y-95195818D01*
X195206178Y-95300000D01*
X186424560Y-95300000D01*
X186400000Y-95297581D01*
X186375440Y-95300000D01*
X186301983Y-95307235D01*
X186207733Y-95335825D01*
X186120871Y-95382254D01*
X186044736Y-95444736D01*
X186029075Y-95463819D01*
X183692895Y-97800000D01*
X182289947Y-97800000D01*
X182246221Y-97756274D01*
X182131571Y-97679668D01*
X182004179Y-97626901D01*
X181868941Y-97600000D01*
X181731053Y-97600000D01*
X181595815Y-97626901D01*
X181468423Y-97679668D01*
X181450000Y-97691978D01*
X181450000Y-95639950D01*
X181543726Y-95546224D01*
X181620332Y-95431574D01*
X181673099Y-95304182D01*
X181700000Y-95168944D01*
X181700000Y-95031056D01*
X181673099Y-94895818D01*
X181620332Y-94768426D01*
X181543726Y-94653776D01*
X181539950Y-94650000D01*
X191077906Y-94650000D01*
X191100000Y-94652176D01*
X191122094Y-94650000D01*
X191122105Y-94650000D01*
X191188215Y-94643489D01*
X191273041Y-94617757D01*
X191351216Y-94575971D01*
X191419737Y-94519737D01*
X191433829Y-94502566D01*
X192296285Y-93640111D01*
X192366649Y-93669257D01*
X192521207Y-93700000D01*
X192678793Y-93700000D01*
X192833351Y-93669257D01*
X192978942Y-93608951D01*
X193109970Y-93521401D01*
X193221401Y-93409970D01*
X193308951Y-93278942D01*
X193369257Y-93133351D01*
X193400000Y-92978793D01*
X193400000Y-92821207D01*
X193369257Y-92666649D01*
X193326125Y-92562521D01*
X194966176Y-94202572D01*
X194980263Y-94219737D01*
X194997428Y-94233824D01*
X194997432Y-94233828D01*
X195048783Y-94275971D01*
X195126959Y-94317757D01*
X195211785Y-94343489D01*
X195277895Y-94350000D01*
X195277906Y-94350000D01*
X195300000Y-94352176D01*
X195322094Y-94350000D01*
X197413605Y-94350000D01*
X198656176Y-95592572D01*
X198670263Y-95609737D01*
X198687428Y-95623824D01*
X198687432Y-95623828D01*
X198738783Y-95665971D01*
X198763402Y-95679130D01*
X198816959Y-95707757D01*
X198901785Y-95733489D01*
X198967895Y-95740000D01*
X198967905Y-95740000D01*
X198990000Y-95742176D01*
X199012094Y-95740000D01*
X199198549Y-95740000D01*
X199198549Y-96790000D01*
X199204341Y-96848810D01*
X199221496Y-96905360D01*
X199249353Y-96957477D01*
X199286842Y-97003158D01*
X199332523Y-97040647D01*
X199384640Y-97068504D01*
X199441190Y-97085659D01*
X199500000Y-97091451D01*
X200500000Y-97091451D01*
X200500000Y-97092893D01*
X199292895Y-98300000D01*
X194824560Y-98300000D01*
X194800000Y-98297581D01*
X194775440Y-98300000D01*
X194701983Y-98307235D01*
X194607733Y-98335825D01*
X194520871Y-98382254D01*
X194444736Y-98444736D01*
X194429080Y-98463813D01*
X180990555Y-111902340D01*
X180978793Y-111900000D01*
X180821207Y-111900000D01*
X180666649Y-111930743D01*
X180521058Y-111991049D01*
X180390030Y-112078599D01*
X180278599Y-112190030D01*
X180191049Y-112321058D01*
X180130743Y-112466649D01*
X180100000Y-112621207D01*
X180100000Y-112778793D01*
X180130743Y-112933351D01*
X180191049Y-113078942D01*
X180278599Y-113209970D01*
X180390030Y-113321401D01*
X180521058Y-113408951D01*
X180666649Y-113469257D01*
X180821207Y-113500000D01*
X180978793Y-113500000D01*
X181133351Y-113469257D01*
X181278942Y-113408951D01*
X181409970Y-113321401D01*
X181521401Y-113209970D01*
X181608951Y-113078942D01*
X181669257Y-112933351D01*
X181700000Y-112778793D01*
X181700000Y-112621207D01*
X181697660Y-112609445D01*
X182274389Y-112032716D01*
X199200000Y-112032716D01*
X199200000Y-112387284D01*
X199269173Y-112735041D01*
X199404861Y-113062620D01*
X199601849Y-113357433D01*
X199852567Y-113608151D01*
X200147380Y-113805139D01*
X200474959Y-113940827D01*
X200822716Y-114010000D01*
X201177284Y-114010000D01*
X201525041Y-113940827D01*
X201852620Y-113805139D01*
X202147433Y-113608151D01*
X202398151Y-113357433D01*
X202595139Y-113062620D01*
X202730827Y-112735041D01*
X202800000Y-112387284D01*
X202800000Y-112032716D01*
X202730827Y-111684959D01*
X202595139Y-111357380D01*
X202398151Y-111062567D01*
X202147433Y-110811849D01*
X201852620Y-110614861D01*
X201525041Y-110479173D01*
X201177284Y-110410000D01*
X200822716Y-110410000D01*
X200474959Y-110479173D01*
X200147380Y-110614861D01*
X199852567Y-110811849D01*
X199601849Y-111062567D01*
X199404861Y-111357380D01*
X199269173Y-111684959D01*
X199200000Y-112032716D01*
X182274389Y-112032716D01*
X190744240Y-103562866D01*
X199100000Y-103562866D01*
X199100000Y-103937134D01*
X199173016Y-104304209D01*
X199316242Y-104649987D01*
X199524174Y-104961179D01*
X199788821Y-105225826D01*
X200100013Y-105433758D01*
X200445791Y-105576984D01*
X200812866Y-105650000D01*
X201187134Y-105650000D01*
X201554209Y-105576984D01*
X201899987Y-105433758D01*
X202211179Y-105225826D01*
X202475826Y-104961179D01*
X202683758Y-104649987D01*
X202826984Y-104304209D01*
X202900000Y-103937134D01*
X202900000Y-103562866D01*
X202826984Y-103195791D01*
X202683758Y-102850013D01*
X202475826Y-102538821D01*
X202211179Y-102274174D01*
X201899987Y-102066242D01*
X201554209Y-101923016D01*
X201187134Y-101850000D01*
X200812866Y-101850000D01*
X200445791Y-101923016D01*
X200100013Y-102066242D01*
X199788821Y-102274174D01*
X199524174Y-102538821D01*
X199316242Y-102850013D01*
X199173016Y-103195791D01*
X199100000Y-103562866D01*
X190744240Y-103562866D01*
X195007107Y-99300000D01*
X199475440Y-99300000D01*
X199500000Y-99302419D01*
X199524560Y-99300000D01*
X199598017Y-99292765D01*
X199692267Y-99264175D01*
X199779129Y-99217746D01*
X199855264Y-99155264D01*
X199870929Y-99136176D01*
X201336187Y-97670920D01*
X201355264Y-97655264D01*
X201417746Y-97579129D01*
X201464175Y-97492267D01*
X201492765Y-97398017D01*
X201500000Y-97324560D01*
X201500000Y-97324551D01*
X201502418Y-97300001D01*
X201500000Y-97275451D01*
X201500000Y-97091451D01*
X202500000Y-97091451D01*
X202558810Y-97085659D01*
X202615360Y-97068504D01*
X202667477Y-97040647D01*
X202713158Y-97003158D01*
X202750647Y-96957477D01*
X202778504Y-96905360D01*
X202795659Y-96848810D01*
X202801451Y-96790000D01*
X202801451Y-93790000D01*
X202795659Y-93731190D01*
X202778504Y-93674640D01*
X202750647Y-93622523D01*
X202713158Y-93576842D01*
X202667477Y-93539353D01*
X202615360Y-93511496D01*
X202558810Y-93494341D01*
X202500000Y-93488549D01*
X199500000Y-93488549D01*
X199441190Y-93494341D01*
X199384640Y-93511496D01*
X199332523Y-93539353D01*
X199286842Y-93576842D01*
X199249353Y-93622523D01*
X199221496Y-93674640D01*
X199204341Y-93731190D01*
X199198549Y-93790000D01*
X199198549Y-94840000D01*
X199176396Y-94840000D01*
X197933827Y-93597432D01*
X197919737Y-93580263D01*
X197851216Y-93524029D01*
X197773041Y-93482243D01*
X197688215Y-93456511D01*
X197622105Y-93450000D01*
X197622094Y-93450000D01*
X197600000Y-93447824D01*
X197577906Y-93450000D01*
X195486396Y-93450000D01*
X193783828Y-91747433D01*
X193769736Y-91730262D01*
X193701215Y-91674028D01*
X193623040Y-91632242D01*
X193538214Y-91606510D01*
X193472104Y-91599999D01*
X193472093Y-91599999D01*
X193449999Y-91597823D01*
X193427905Y-91599999D01*
X192072095Y-91599999D01*
X192050001Y-91597823D01*
X192027907Y-91599999D01*
X192027896Y-91599999D01*
X191961786Y-91606510D01*
X191876960Y-91632242D01*
X191798785Y-91674028D01*
X191730264Y-91730262D01*
X191716172Y-91747433D01*
X191497438Y-91966167D01*
X191497432Y-91966172D01*
X191497428Y-91966176D01*
X191480263Y-91980263D01*
X191466176Y-91997428D01*
X190313605Y-93150000D01*
X180986395Y-93150000D01*
X180833829Y-92997434D01*
X180819737Y-92980263D01*
X180751216Y-92924029D01*
X180673041Y-92882243D01*
X180588215Y-92856511D01*
X180522105Y-92850000D01*
X180522094Y-92850000D01*
X180500000Y-92847824D01*
X180477906Y-92850000D01*
X179639950Y-92850000D01*
X179546224Y-92756274D01*
X179431574Y-92679668D01*
X179304182Y-92626901D01*
X179168944Y-92600000D01*
X179031056Y-92600000D01*
X178895818Y-92626901D01*
X178768426Y-92679668D01*
X178653776Y-92756274D01*
X178556274Y-92853776D01*
X178479668Y-92968426D01*
X178426901Y-93095818D01*
X178400000Y-93231056D01*
X178400000Y-93368944D01*
X178407645Y-93407376D01*
X178310378Y-93261806D01*
X178103194Y-93054622D01*
X177859572Y-92891839D01*
X177588873Y-92779712D01*
X177301501Y-92722550D01*
X177008499Y-92722550D01*
X176721127Y-92779712D01*
X176450428Y-92891839D01*
X176206806Y-93054622D01*
X175999622Y-93261806D01*
X175836839Y-93505428D01*
X175724712Y-93776127D01*
X175667550Y-94063499D01*
X175667550Y-94356501D01*
X175724712Y-94643873D01*
X175836839Y-94914572D01*
X175999622Y-95158194D01*
X176206806Y-95365378D01*
X176450428Y-95528161D01*
X176721127Y-95640288D01*
X177008499Y-95697450D01*
X177301501Y-95697450D01*
X177511542Y-95655670D01*
X178264700Y-95655670D01*
X178264700Y-95812330D01*
X178295263Y-95965980D01*
X178355214Y-96110716D01*
X178442250Y-96240974D01*
X178553026Y-96351750D01*
X178683284Y-96438786D01*
X178828020Y-96498737D01*
X178981670Y-96529300D01*
X179138330Y-96529300D01*
X179291980Y-96498737D01*
X179436716Y-96438786D01*
X179566974Y-96351750D01*
X179677750Y-96240974D01*
X179764786Y-96110716D01*
X179824737Y-95965980D01*
X179855300Y-95812330D01*
X179855300Y-95655670D01*
X179824737Y-95502020D01*
X179764786Y-95357284D01*
X179677750Y-95227026D01*
X179566974Y-95116250D01*
X179436716Y-95029214D01*
X179291980Y-94969263D01*
X179138330Y-94938700D01*
X178981670Y-94938700D01*
X178828020Y-94969263D01*
X178683284Y-95029214D01*
X178553026Y-95116250D01*
X178442250Y-95227026D01*
X178355214Y-95357284D01*
X178295263Y-95502020D01*
X178264700Y-95655670D01*
X177511542Y-95655670D01*
X177588873Y-95640288D01*
X177859572Y-95528161D01*
X178103194Y-95365378D01*
X178310378Y-95158194D01*
X178473161Y-94914572D01*
X178585288Y-94643873D01*
X178642450Y-94356501D01*
X178642450Y-94063499D01*
X178585288Y-93776127D01*
X178584659Y-93774609D01*
X178653776Y-93843726D01*
X178768426Y-93920332D01*
X178895818Y-93973099D01*
X179031056Y-94000000D01*
X179168944Y-94000000D01*
X179304182Y-93973099D01*
X179431574Y-93920332D01*
X179468345Y-93895763D01*
X179426901Y-93995818D01*
X179400000Y-94131056D01*
X179400000Y-94268944D01*
X179426901Y-94404182D01*
X179479668Y-94531574D01*
X179556274Y-94646224D01*
X179653776Y-94743726D01*
X179768426Y-94820332D01*
X179895818Y-94873099D01*
X180031056Y-94900000D01*
X180168944Y-94900000D01*
X180304182Y-94873099D01*
X180342966Y-94857034D01*
X180326901Y-94895818D01*
X180300000Y-95031056D01*
X180300000Y-95168944D01*
X180326901Y-95304182D01*
X180379668Y-95431574D01*
X180456274Y-95546224D01*
X180550000Y-95639950D01*
X180550001Y-100050000D01*
X179722094Y-100050000D01*
X179700000Y-100047824D01*
X179677905Y-100050000D01*
X179677895Y-100050000D01*
X179611785Y-100056511D01*
X179526959Y-100082243D01*
X179448783Y-100124029D01*
X179397432Y-100166172D01*
X179397428Y-100166176D01*
X179380263Y-100180263D01*
X179366176Y-100197428D01*
X178113605Y-101450000D01*
X176739950Y-101450000D01*
X176646224Y-101356274D01*
X176531574Y-101279668D01*
X176404182Y-101226901D01*
X176268944Y-101200000D01*
X176131056Y-101200000D01*
X175995818Y-101226901D01*
X175868426Y-101279668D01*
X175753776Y-101356274D01*
X175656274Y-101453776D01*
X175579668Y-101568426D01*
X175526901Y-101695818D01*
X175500000Y-101831056D01*
X173820546Y-101831056D01*
X173873099Y-101704182D01*
X173900000Y-101568944D01*
X173900000Y-101431056D01*
X173873099Y-101295818D01*
X173820332Y-101168426D01*
X173743726Y-101053776D01*
X173650000Y-100960050D01*
X173650000Y-99143499D01*
X175667550Y-99143499D01*
X175667550Y-99436501D01*
X175724712Y-99723873D01*
X175836839Y-99994572D01*
X175999622Y-100238194D01*
X176206806Y-100445378D01*
X176450428Y-100608161D01*
X176721127Y-100720288D01*
X177008499Y-100777450D01*
X177301501Y-100777450D01*
X177588873Y-100720288D01*
X177859572Y-100608161D01*
X178103194Y-100445378D01*
X178310378Y-100238194D01*
X178473161Y-99994572D01*
X178585288Y-99723873D01*
X178642450Y-99436501D01*
X178642450Y-99143499D01*
X178585288Y-98856127D01*
X178473161Y-98585428D01*
X178310378Y-98341806D01*
X178103194Y-98134622D01*
X177859572Y-97971839D01*
X177588873Y-97859712D01*
X177301501Y-97802550D01*
X177008499Y-97802550D01*
X176721127Y-97859712D01*
X176450428Y-97971839D01*
X176206806Y-98134622D01*
X175999622Y-98341806D01*
X175836839Y-98585428D01*
X175724712Y-98856127D01*
X175667550Y-99143499D01*
X173650000Y-99143499D01*
X173650000Y-98796666D01*
X173652176Y-98774571D01*
X173650000Y-98752477D01*
X173650000Y-98752467D01*
X173643489Y-98686357D01*
X173617757Y-98601531D01*
X173596253Y-98561300D01*
X173575971Y-98523355D01*
X173533828Y-98472004D01*
X173533824Y-98472000D01*
X173519737Y-98454835D01*
X173502572Y-98440748D01*
X172749494Y-97687670D01*
X178264700Y-97687670D01*
X178264700Y-97844330D01*
X178295263Y-97997980D01*
X178355214Y-98142716D01*
X178442250Y-98272974D01*
X178553026Y-98383750D01*
X178683284Y-98470786D01*
X178828020Y-98530737D01*
X178981670Y-98561300D01*
X179138330Y-98561300D01*
X179291980Y-98530737D01*
X179436716Y-98470786D01*
X179566974Y-98383750D01*
X179677750Y-98272974D01*
X179764786Y-98142716D01*
X179824737Y-97997980D01*
X179855300Y-97844330D01*
X179855300Y-97687670D01*
X179824737Y-97534020D01*
X179764786Y-97389284D01*
X179677750Y-97259026D01*
X179566974Y-97148250D01*
X179436716Y-97061214D01*
X179291980Y-97001263D01*
X179138330Y-96970700D01*
X178981670Y-96970700D01*
X178828020Y-97001263D01*
X178683284Y-97061214D01*
X178553026Y-97148250D01*
X178442250Y-97259026D01*
X178355214Y-97389284D01*
X178295263Y-97534020D01*
X178264700Y-97687670D01*
X172749494Y-97687670D01*
X172354556Y-97292733D01*
X172340466Y-97275564D01*
X172271945Y-97219330D01*
X172193770Y-97177544D01*
X172124803Y-97156623D01*
X172144786Y-97126716D01*
X172204737Y-96981980D01*
X172235300Y-96828330D01*
X172235300Y-96671670D01*
X172204737Y-96518020D01*
X172144786Y-96373284D01*
X172057750Y-96243026D01*
X171946974Y-96132250D01*
X171816716Y-96045214D01*
X171671980Y-95985263D01*
X171518330Y-95954700D01*
X171361670Y-95954700D01*
X171208020Y-95985263D01*
X171063284Y-96045214D01*
X170933026Y-96132250D01*
X170822250Y-96243026D01*
X170735214Y-96373284D01*
X170675263Y-96518020D01*
X170644700Y-96671670D01*
X170644700Y-96828330D01*
X170675263Y-96981980D01*
X170735214Y-97126716D01*
X170747632Y-97145301D01*
X170381697Y-97145301D01*
X169900034Y-96663639D01*
X169900034Y-93676973D01*
X170223046Y-93353961D01*
X170121839Y-93505428D01*
X170009712Y-93776127D01*
X169952550Y-94063499D01*
X169952550Y-94356501D01*
X170009712Y-94643873D01*
X170121839Y-94914572D01*
X170284622Y-95158194D01*
X170491806Y-95365378D01*
X170735428Y-95528161D01*
X171006127Y-95640288D01*
X171293499Y-95697450D01*
X171586501Y-95697450D01*
X171873873Y-95640288D01*
X172144572Y-95528161D01*
X172388194Y-95365378D01*
X172595378Y-95158194D01*
X172758161Y-94914572D01*
X172870288Y-94643873D01*
X172927450Y-94356501D01*
X172927450Y-94063499D01*
X172870288Y-93776127D01*
X172758161Y-93505428D01*
X172595378Y-93261806D01*
X172388194Y-93054622D01*
X172144572Y-92891839D01*
X171873873Y-92779712D01*
X171586501Y-92722550D01*
X171293499Y-92722550D01*
X171006127Y-92779712D01*
X170735428Y-92891839D01*
X170583962Y-92993046D01*
X172150000Y-91427007D01*
X172150000Y-91577905D01*
X172147824Y-91600000D01*
X172150000Y-91622094D01*
X172150000Y-91622104D01*
X172156511Y-91688214D01*
X172181095Y-91769257D01*
X172182243Y-91773040D01*
X172224029Y-91851216D01*
X172258722Y-91893489D01*
X172280263Y-91919737D01*
X172297434Y-91933829D01*
X173300000Y-92936396D01*
X173300000Y-93068944D01*
X173326901Y-93204182D01*
X173379668Y-93331574D01*
X173456274Y-93446224D01*
X173553776Y-93543726D01*
X173668426Y-93620332D01*
X173795818Y-93673099D01*
X173931056Y-93700000D01*
X174068944Y-93700000D01*
X174204182Y-93673099D01*
X174331574Y-93620332D01*
X174446224Y-93543726D01*
X174543726Y-93446224D01*
X174620332Y-93331574D01*
X174673099Y-93204182D01*
X174700000Y-93068944D01*
X174700000Y-92931056D01*
X174673099Y-92795818D01*
X174620332Y-92668426D01*
X174543726Y-92553776D01*
X174446224Y-92456274D01*
X174331574Y-92379668D01*
X174204182Y-92326901D01*
X174068944Y-92300000D01*
X173936396Y-92300000D01*
X173050000Y-91413605D01*
X173050000Y-91234127D01*
X173784088Y-90500040D01*
X176742285Y-90500040D01*
X177694847Y-91452603D01*
X177708934Y-91469768D01*
X177726099Y-91483855D01*
X177726103Y-91483859D01*
X177777454Y-91526002D01*
X177855630Y-91567788D01*
X177940456Y-91593520D01*
X178006566Y-91600031D01*
X178006576Y-91600031D01*
X178028670Y-91602207D01*
X178050764Y-91600031D01*
X180249235Y-91600031D01*
X180271329Y-91602207D01*
X180293423Y-91600031D01*
X180293434Y-91600031D01*
X180359544Y-91593520D01*
X180444370Y-91567788D01*
X180522545Y-91526002D01*
X180591066Y-91469768D01*
X180605158Y-91452597D01*
X182007726Y-90050030D01*
X187213635Y-90050030D01*
X188916177Y-91752573D01*
X188930264Y-91769738D01*
X188947429Y-91783825D01*
X188947433Y-91783829D01*
X188998784Y-91825972D01*
X189076960Y-91867758D01*
X189161786Y-91893490D01*
X189227896Y-91900001D01*
X189227906Y-91900001D01*
X189250000Y-91902177D01*
X189272095Y-91900001D01*
X190337907Y-91900001D01*
X190360001Y-91902177D01*
X190382095Y-91900001D01*
X190382106Y-91900001D01*
X190448216Y-91893490D01*
X190533042Y-91867758D01*
X190611217Y-91825972D01*
X190679738Y-91769738D01*
X190693829Y-91752568D01*
X191202573Y-91243825D01*
X191219737Y-91229739D01*
X191233824Y-91212574D01*
X191233828Y-91212570D01*
X191275971Y-91161219D01*
X191317757Y-91083043D01*
X191324196Y-91061816D01*
X191343489Y-90998217D01*
X191350000Y-90932107D01*
X191350000Y-90932097D01*
X191351072Y-90921207D01*
X194200000Y-90921207D01*
X194200000Y-91078793D01*
X194230743Y-91233351D01*
X194291049Y-91378942D01*
X194378599Y-91509970D01*
X194490030Y-91621401D01*
X194621058Y-91708951D01*
X194766649Y-91769257D01*
X194921207Y-91800000D01*
X195078793Y-91800000D01*
X195233351Y-91769257D01*
X195378942Y-91708951D01*
X195509970Y-91621401D01*
X195537827Y-91593544D01*
X199834245Y-91593544D01*
X200006050Y-91840055D01*
X200343156Y-92002644D01*
X200705504Y-92096343D01*
X201079171Y-92117551D01*
X201449794Y-92065452D01*
X201803132Y-91942050D01*
X201993950Y-91840055D01*
X202165755Y-91593544D01*
X201000000Y-90427789D01*
X199834245Y-91593544D01*
X195537827Y-91593544D01*
X195621401Y-91509970D01*
X195708951Y-91378942D01*
X195769257Y-91233351D01*
X195800000Y-91078793D01*
X195800000Y-90921207D01*
X195769257Y-90766649D01*
X195708951Y-90621058D01*
X195621401Y-90490030D01*
X195509970Y-90378599D01*
X195378942Y-90291049D01*
X195374409Y-90289171D01*
X199092449Y-90289171D01*
X199144548Y-90659794D01*
X199267950Y-91013132D01*
X199369945Y-91203950D01*
X199616456Y-91375755D01*
X200782211Y-90210000D01*
X201217789Y-90210000D01*
X202383544Y-91375755D01*
X202630055Y-91203950D01*
X202792644Y-90866844D01*
X202886343Y-90504496D01*
X202907551Y-90130829D01*
X202855452Y-89760206D01*
X202732050Y-89406868D01*
X202630055Y-89216050D01*
X202383544Y-89044245D01*
X201217789Y-90210000D01*
X200782211Y-90210000D01*
X199616456Y-89044245D01*
X199369945Y-89216050D01*
X199207356Y-89553156D01*
X199113657Y-89915504D01*
X199092449Y-90289171D01*
X195374409Y-90289171D01*
X195233351Y-90230743D01*
X195078793Y-90200000D01*
X194921207Y-90200000D01*
X194766649Y-90230743D01*
X194621058Y-90291049D01*
X194490030Y-90378599D01*
X194378599Y-90490030D01*
X194291049Y-90621058D01*
X194230743Y-90766649D01*
X194200000Y-90921207D01*
X191351072Y-90921207D01*
X191352176Y-90910002D01*
X191350000Y-90887908D01*
X191350000Y-90386395D01*
X191986396Y-89750000D01*
X195777906Y-89750000D01*
X195800000Y-89752176D01*
X195822094Y-89750000D01*
X195822105Y-89750000D01*
X195888215Y-89743489D01*
X195973041Y-89717757D01*
X196051216Y-89675971D01*
X196119737Y-89619737D01*
X196133829Y-89602566D01*
X196909939Y-88826456D01*
X199834245Y-88826456D01*
X201000000Y-89992211D01*
X202165755Y-88826456D01*
X201993950Y-88579945D01*
X201656844Y-88417356D01*
X201294496Y-88323657D01*
X200920829Y-88302449D01*
X200550206Y-88354548D01*
X200196868Y-88477950D01*
X200006050Y-88579945D01*
X199834245Y-88826456D01*
X196909939Y-88826456D01*
X197802573Y-87933823D01*
X197819737Y-87919737D01*
X197833824Y-87902572D01*
X197833828Y-87902568D01*
X197875971Y-87851217D01*
X197917757Y-87773041D01*
X197923150Y-87755263D01*
X197943489Y-87688215D01*
X197950000Y-87622105D01*
X197950000Y-87622095D01*
X197952176Y-87600001D01*
X197950000Y-87577906D01*
X197950000Y-86161472D01*
X198009970Y-86121401D01*
X198121401Y-86009970D01*
X198208951Y-85878942D01*
X198269257Y-85733351D01*
X198300000Y-85578793D01*
X198300000Y-85421207D01*
X198269257Y-85266649D01*
X198208951Y-85121058D01*
X198121401Y-84990030D01*
X198009970Y-84878599D01*
X197878942Y-84791049D01*
X197741031Y-84733924D01*
X195628313Y-82621207D01*
X197200000Y-82621207D01*
X197200000Y-82778793D01*
X197230743Y-82933351D01*
X197291049Y-83078942D01*
X197378599Y-83209970D01*
X197490030Y-83321401D01*
X197621058Y-83408951D01*
X197766649Y-83469257D01*
X197921207Y-83500000D01*
X198078793Y-83500000D01*
X198233351Y-83469257D01*
X198378942Y-83408951D01*
X198509970Y-83321401D01*
X198621401Y-83209970D01*
X198628063Y-83200000D01*
X199198549Y-83200000D01*
X199198549Y-84290000D01*
X199204341Y-84348810D01*
X199221496Y-84405360D01*
X199249353Y-84457477D01*
X199286842Y-84503158D01*
X199332523Y-84540647D01*
X199384640Y-84568504D01*
X199441190Y-84585659D01*
X199500000Y-84591451D01*
X202500000Y-84591451D01*
X202558810Y-84585659D01*
X202615360Y-84568504D01*
X202667477Y-84540647D01*
X202713158Y-84503158D01*
X202750647Y-84457477D01*
X202778504Y-84405360D01*
X202795659Y-84348810D01*
X202801451Y-84290000D01*
X202801451Y-81290000D01*
X202795659Y-81231190D01*
X202778504Y-81174640D01*
X202750647Y-81122523D01*
X202713158Y-81076842D01*
X202667477Y-81039353D01*
X202615360Y-81011496D01*
X202558810Y-80994341D01*
X202500000Y-80988549D01*
X199500000Y-80988549D01*
X199441190Y-80994341D01*
X199384640Y-81011496D01*
X199332523Y-81039353D01*
X199286842Y-81076842D01*
X199249353Y-81122523D01*
X199221496Y-81174640D01*
X199204341Y-81231190D01*
X199198549Y-81290000D01*
X199198549Y-82200000D01*
X198628063Y-82200000D01*
X198621401Y-82190030D01*
X198509970Y-82078599D01*
X198378942Y-81991049D01*
X198233351Y-81930743D01*
X198078793Y-81900000D01*
X197921207Y-81900000D01*
X197766649Y-81930743D01*
X197621058Y-81991049D01*
X197490030Y-82078599D01*
X197378599Y-82190030D01*
X197291049Y-82321058D01*
X197230743Y-82466649D01*
X197200000Y-82621207D01*
X195628313Y-82621207D01*
X195600000Y-82592895D01*
X195600000Y-81989950D01*
X195643726Y-81946224D01*
X195720332Y-81831574D01*
X195773099Y-81704182D01*
X195800000Y-81568944D01*
X195800000Y-81431056D01*
X195773099Y-81295818D01*
X195720332Y-81168426D01*
X195643726Y-81053776D01*
X195546224Y-80956274D01*
X195431574Y-80879668D01*
X195304182Y-80826901D01*
X195168944Y-80800000D01*
X195031056Y-80800000D01*
X194895818Y-80826901D01*
X194768426Y-80879668D01*
X194653776Y-80956274D01*
X194556274Y-81053776D01*
X194479668Y-81168426D01*
X194426901Y-81295818D01*
X194400000Y-81431056D01*
X194400000Y-81568944D01*
X194426901Y-81704182D01*
X194479668Y-81831574D01*
X194556274Y-81946224D01*
X194600001Y-81989951D01*
X194600000Y-82775440D01*
X194597581Y-82800000D01*
X194600000Y-82824559D01*
X194607235Y-82898016D01*
X194635825Y-82992266D01*
X194682254Y-83079129D01*
X194744736Y-83155264D01*
X194763824Y-83170929D01*
X196768468Y-85175574D01*
X196730743Y-85266649D01*
X196700000Y-85421207D01*
X196700000Y-85578793D01*
X196730743Y-85733351D01*
X196791049Y-85878942D01*
X196878599Y-86009970D01*
X196950744Y-86082115D01*
X196957235Y-86148016D01*
X196985825Y-86242266D01*
X197032254Y-86329129D01*
X197050001Y-86350754D01*
X197050000Y-87413604D01*
X196529598Y-87934006D01*
X196543489Y-87888215D01*
X196550000Y-87822105D01*
X196550000Y-87822095D01*
X196552176Y-87800000D01*
X196550000Y-87777906D01*
X196550000Y-87761472D01*
X196609970Y-87721401D01*
X196721401Y-87609970D01*
X196808951Y-87478942D01*
X196869257Y-87333351D01*
X196900000Y-87178793D01*
X196900000Y-87021207D01*
X196869257Y-86866649D01*
X196808951Y-86721058D01*
X196721401Y-86590030D01*
X196609970Y-86478599D01*
X196478942Y-86391049D01*
X196333351Y-86330743D01*
X196178793Y-86300000D01*
X196021207Y-86300000D01*
X195866649Y-86330743D01*
X195721058Y-86391049D01*
X195590030Y-86478599D01*
X195478599Y-86590030D01*
X195391049Y-86721058D01*
X195330743Y-86866649D01*
X195300000Y-87021207D01*
X195300000Y-87178793D01*
X195330743Y-87333351D01*
X195391049Y-87478942D01*
X195478599Y-87609970D01*
X195566117Y-87697488D01*
X195113595Y-88150010D01*
X181429201Y-88150010D01*
X181407109Y-88147834D01*
X181385017Y-88150010D01*
X181385005Y-88150010D01*
X181318895Y-88156521D01*
X181234069Y-88182253D01*
X181183124Y-88209484D01*
X181155893Y-88224039D01*
X181104542Y-88266182D01*
X181104538Y-88266186D01*
X181087373Y-88280273D01*
X181073286Y-88297438D01*
X179670714Y-89700011D01*
X178629287Y-89700011D01*
X177676729Y-88747454D01*
X177662637Y-88730283D01*
X177594116Y-88674049D01*
X177515941Y-88632263D01*
X177431115Y-88606531D01*
X177365005Y-88600020D01*
X177364994Y-88600020D01*
X177342900Y-88597844D01*
X177320806Y-88600020D01*
X173205566Y-88600020D01*
X173183472Y-88597844D01*
X173161378Y-88600020D01*
X173161367Y-88600020D01*
X173095257Y-88606531D01*
X173010431Y-88632263D01*
X172932255Y-88674049D01*
X172880904Y-88716192D01*
X172880900Y-88716196D01*
X172863735Y-88730283D01*
X172849648Y-88747448D01*
X168647453Y-92949644D01*
X168630288Y-92963731D01*
X168616201Y-92980896D01*
X168616196Y-92980901D01*
X168574053Y-93032252D01*
X168532267Y-93110428D01*
X168506536Y-93195253D01*
X168497848Y-93283468D01*
X168400009Y-93283468D01*
X168400010Y-93055637D01*
X172955649Y-88500000D01*
X177892895Y-88500000D01*
X178300000Y-88907106D01*
X178300000Y-88968944D01*
X178326901Y-89104182D01*
X178379668Y-89231574D01*
X178456274Y-89346224D01*
X178553776Y-89443726D01*
X178668426Y-89520332D01*
X178795818Y-89573099D01*
X178931056Y-89600000D01*
X179068944Y-89600000D01*
X179204182Y-89573099D01*
X179331574Y-89520332D01*
X179446224Y-89443726D01*
X179543726Y-89346224D01*
X179620332Y-89231574D01*
X179673099Y-89104182D01*
X179700000Y-88968944D01*
X179700000Y-88831056D01*
X179673099Y-88695818D01*
X179620332Y-88568426D01*
X179543726Y-88453776D01*
X179446224Y-88356274D01*
X179331574Y-88279668D01*
X179204182Y-88226901D01*
X179068944Y-88200000D01*
X179007106Y-88200000D01*
X178707105Y-87900000D01*
X188075440Y-87900000D01*
X188100000Y-87902419D01*
X188124560Y-87900000D01*
X188198017Y-87892765D01*
X188292267Y-87864175D01*
X188379129Y-87817746D01*
X188455264Y-87755264D01*
X188470929Y-87736176D01*
X188707105Y-87500000D01*
X188768944Y-87500000D01*
X188904182Y-87473099D01*
X189031574Y-87420332D01*
X189146224Y-87343726D01*
X189243726Y-87246224D01*
X189320332Y-87131574D01*
X189373099Y-87004182D01*
X189400000Y-86868944D01*
X189400000Y-86731056D01*
X189373099Y-86595818D01*
X189320332Y-86468426D01*
X189243726Y-86353776D01*
X189146224Y-86256274D01*
X189031574Y-86179668D01*
X188904182Y-86126901D01*
X188768944Y-86100000D01*
X188631056Y-86100000D01*
X188495818Y-86126901D01*
X188368426Y-86179668D01*
X188253776Y-86256274D01*
X188156274Y-86353776D01*
X188079668Y-86468426D01*
X188026901Y-86595818D01*
X188000000Y-86731056D01*
X188000000Y-86792895D01*
X187892895Y-86900000D01*
X186007105Y-86900000D01*
X186970919Y-85936187D01*
X186970923Y-85936182D01*
X188307107Y-84600000D01*
X190992895Y-84600000D01*
X192700000Y-86307106D01*
X192700001Y-86710049D01*
X192656274Y-86753776D01*
X192579668Y-86868426D01*
X192526901Y-86995818D01*
X192500000Y-87131056D01*
X192500000Y-87268944D01*
X192526901Y-87404182D01*
X192579668Y-87531574D01*
X192656274Y-87646224D01*
X192753776Y-87743726D01*
X192868426Y-87820332D01*
X192995818Y-87873099D01*
X193131056Y-87900000D01*
X193268944Y-87900000D01*
X193404182Y-87873099D01*
X193531574Y-87820332D01*
X193646224Y-87743726D01*
X193743726Y-87646224D01*
X193820332Y-87531574D01*
X193873099Y-87404182D01*
X193900000Y-87268944D01*
X193900000Y-87131056D01*
X193873099Y-86995818D01*
X193820332Y-86868426D01*
X193743726Y-86753776D01*
X193700000Y-86710050D01*
X193700000Y-86124557D01*
X193702419Y-86099999D01*
X193694317Y-86017745D01*
X193692765Y-86001983D01*
X193664175Y-85907733D01*
X193617746Y-85820871D01*
X193555264Y-85744736D01*
X193536181Y-85729075D01*
X191570929Y-83763824D01*
X191555264Y-83744736D01*
X191479129Y-83682254D01*
X191392267Y-83635825D01*
X191298017Y-83607235D01*
X191224560Y-83600000D01*
X191200000Y-83597581D01*
X191175440Y-83600000D01*
X188124549Y-83600000D01*
X188099999Y-83597582D01*
X188075449Y-83600000D01*
X188075440Y-83600000D01*
X188001983Y-83607235D01*
X187907733Y-83635825D01*
X187820871Y-83682254D01*
X187744736Y-83744736D01*
X187729080Y-83763813D01*
X186263818Y-85229077D01*
X186263813Y-85229081D01*
X185292895Y-86200000D01*
X180124557Y-86200000D01*
X180099999Y-86197581D01*
X180075442Y-86200000D01*
X180075440Y-86200000D01*
X180001983Y-86207235D01*
X179907733Y-86235825D01*
X179820871Y-86282254D01*
X179799246Y-86300001D01*
X179000754Y-86300001D01*
X178979129Y-86282254D01*
X178892267Y-86235825D01*
X178798017Y-86207235D01*
X178724560Y-86200000D01*
X172224549Y-86200000D01*
X172199999Y-86197582D01*
X172175449Y-86200000D01*
X172175440Y-86200000D01*
X172101983Y-86207235D01*
X172007733Y-86235825D01*
X171920871Y-86282254D01*
X171844736Y-86344736D01*
X171829080Y-86363813D01*
X166163819Y-92029076D01*
X166144737Y-92044736D01*
X166082255Y-92120871D01*
X166074262Y-92135825D01*
X166035826Y-92207733D01*
X166007235Y-92301983D01*
X165997581Y-92400000D01*
X166000001Y-92424570D01*
X166000000Y-98192893D01*
X165292895Y-98900000D01*
X161524560Y-98900000D01*
X161500000Y-98897581D01*
X161475440Y-98900000D01*
X161401983Y-98907235D01*
X161307733Y-98935825D01*
X161220871Y-98982254D01*
X161144736Y-99044736D01*
X161129079Y-99063814D01*
X160663819Y-99529076D01*
X160644737Y-99544736D01*
X160582255Y-99620871D01*
X160551116Y-99679128D01*
X160535826Y-99707733D01*
X160507235Y-99801983D01*
X160497581Y-99900000D01*
X160500001Y-99924570D01*
X160500000Y-101192894D01*
X160392894Y-101300000D01*
X160331056Y-101300000D01*
X160195818Y-101326901D01*
X160068426Y-101379668D01*
X159953776Y-101456274D01*
X159856274Y-101553776D01*
X159779668Y-101668426D01*
X159726901Y-101795818D01*
X159700000Y-101931056D01*
X158528562Y-101931056D01*
X159218523Y-101241096D01*
X159230921Y-101230921D01*
X159271535Y-101181434D01*
X159301713Y-101124974D01*
X159320297Y-101063711D01*
X159325000Y-101015961D01*
X159325000Y-101015954D01*
X159326571Y-101000001D01*
X159325000Y-100984048D01*
X159325000Y-83667138D01*
X174450651Y-83667138D01*
X174500786Y-83811471D01*
X174666766Y-83873762D01*
X174841710Y-83902475D01*
X175018894Y-83896505D01*
X175191509Y-83856084D01*
X175299214Y-83811471D01*
X175349349Y-83667138D01*
X174900000Y-83217789D01*
X174450651Y-83667138D01*
X159325000Y-83667138D01*
X159325000Y-82941710D01*
X173997525Y-82941710D01*
X174003495Y-83118894D01*
X174043916Y-83291509D01*
X174088529Y-83399214D01*
X174232862Y-83449349D01*
X174682211Y-83000000D01*
X175117789Y-83000000D01*
X175567138Y-83449349D01*
X175711471Y-83399214D01*
X175773762Y-83233234D01*
X175802475Y-83058290D01*
X175796505Y-82881106D01*
X175756084Y-82708491D01*
X175711471Y-82600786D01*
X175567138Y-82550651D01*
X175117789Y-83000000D01*
X174682211Y-83000000D01*
X174232862Y-82550651D01*
X174088529Y-82600786D01*
X174026238Y-82766766D01*
X173997525Y-82941710D01*
X159325000Y-82941710D01*
X159325000Y-82332862D01*
X174450651Y-82332862D01*
X174900000Y-82782211D01*
X175349349Y-82332862D01*
X175299214Y-82188529D01*
X175133234Y-82126238D01*
X174958290Y-82097525D01*
X174781106Y-82103495D01*
X174608491Y-82143916D01*
X174500786Y-82188529D01*
X174450651Y-82332862D01*
X159325000Y-82332862D01*
X159325000Y-78562866D01*
X160850000Y-78562866D01*
X160850000Y-78937134D01*
X160923016Y-79304209D01*
X161066242Y-79649987D01*
X161274174Y-79961179D01*
X161538821Y-80225826D01*
X161850013Y-80433758D01*
X162195791Y-80576984D01*
X162562866Y-80650000D01*
X162937134Y-80650000D01*
X163304209Y-80576984D01*
X163649987Y-80433758D01*
X163961179Y-80225826D01*
X164225826Y-79961179D01*
X164433758Y-79649987D01*
X164576984Y-79304209D01*
X164650000Y-78937134D01*
X164650000Y-78562866D01*
X164576984Y-78195791D01*
X164516596Y-78050000D01*
X166458549Y-78050000D01*
X166458549Y-79450000D01*
X166464341Y-79508810D01*
X166481496Y-79565360D01*
X166509353Y-79617477D01*
X166546842Y-79663158D01*
X166592523Y-79700647D01*
X166644640Y-79728504D01*
X166701190Y-79745659D01*
X166760000Y-79751451D01*
X168160000Y-79751451D01*
X168218810Y-79745659D01*
X168275360Y-79728504D01*
X168327477Y-79700647D01*
X168373158Y-79663158D01*
X168410647Y-79617477D01*
X168438504Y-79565360D01*
X168439712Y-79561375D01*
X171946414Y-79561375D01*
X172021234Y-79726021D01*
X172221615Y-79808473D01*
X172434230Y-79850249D01*
X172650910Y-79849743D01*
X172863328Y-79806974D01*
X173058766Y-79726021D01*
X173133586Y-79561375D01*
X172540000Y-78967789D01*
X171946414Y-79561375D01*
X168439712Y-79561375D01*
X168455659Y-79508810D01*
X168461451Y-79450000D01*
X168461451Y-78644230D01*
X171439751Y-78644230D01*
X171440257Y-78860910D01*
X171483026Y-79073328D01*
X171563979Y-79268766D01*
X171728625Y-79343586D01*
X172322211Y-78750000D01*
X172757789Y-78750000D01*
X173351375Y-79343586D01*
X173516021Y-79268766D01*
X173598473Y-79068385D01*
X173640249Y-78855770D01*
X173639743Y-78639090D01*
X173596974Y-78426672D01*
X173516021Y-78231234D01*
X173351375Y-78156414D01*
X172757789Y-78750000D01*
X172322211Y-78750000D01*
X171728625Y-78156414D01*
X171563979Y-78231234D01*
X171481527Y-78431615D01*
X171439751Y-78644230D01*
X168461451Y-78644230D01*
X168461451Y-78050000D01*
X168455659Y-77991190D01*
X168439713Y-77938625D01*
X171946414Y-77938625D01*
X172540000Y-78532211D01*
X173022211Y-78050000D01*
X173958549Y-78050000D01*
X173958549Y-79450000D01*
X173964341Y-79508810D01*
X173981496Y-79565360D01*
X174009353Y-79617477D01*
X174046842Y-79663158D01*
X174092523Y-79700647D01*
X174144640Y-79728504D01*
X174201190Y-79745659D01*
X174260000Y-79751451D01*
X175660000Y-79751451D01*
X175718810Y-79745659D01*
X175775360Y-79728504D01*
X175827477Y-79700647D01*
X175873158Y-79663158D01*
X175910647Y-79617477D01*
X175938504Y-79565360D01*
X175939712Y-79561375D01*
X179446414Y-79561375D01*
X179521234Y-79726021D01*
X179721615Y-79808473D01*
X179934230Y-79850249D01*
X180150910Y-79849743D01*
X180363328Y-79806974D01*
X180558766Y-79726021D01*
X180633586Y-79561375D01*
X180040000Y-78967789D01*
X179446414Y-79561375D01*
X175939712Y-79561375D01*
X175955659Y-79508810D01*
X175961451Y-79450000D01*
X175961451Y-78644230D01*
X178939751Y-78644230D01*
X178940257Y-78860910D01*
X178983026Y-79073328D01*
X179063979Y-79268766D01*
X179228625Y-79343586D01*
X179822211Y-78750000D01*
X180257789Y-78750000D01*
X180851375Y-79343586D01*
X181016021Y-79268766D01*
X181098473Y-79068385D01*
X181140249Y-78855770D01*
X181139743Y-78639090D01*
X181096974Y-78426672D01*
X181016021Y-78231234D01*
X180851375Y-78156414D01*
X180257789Y-78750000D01*
X179822211Y-78750000D01*
X179228625Y-78156414D01*
X179063979Y-78231234D01*
X178981527Y-78431615D01*
X178939751Y-78644230D01*
X175961451Y-78644230D01*
X175961451Y-78050000D01*
X175955659Y-77991190D01*
X175939713Y-77938625D01*
X179446414Y-77938625D01*
X180040000Y-78532211D01*
X180522211Y-78050000D01*
X181458549Y-78050000D01*
X181458549Y-79450000D01*
X181464341Y-79508810D01*
X181481496Y-79565360D01*
X181509353Y-79617477D01*
X181546842Y-79663158D01*
X181592523Y-79700647D01*
X181644640Y-79728504D01*
X181701190Y-79745659D01*
X181760000Y-79751451D01*
X183160000Y-79751451D01*
X183218810Y-79745659D01*
X183275360Y-79728504D01*
X183327477Y-79700647D01*
X183373158Y-79663158D01*
X183410647Y-79617477D01*
X183438504Y-79565360D01*
X183439712Y-79561375D01*
X186946414Y-79561375D01*
X187021234Y-79726021D01*
X187221615Y-79808473D01*
X187434230Y-79850249D01*
X187650910Y-79849743D01*
X187863328Y-79806974D01*
X188058766Y-79726021D01*
X188133586Y-79561375D01*
X187540000Y-78967789D01*
X186946414Y-79561375D01*
X183439712Y-79561375D01*
X183455659Y-79508810D01*
X183461451Y-79450000D01*
X183461451Y-79200000D01*
X183671937Y-79200000D01*
X183678599Y-79209970D01*
X183790030Y-79321401D01*
X183921058Y-79408951D01*
X184066649Y-79469257D01*
X184221207Y-79500000D01*
X184378793Y-79500000D01*
X184533351Y-79469257D01*
X184678942Y-79408951D01*
X184809970Y-79321401D01*
X184921401Y-79209970D01*
X185008951Y-79078942D01*
X185069257Y-78933351D01*
X185100000Y-78778793D01*
X185100000Y-78644230D01*
X186439751Y-78644230D01*
X186440257Y-78860910D01*
X186483026Y-79073328D01*
X186563979Y-79268766D01*
X186728625Y-79343586D01*
X187322211Y-78750000D01*
X187757789Y-78750000D01*
X188351375Y-79343586D01*
X188516021Y-79268766D01*
X188598473Y-79068385D01*
X188640249Y-78855770D01*
X188639743Y-78639090D01*
X188596974Y-78426672D01*
X188516021Y-78231234D01*
X188351375Y-78156414D01*
X187757789Y-78750000D01*
X187322211Y-78750000D01*
X186728625Y-78156414D01*
X186563979Y-78231234D01*
X186481527Y-78431615D01*
X186439751Y-78644230D01*
X185100000Y-78644230D01*
X185100000Y-78621207D01*
X185069257Y-78466649D01*
X185008951Y-78321058D01*
X184921401Y-78190030D01*
X184809970Y-78078599D01*
X184678942Y-77991049D01*
X184552380Y-77938625D01*
X186946414Y-77938625D01*
X187540000Y-78532211D01*
X188022211Y-78050000D01*
X188958549Y-78050000D01*
X188958549Y-79450000D01*
X188964341Y-79508810D01*
X188981496Y-79565360D01*
X189009353Y-79617477D01*
X189046842Y-79663158D01*
X189092523Y-79700647D01*
X189144640Y-79728504D01*
X189201190Y-79745659D01*
X189260000Y-79751451D01*
X190660000Y-79751451D01*
X190718810Y-79745659D01*
X190775360Y-79728504D01*
X190827477Y-79700647D01*
X190873158Y-79663158D01*
X190910647Y-79617477D01*
X190938504Y-79565360D01*
X190939712Y-79561375D01*
X194446414Y-79561375D01*
X194521234Y-79726021D01*
X194721615Y-79808473D01*
X194934230Y-79850249D01*
X195150910Y-79849743D01*
X195363328Y-79806974D01*
X195558766Y-79726021D01*
X195633586Y-79561375D01*
X195040000Y-78967789D01*
X194446414Y-79561375D01*
X190939712Y-79561375D01*
X190955659Y-79508810D01*
X190961451Y-79450000D01*
X190961451Y-78644230D01*
X193939751Y-78644230D01*
X193940257Y-78860910D01*
X193983026Y-79073328D01*
X194063979Y-79268766D01*
X194228625Y-79343586D01*
X194822211Y-78750000D01*
X195257789Y-78750000D01*
X195851375Y-79343586D01*
X196016021Y-79268766D01*
X196088120Y-79093544D01*
X199834245Y-79093544D01*
X200006050Y-79340055D01*
X200343156Y-79502644D01*
X200705504Y-79596343D01*
X201079171Y-79617551D01*
X201449794Y-79565452D01*
X201803132Y-79442050D01*
X201993950Y-79340055D01*
X202165755Y-79093544D01*
X201000000Y-77927789D01*
X199834245Y-79093544D01*
X196088120Y-79093544D01*
X196098473Y-79068385D01*
X196140249Y-78855770D01*
X196139743Y-78639090D01*
X196096974Y-78426672D01*
X196016021Y-78231234D01*
X195851375Y-78156414D01*
X195257789Y-78750000D01*
X194822211Y-78750000D01*
X194228625Y-78156414D01*
X194063979Y-78231234D01*
X193981527Y-78431615D01*
X193939751Y-78644230D01*
X190961451Y-78644230D01*
X190961451Y-78050000D01*
X190955659Y-77991190D01*
X190939713Y-77938625D01*
X194446414Y-77938625D01*
X195040000Y-78532211D01*
X195633586Y-77938625D01*
X195565670Y-77789171D01*
X199092449Y-77789171D01*
X199144548Y-78159794D01*
X199267950Y-78513132D01*
X199369945Y-78703950D01*
X199616456Y-78875755D01*
X200782211Y-77710000D01*
X201217789Y-77710000D01*
X202383544Y-78875755D01*
X202630055Y-78703950D01*
X202792644Y-78366844D01*
X202886343Y-78004496D01*
X202907551Y-77630829D01*
X202855452Y-77260206D01*
X202732050Y-76906868D01*
X202630055Y-76716050D01*
X202383544Y-76544245D01*
X201217789Y-77710000D01*
X200782211Y-77710000D01*
X199616456Y-76544245D01*
X199369945Y-76716050D01*
X199207356Y-77053156D01*
X199113657Y-77415504D01*
X199092449Y-77789171D01*
X195565670Y-77789171D01*
X195558766Y-77773979D01*
X195358385Y-77691527D01*
X195145770Y-77649751D01*
X194929090Y-77650257D01*
X194716672Y-77693026D01*
X194521234Y-77773979D01*
X194446414Y-77938625D01*
X190939713Y-77938625D01*
X190938504Y-77934640D01*
X190910647Y-77882523D01*
X190873158Y-77836842D01*
X190827477Y-77799353D01*
X190775360Y-77771496D01*
X190718810Y-77754341D01*
X190660000Y-77748549D01*
X189260000Y-77748549D01*
X189201190Y-77754341D01*
X189144640Y-77771496D01*
X189092523Y-77799353D01*
X189046842Y-77836842D01*
X189009353Y-77882523D01*
X188981496Y-77934640D01*
X188964341Y-77991190D01*
X188958549Y-78050000D01*
X188022211Y-78050000D01*
X188133586Y-77938625D01*
X188058766Y-77773979D01*
X187858385Y-77691527D01*
X187645770Y-77649751D01*
X187429090Y-77650257D01*
X187216672Y-77693026D01*
X187021234Y-77773979D01*
X186946414Y-77938625D01*
X184552380Y-77938625D01*
X184533351Y-77930743D01*
X184378793Y-77900000D01*
X184221207Y-77900000D01*
X184066649Y-77930743D01*
X183921058Y-77991049D01*
X183790030Y-78078599D01*
X183678599Y-78190030D01*
X183671937Y-78200000D01*
X183461451Y-78200000D01*
X183461451Y-78050000D01*
X183455659Y-77991190D01*
X183438504Y-77934640D01*
X183410647Y-77882523D01*
X183373158Y-77836842D01*
X183327477Y-77799353D01*
X183275360Y-77771496D01*
X183218810Y-77754341D01*
X183160000Y-77748549D01*
X181760000Y-77748549D01*
X181701190Y-77754341D01*
X181644640Y-77771496D01*
X181592523Y-77799353D01*
X181546842Y-77836842D01*
X181509353Y-77882523D01*
X181481496Y-77934640D01*
X181464341Y-77991190D01*
X181458549Y-78050000D01*
X180522211Y-78050000D01*
X180633586Y-77938625D01*
X180558766Y-77773979D01*
X180358385Y-77691527D01*
X180145770Y-77649751D01*
X179929090Y-77650257D01*
X179716672Y-77693026D01*
X179521234Y-77773979D01*
X179446414Y-77938625D01*
X175939713Y-77938625D01*
X175938504Y-77934640D01*
X175910647Y-77882523D01*
X175873158Y-77836842D01*
X175827477Y-77799353D01*
X175775360Y-77771496D01*
X175718810Y-77754341D01*
X175660000Y-77748549D01*
X174260000Y-77748549D01*
X174201190Y-77754341D01*
X174144640Y-77771496D01*
X174092523Y-77799353D01*
X174046842Y-77836842D01*
X174009353Y-77882523D01*
X173981496Y-77934640D01*
X173964341Y-77991190D01*
X173958549Y-78050000D01*
X173022211Y-78050000D01*
X173133586Y-77938625D01*
X173058766Y-77773979D01*
X172858385Y-77691527D01*
X172645770Y-77649751D01*
X172429090Y-77650257D01*
X172216672Y-77693026D01*
X172021234Y-77773979D01*
X171946414Y-77938625D01*
X168439713Y-77938625D01*
X168438504Y-77934640D01*
X168410647Y-77882523D01*
X168373158Y-77836842D01*
X168327477Y-77799353D01*
X168275360Y-77771496D01*
X168218810Y-77754341D01*
X168160000Y-77748549D01*
X166760000Y-77748549D01*
X166701190Y-77754341D01*
X166644640Y-77771496D01*
X166592523Y-77799353D01*
X166546842Y-77836842D01*
X166509353Y-77882523D01*
X166481496Y-77934640D01*
X166464341Y-77991190D01*
X166458549Y-78050000D01*
X164516596Y-78050000D01*
X164433758Y-77850013D01*
X164225826Y-77538821D01*
X163961179Y-77274174D01*
X163649987Y-77066242D01*
X163304209Y-76923016D01*
X162937134Y-76850000D01*
X162562866Y-76850000D01*
X162195791Y-76923016D01*
X161850013Y-77066242D01*
X161538821Y-77274174D01*
X161274174Y-77538821D01*
X161066242Y-77850013D01*
X160923016Y-78195791D01*
X160850000Y-78562866D01*
X159325000Y-78562866D01*
X159325000Y-77134618D01*
X160348109Y-76111509D01*
X169000000Y-76111509D01*
X169000000Y-76308491D01*
X169038429Y-76501689D01*
X169113811Y-76683678D01*
X169223249Y-76847463D01*
X169362537Y-76986751D01*
X169526322Y-77096189D01*
X169708311Y-77171571D01*
X169901509Y-77210000D01*
X170098491Y-77210000D01*
X170291689Y-77171571D01*
X170473678Y-77096189D01*
X170637463Y-76986751D01*
X170776751Y-76847463D01*
X170875283Y-76700000D01*
X171071937Y-76700000D01*
X171078599Y-76709970D01*
X171190030Y-76821401D01*
X171321058Y-76908951D01*
X171466649Y-76969257D01*
X171621207Y-77000000D01*
X171778793Y-77000000D01*
X171933351Y-76969257D01*
X172078942Y-76908951D01*
X172209970Y-76821401D01*
X172321401Y-76709970D01*
X172408951Y-76578942D01*
X172469257Y-76433351D01*
X172500000Y-76278793D01*
X172500000Y-76121207D01*
X172498071Y-76111509D01*
X176500000Y-76111509D01*
X176500000Y-76308491D01*
X176538429Y-76501689D01*
X176613811Y-76683678D01*
X176723249Y-76847463D01*
X176862537Y-76986751D01*
X177026322Y-77096189D01*
X177208311Y-77171571D01*
X177401509Y-77210000D01*
X177598491Y-77210000D01*
X177791689Y-77171571D01*
X177973678Y-77096189D01*
X178137463Y-76986751D01*
X178276751Y-76847463D01*
X178368601Y-76710000D01*
X178678629Y-76710000D01*
X178790030Y-76821401D01*
X178921058Y-76908951D01*
X179066649Y-76969257D01*
X179221207Y-77000000D01*
X179378793Y-77000000D01*
X179533351Y-76969257D01*
X179678942Y-76908951D01*
X179809970Y-76821401D01*
X179921401Y-76709970D01*
X180008951Y-76578942D01*
X180069257Y-76433351D01*
X180100000Y-76278793D01*
X180100000Y-76121207D01*
X180098071Y-76111509D01*
X184000000Y-76111509D01*
X184000000Y-76308491D01*
X184038429Y-76501689D01*
X184113811Y-76683678D01*
X184223249Y-76847463D01*
X184362537Y-76986751D01*
X184526322Y-77096189D01*
X184708311Y-77171571D01*
X184901509Y-77210000D01*
X185098491Y-77210000D01*
X185291689Y-77171571D01*
X185473678Y-77096189D01*
X185637463Y-76986751D01*
X185776751Y-76847463D01*
X185808465Y-76800000D01*
X186171937Y-76800000D01*
X186178599Y-76809970D01*
X186290030Y-76921401D01*
X186421058Y-77008951D01*
X186566649Y-77069257D01*
X186721207Y-77100000D01*
X186878793Y-77100000D01*
X187033351Y-77069257D01*
X187178942Y-77008951D01*
X187309970Y-76921401D01*
X187421401Y-76809970D01*
X187508951Y-76678942D01*
X187569257Y-76533351D01*
X187600000Y-76378793D01*
X187600000Y-76221207D01*
X187578181Y-76111509D01*
X191500000Y-76111509D01*
X191500000Y-76308491D01*
X191538429Y-76501689D01*
X191613811Y-76683678D01*
X191723249Y-76847463D01*
X191862537Y-76986751D01*
X192026322Y-77096189D01*
X192208311Y-77171571D01*
X192401509Y-77210000D01*
X192598491Y-77210000D01*
X192791689Y-77171571D01*
X192973678Y-77096189D01*
X193137463Y-76986751D01*
X193276751Y-76847463D01*
X193368601Y-76710000D01*
X193578629Y-76710000D01*
X193690030Y-76821401D01*
X193821058Y-76908951D01*
X193966649Y-76969257D01*
X194121207Y-77000000D01*
X194278793Y-77000000D01*
X194433351Y-76969257D01*
X194578942Y-76908951D01*
X194709970Y-76821401D01*
X194821401Y-76709970D01*
X194908951Y-76578942D01*
X194969257Y-76433351D01*
X194990519Y-76326456D01*
X199834245Y-76326456D01*
X201000000Y-77492211D01*
X202165755Y-76326456D01*
X201993950Y-76079945D01*
X201656844Y-75917356D01*
X201294496Y-75823657D01*
X200920829Y-75802449D01*
X200550206Y-75854548D01*
X200196868Y-75977950D01*
X200006050Y-76079945D01*
X199834245Y-76326456D01*
X194990519Y-76326456D01*
X195000000Y-76278793D01*
X195000000Y-76121207D01*
X194969257Y-75966649D01*
X194908951Y-75821058D01*
X194821401Y-75690030D01*
X194709970Y-75578599D01*
X194578942Y-75491049D01*
X194433351Y-75430743D01*
X194278793Y-75400000D01*
X194121207Y-75400000D01*
X193966649Y-75430743D01*
X193821058Y-75491049D01*
X193690030Y-75578599D01*
X193578599Y-75690030D01*
X193565255Y-75710000D01*
X193368601Y-75710000D01*
X193276751Y-75572537D01*
X193137463Y-75433249D01*
X192973678Y-75323811D01*
X192791689Y-75248429D01*
X192598491Y-75210000D01*
X192401509Y-75210000D01*
X192208311Y-75248429D01*
X192026322Y-75323811D01*
X191862537Y-75433249D01*
X191723249Y-75572537D01*
X191613811Y-75736322D01*
X191538429Y-75918311D01*
X191500000Y-76111509D01*
X187578181Y-76111509D01*
X187569257Y-76066649D01*
X187508951Y-75921058D01*
X187421401Y-75790030D01*
X187309970Y-75678599D01*
X187178942Y-75591049D01*
X187033351Y-75530743D01*
X186878793Y-75500000D01*
X186721207Y-75500000D01*
X186566649Y-75530743D01*
X186421058Y-75591049D01*
X186290030Y-75678599D01*
X186178599Y-75790030D01*
X186171937Y-75800000D01*
X185912565Y-75800000D01*
X185886189Y-75736322D01*
X185776751Y-75572537D01*
X185637463Y-75433249D01*
X185473678Y-75323811D01*
X185291689Y-75248429D01*
X185098491Y-75210000D01*
X184901509Y-75210000D01*
X184708311Y-75248429D01*
X184526322Y-75323811D01*
X184362537Y-75433249D01*
X184223249Y-75572537D01*
X184113811Y-75736322D01*
X184038429Y-75918311D01*
X184000000Y-76111509D01*
X180098071Y-76111509D01*
X180069257Y-75966649D01*
X180008951Y-75821058D01*
X179921401Y-75690030D01*
X179809970Y-75578599D01*
X179678942Y-75491049D01*
X179533351Y-75430743D01*
X179378793Y-75400000D01*
X179221207Y-75400000D01*
X179066649Y-75430743D01*
X178921058Y-75491049D01*
X178790030Y-75578599D01*
X178678599Y-75690030D01*
X178665255Y-75710000D01*
X178368601Y-75710000D01*
X178276751Y-75572537D01*
X178137463Y-75433249D01*
X177973678Y-75323811D01*
X177791689Y-75248429D01*
X177598491Y-75210000D01*
X177401509Y-75210000D01*
X177208311Y-75248429D01*
X177026322Y-75323811D01*
X176862537Y-75433249D01*
X176723249Y-75572537D01*
X176613811Y-75736322D01*
X176538429Y-75918311D01*
X176500000Y-76111509D01*
X172498071Y-76111509D01*
X172469257Y-75966649D01*
X172408951Y-75821058D01*
X172321401Y-75690030D01*
X172209970Y-75578599D01*
X172078942Y-75491049D01*
X171933351Y-75430743D01*
X171778793Y-75400000D01*
X171621207Y-75400000D01*
X171466649Y-75430743D01*
X171321058Y-75491049D01*
X171190030Y-75578599D01*
X171078599Y-75690030D01*
X171071937Y-75700000D01*
X170861919Y-75700000D01*
X170776751Y-75572537D01*
X170637463Y-75433249D01*
X170473678Y-75323811D01*
X170291689Y-75248429D01*
X170098491Y-75210000D01*
X169901509Y-75210000D01*
X169708311Y-75248429D01*
X169526322Y-75323811D01*
X169362537Y-75433249D01*
X169223249Y-75572537D01*
X169113811Y-75736322D01*
X169038429Y-75918311D01*
X169000000Y-76111509D01*
X160348109Y-76111509D01*
X161134619Y-75325000D01*
X164484047Y-75325000D01*
X164500000Y-75326571D01*
X164515953Y-75325000D01*
X164515961Y-75325000D01*
X164563711Y-75320297D01*
X164624974Y-75301713D01*
X164681434Y-75271535D01*
X164730921Y-75230921D01*
X164741101Y-75218517D01*
X166134619Y-73825000D01*
X194365382Y-73825000D01*
X195758904Y-75218523D01*
X195758904Y-75218523D02*
X194365382Y-73825000D01*
G04 #@! TA.AperFunction,Conductor*
G36*
X195758904Y-75218523D02*
G01*
X195769079Y-75230921D01*
X195818566Y-75271535D01*
X195875026Y-75301713D01*
X195936288Y-75320297D01*
X195942362Y-75320895D01*
X195984039Y-75325000D01*
X195984046Y-75325000D01*
X195999999Y-75326571D01*
X196015952Y-75325000D01*
X204865382Y-75325000D01*
X206175001Y-76634620D01*
X206175000Y-83865381D01*
X204781478Y-85258904D01*
X204769080Y-85269079D01*
X204728466Y-85318566D01*
X204715797Y-85342268D01*
X204698287Y-85375027D01*
X204679703Y-85436289D01*
X204673429Y-85500000D01*
X204675001Y-85515963D01*
X204675000Y-87484047D01*
X204673429Y-87500000D01*
X204675000Y-87515953D01*
X204675000Y-87515960D01*
X204676538Y-87531574D01*
X204679703Y-87563711D01*
X204688366Y-87592267D01*
X204698287Y-87624973D01*
X204728465Y-87681433D01*
X204769079Y-87730921D01*
X204781483Y-87741101D01*
X206175001Y-89134620D01*
X206175000Y-96365381D01*
X204781483Y-97758899D01*
X204769079Y-97769079D01*
X204728465Y-97818567D01*
X204709646Y-97853776D01*
X204698287Y-97875027D01*
X204679844Y-97935826D01*
X204679703Y-97936290D01*
X204675000Y-97984040D01*
X204675000Y-97984047D01*
X204673429Y-98000000D01*
X204675000Y-98015953D01*
X204675001Y-109484037D01*
X204673429Y-109500000D01*
X204679703Y-109563711D01*
X204698287Y-109624973D01*
X204698288Y-109624974D01*
X204728466Y-109681434D01*
X204769080Y-109730921D01*
X204781478Y-109741096D01*
X206175001Y-111134620D01*
X206175000Y-118365381D01*
X204865382Y-119675000D01*
X180015952Y-119675000D01*
X179999999Y-119673429D01*
X179984046Y-119675000D01*
X179984039Y-119675000D01*
X179942362Y-119679105D01*
X179936288Y-119679703D01*
X179875026Y-119698287D01*
X179818566Y-119728465D01*
X179769079Y-119769079D01*
X179758905Y-119781476D01*
X178365382Y-121175000D01*
X171134619Y-121175000D01*
X169741101Y-119781483D01*
X169730921Y-119769079D01*
X169681434Y-119728465D01*
X169624974Y-119698287D01*
X169563711Y-119679703D01*
X169515961Y-119675000D01*
X169515953Y-119675000D01*
X169500000Y-119673429D01*
X169484047Y-119675000D01*
X161134619Y-119675000D01*
X159325000Y-117865382D01*
X159325000Y-116062866D01*
X160850000Y-116062866D01*
X160850000Y-116437134D01*
X160923016Y-116804209D01*
X161066242Y-117149987D01*
X161274174Y-117461179D01*
X161538821Y-117725826D01*
X161850013Y-117933758D01*
X162195791Y-118076984D01*
X162562866Y-118150000D01*
X162937134Y-118150000D01*
X163304209Y-118076984D01*
X163649987Y-117933758D01*
X163961179Y-117725826D01*
X164225826Y-117461179D01*
X164433758Y-117149987D01*
X164576984Y-116804209D01*
X164650000Y-116437134D01*
X164650000Y-116062866D01*
X164576984Y-115695791D01*
X164433758Y-115350013D01*
X164225826Y-115038821D01*
X163961179Y-114774174D01*
X163649987Y-114566242D01*
X163490065Y-114500000D01*
X170408549Y-114500000D01*
X170408549Y-117500000D01*
X170414341Y-117558810D01*
X170431496Y-117615360D01*
X170459353Y-117667477D01*
X170496842Y-117713158D01*
X170542523Y-117750647D01*
X170594640Y-117778504D01*
X170651190Y-117795659D01*
X170710000Y-117801451D01*
X173710000Y-117801451D01*
X173768810Y-117795659D01*
X173825360Y-117778504D01*
X173877477Y-117750647D01*
X173923158Y-117713158D01*
X173960647Y-117667477D01*
X173988504Y-117615360D01*
X174005659Y-117558810D01*
X174011451Y-117500000D01*
X174011451Y-115822716D01*
X175490000Y-115822716D01*
X175490000Y-116177284D01*
X175559173Y-116525041D01*
X175694861Y-116852620D01*
X175891849Y-117147433D01*
X176142567Y-117398151D01*
X176437380Y-117595139D01*
X176764959Y-117730827D01*
X177112716Y-117800000D01*
X177467284Y-117800000D01*
X177815041Y-117730827D01*
X178142620Y-117595139D01*
X178437433Y-117398151D01*
X178688151Y-117147433D01*
X178885139Y-116852620D01*
X179020827Y-116525041D01*
X179090000Y-116177284D01*
X179090000Y-115822716D01*
X179083493Y-115790000D01*
X199198549Y-115790000D01*
X199198549Y-118790000D01*
X199204341Y-118848810D01*
X199221496Y-118905360D01*
X199249353Y-118957477D01*
X199286842Y-119003158D01*
X199332523Y-119040647D01*
X199384640Y-119068504D01*
X199441190Y-119085659D01*
X199500000Y-119091451D01*
X202500000Y-119091451D01*
X202558810Y-119085659D01*
X202615360Y-119068504D01*
X202667477Y-119040647D01*
X202713158Y-119003158D01*
X202750647Y-118957477D01*
X202778504Y-118905360D01*
X202795659Y-118848810D01*
X202801451Y-118790000D01*
X202801451Y-115790000D01*
X202795659Y-115731190D01*
X202778504Y-115674640D01*
X202750647Y-115622523D01*
X202713158Y-115576842D01*
X202667477Y-115539353D01*
X202615360Y-115511496D01*
X202558810Y-115494341D01*
X202500000Y-115488549D01*
X199500000Y-115488549D01*
X199441190Y-115494341D01*
X199384640Y-115511496D01*
X199332523Y-115539353D01*
X199286842Y-115576842D01*
X199249353Y-115622523D01*
X199221496Y-115674640D01*
X199204341Y-115731190D01*
X199198549Y-115790000D01*
X179083493Y-115790000D01*
X179020827Y-115474959D01*
X178885139Y-115147380D01*
X178688151Y-114852567D01*
X178437433Y-114601849D01*
X178142620Y-114404861D01*
X177815041Y-114269173D01*
X177467284Y-114200000D01*
X177112716Y-114200000D01*
X176764959Y-114269173D01*
X176437380Y-114404861D01*
X176142567Y-114601849D01*
X175891849Y-114852567D01*
X175694861Y-115147380D01*
X175559173Y-115474959D01*
X175490000Y-115822716D01*
X174011451Y-115822716D01*
X174011451Y-114500000D01*
X174005659Y-114441190D01*
X173988504Y-114384640D01*
X173960647Y-114332523D01*
X173923158Y-114286842D01*
X173877477Y-114249353D01*
X173825360Y-114221496D01*
X173768810Y-114204341D01*
X173710000Y-114198549D01*
X170710000Y-114198549D01*
X170651190Y-114204341D01*
X170594640Y-114221496D01*
X170542523Y-114249353D01*
X170496842Y-114286842D01*
X170459353Y-114332523D01*
X170431496Y-114384640D01*
X170414341Y-114441190D01*
X170408549Y-114500000D01*
X163490065Y-114500000D01*
X163304209Y-114423016D01*
X162937134Y-114350000D01*
X162562866Y-114350000D01*
X162195791Y-114423016D01*
X161850013Y-114566242D01*
X161538821Y-114774174D01*
X161274174Y-115038821D01*
X161066242Y-115350013D01*
X160923016Y-115695791D01*
X160850000Y-116062866D01*
X159325000Y-116062866D01*
X159325000Y-111515952D01*
X159326571Y-111499999D01*
X159325000Y-111484046D01*
X159325000Y-111484039D01*
X159320297Y-111436289D01*
X159301713Y-111375026D01*
X159271535Y-111318566D01*
X159230921Y-111269079D01*
X159218524Y-111258905D01*
X158680826Y-110721207D01*
X160000000Y-110721207D01*
X160000000Y-110878793D01*
X160030743Y-111033351D01*
X160091049Y-111178942D01*
X160178599Y-111309970D01*
X160290030Y-111421401D01*
X160421058Y-111508951D01*
X160566649Y-111569257D01*
X160721207Y-111600000D01*
X160878793Y-111600000D01*
X161033351Y-111569257D01*
X161149353Y-111521207D01*
X170000000Y-111521207D01*
X170000000Y-111678793D01*
X170030743Y-111833351D01*
X170091049Y-111978942D01*
X170178599Y-112109970D01*
X170290030Y-112221401D01*
X170421058Y-112308951D01*
X170566649Y-112369257D01*
X170721207Y-112400000D01*
X170878793Y-112400000D01*
X171033351Y-112369257D01*
X171178942Y-112308951D01*
X171309970Y-112221401D01*
X171421401Y-112109970D01*
X171508951Y-111978942D01*
X171569257Y-111833351D01*
X171600000Y-111678793D01*
X171600000Y-111521207D01*
X171569257Y-111366649D01*
X171508951Y-111221058D01*
X171421401Y-111090030D01*
X171309970Y-110978599D01*
X171178942Y-110891049D01*
X171033351Y-110830743D01*
X170878793Y-110800000D01*
X170721207Y-110800000D01*
X170566649Y-110830743D01*
X170421058Y-110891049D01*
X170290030Y-110978599D01*
X170178599Y-111090030D01*
X170091049Y-111221058D01*
X170030743Y-111366649D01*
X170000000Y-111521207D01*
X161149353Y-111521207D01*
X161178942Y-111508951D01*
X161309970Y-111421401D01*
X161421401Y-111309970D01*
X161508951Y-111178942D01*
X161569257Y-111033351D01*
X161595453Y-110901652D01*
X162126151Y-110370954D01*
X162147380Y-110385139D01*
X162474959Y-110520827D01*
X162822716Y-110590000D01*
X163177284Y-110590000D01*
X163525041Y-110520827D01*
X163852620Y-110385139D01*
X164147433Y-110188151D01*
X164398151Y-109937433D01*
X164595139Y-109642620D01*
X164730827Y-109315041D01*
X164800000Y-108967284D01*
X164800000Y-108612716D01*
X164730827Y-108264959D01*
X164595139Y-107937380D01*
X164398151Y-107642567D01*
X164147433Y-107391849D01*
X163852620Y-107194861D01*
X163525041Y-107059173D01*
X163177284Y-106990000D01*
X162822716Y-106990000D01*
X162474959Y-107059173D01*
X162147380Y-107194861D01*
X161852567Y-107391849D01*
X161601849Y-107642567D01*
X161404861Y-107937380D01*
X161269173Y-108264959D01*
X161200000Y-108612716D01*
X161200000Y-108967284D01*
X161269173Y-109315041D01*
X161404861Y-109642620D01*
X161419046Y-109663849D01*
X161046645Y-110036250D01*
X161033351Y-110030743D01*
X160878793Y-110000000D01*
X160721207Y-110000000D01*
X160566649Y-110030743D01*
X160421058Y-110091049D01*
X160290030Y-110178599D01*
X160178599Y-110290030D01*
X160091049Y-110421058D01*
X160030743Y-110566649D01*
X160000000Y-110721207D01*
X158680826Y-110721207D01*
X157825000Y-109865382D01*
X157825000Y-103821207D01*
X159500000Y-103821207D01*
X159500000Y-103978793D01*
X159530743Y-104133351D01*
X159591049Y-104278942D01*
X159678599Y-104409970D01*
X159790030Y-104521401D01*
X159921058Y-104608951D01*
X160066649Y-104669257D01*
X160221207Y-104700000D01*
X160378793Y-104700000D01*
X160533351Y-104669257D01*
X160678942Y-104608951D01*
X160809970Y-104521401D01*
X160921401Y-104409970D01*
X160928063Y-104400000D01*
X161198549Y-104400000D01*
X161198549Y-105210000D01*
X161204341Y-105268810D01*
X161221496Y-105325360D01*
X161249353Y-105377477D01*
X161286842Y-105423158D01*
X161332523Y-105460647D01*
X161384640Y-105488504D01*
X161441190Y-105505659D01*
X161500000Y-105511451D01*
X164500000Y-105511451D01*
X164558810Y-105505659D01*
X164615360Y-105488504D01*
X164667477Y-105460647D01*
X164713158Y-105423158D01*
X164750647Y-105377477D01*
X164778504Y-105325360D01*
X164795659Y-105268810D01*
X164801451Y-105210000D01*
X164801451Y-102210000D01*
X164795659Y-102151190D01*
X164778504Y-102094640D01*
X164750647Y-102042523D01*
X164713158Y-101996842D01*
X164667477Y-101959353D01*
X164615360Y-101931496D01*
X164558810Y-101914341D01*
X164500000Y-101908549D01*
X161500000Y-101908549D01*
X161441190Y-101914341D01*
X161384640Y-101931496D01*
X161332523Y-101959353D01*
X161286842Y-101996842D01*
X161249353Y-102042523D01*
X161221496Y-102094640D01*
X161204341Y-102151190D01*
X161198549Y-102210000D01*
X161198549Y-103400000D01*
X160928063Y-103400000D01*
X160921401Y-103390030D01*
X160809970Y-103278599D01*
X160678942Y-103191049D01*
X160533351Y-103130743D01*
X160378793Y-103100000D01*
X160221207Y-103100000D01*
X160066649Y-103130743D01*
X159921058Y-103191049D01*
X159790030Y-103278599D01*
X159678599Y-103390030D01*
X159591049Y-103521058D01*
X159530743Y-103666649D01*
X159500000Y-103821207D01*
X157825000Y-103821207D01*
X157825000Y-102634618D01*
X158528562Y-101931056D01*
X159700000Y-101931056D01*
X159700000Y-102068944D01*
X159726901Y-102204182D01*
X159779668Y-102331574D01*
X159856274Y-102446224D01*
X159953776Y-102543726D01*
X160068426Y-102620332D01*
X160195818Y-102673099D01*
X160331056Y-102700000D01*
X160468944Y-102700000D01*
X160604182Y-102673099D01*
X160731574Y-102620332D01*
X160846224Y-102543726D01*
X160943726Y-102446224D01*
X161020332Y-102331574D01*
X161073099Y-102204182D01*
X161100000Y-102068944D01*
X161100000Y-102007106D01*
X161336181Y-101770925D01*
X161355264Y-101755264D01*
X161417746Y-101679129D01*
X161464175Y-101592267D01*
X161492765Y-101498017D01*
X161500000Y-101424560D01*
X161500000Y-101424559D01*
X161502419Y-101400001D01*
X161500000Y-101375443D01*
X161500000Y-100762003D01*
X161556274Y-100846224D01*
X161653776Y-100943726D01*
X161768426Y-101020332D01*
X161895818Y-101073099D01*
X162031056Y-101100000D01*
X162168944Y-101100000D01*
X162304182Y-101073099D01*
X162431574Y-101020332D01*
X162546224Y-100943726D01*
X162589950Y-100900000D01*
X165192895Y-100900000D01*
X166100001Y-101807108D01*
X166100000Y-106759442D01*
X166097581Y-106784002D01*
X166107235Y-106882019D01*
X166112088Y-106898017D01*
X166135825Y-106976268D01*
X166182254Y-107063131D01*
X166244736Y-107139266D01*
X166263824Y-107154931D01*
X168045073Y-108936181D01*
X168060734Y-108955264D01*
X168136869Y-109017746D01*
X168223731Y-109064175D01*
X168289390Y-109084092D01*
X168317980Y-109092765D01*
X168415997Y-109102419D01*
X168440557Y-109100000D01*
X169375440Y-109100000D01*
X169400000Y-109102419D01*
X169424560Y-109100000D01*
X169498017Y-109092765D01*
X169592267Y-109064175D01*
X169679129Y-109017746D01*
X169755264Y-108955264D01*
X169770929Y-108936176D01*
X170336181Y-108370925D01*
X170355264Y-108355264D01*
X170417746Y-108279129D01*
X170464175Y-108192267D01*
X170492765Y-108098017D01*
X170500000Y-108024560D01*
X170500000Y-108024559D01*
X170502419Y-108000001D01*
X170500000Y-107975443D01*
X170500000Y-106824560D01*
X170502419Y-106800000D01*
X170492765Y-106701983D01*
X170478593Y-106655264D01*
X170464175Y-106607733D01*
X170417746Y-106520871D01*
X170355264Y-106444736D01*
X170336181Y-106429075D01*
X170170928Y-106263823D01*
X170155264Y-106244736D01*
X170079129Y-106182254D01*
X169992267Y-106135825D01*
X169898017Y-106107235D01*
X169800000Y-106097581D01*
X169775440Y-106100000D01*
X169389950Y-106100000D01*
X169346224Y-106056274D01*
X169231574Y-105979668D01*
X169104182Y-105926901D01*
X168968944Y-105900000D01*
X168869645Y-105900000D01*
X168399999Y-105477319D01*
X168400000Y-104000000D01*
X171398065Y-104000000D01*
X171400000Y-106246000D01*
X171500000Y-106346000D01*
X171714332Y-106346000D01*
X171712248Y-106352519D01*
X171696690Y-106489526D01*
X171708161Y-106626937D01*
X171715932Y-106654000D01*
X171500000Y-106654000D01*
X171400000Y-106754000D01*
X171398065Y-109000000D01*
X171405788Y-109078414D01*
X171428660Y-109153814D01*
X171465803Y-109223303D01*
X171515789Y-109284211D01*
X171576697Y-109334197D01*
X171646186Y-109371340D01*
X171721586Y-109394212D01*
X171800000Y-109401935D01*
X172370692Y-109401171D01*
X172389526Y-109403310D01*
X172415869Y-109401111D01*
X173246000Y-109400000D01*
X173281084Y-109364916D01*
X173345998Y-109385667D01*
X173345998Y-109400000D01*
X173460377Y-109400000D01*
X173489526Y-109403310D01*
X173529176Y-109400000D01*
X173654002Y-109400000D01*
X173654002Y-109384067D01*
X173719312Y-109365312D01*
X173754000Y-109400000D01*
X174569993Y-109401092D01*
X174589526Y-109403310D01*
X174615369Y-109401153D01*
X175200000Y-109401935D01*
X175278414Y-109394212D01*
X175353814Y-109371340D01*
X175423303Y-109334197D01*
X175484211Y-109284211D01*
X175534197Y-109223303D01*
X175571340Y-109153814D01*
X175594212Y-109078414D01*
X175601935Y-109000000D01*
X175600000Y-106754000D01*
X175500000Y-106654000D01*
X175285668Y-106654000D01*
X175287752Y-106647481D01*
X175303310Y-106510474D01*
X175291839Y-106373063D01*
X175284068Y-106346000D01*
X175500000Y-106346000D01*
X175600000Y-106246000D01*
X175601935Y-104000000D01*
X175594212Y-103921586D01*
X175571340Y-103846186D01*
X175534197Y-103776697D01*
X175484211Y-103715789D01*
X175423303Y-103665803D01*
X175353814Y-103628660D01*
X175278414Y-103605788D01*
X175200000Y-103598065D01*
X174629308Y-103598829D01*
X174610474Y-103596690D01*
X174584131Y-103598889D01*
X173754000Y-103600000D01*
X173718916Y-103635084D01*
X173654002Y-103614333D01*
X173654002Y-103600000D01*
X173539623Y-103600000D01*
X173510474Y-103596690D01*
X173470824Y-103600000D01*
X173345998Y-103600000D01*
X173345998Y-103615933D01*
X173280688Y-103634688D01*
X173246000Y-103600000D01*
X172430007Y-103598908D01*
X172410474Y-103596690D01*
X172384631Y-103598847D01*
X171800000Y-103598065D01*
X171721586Y-103605788D01*
X171646186Y-103628660D01*
X171576697Y-103665803D01*
X171515789Y-103715789D01*
X171465803Y-103776697D01*
X171428660Y-103846186D01*
X171405788Y-103921586D01*
X171398065Y-104000000D01*
X168400000Y-104000000D01*
X168400004Y-100649995D01*
X169313600Y-100649995D01*
X170400000Y-101736396D01*
X170400000Y-101868944D01*
X170426901Y-102004182D01*
X170479668Y-102131574D01*
X170556274Y-102246224D01*
X170653776Y-102343726D01*
X170768426Y-102420332D01*
X170895818Y-102473099D01*
X171031056Y-102500000D01*
X171168944Y-102500000D01*
X171304182Y-102473099D01*
X171431574Y-102420332D01*
X171546224Y-102343726D01*
X171643726Y-102246224D01*
X171720332Y-102131574D01*
X171773099Y-102004182D01*
X171800000Y-101868944D01*
X171800000Y-101731056D01*
X171773099Y-101595818D01*
X171720332Y-101468426D01*
X171643726Y-101353776D01*
X171546224Y-101256274D01*
X171431574Y-101179668D01*
X171304182Y-101126901D01*
X171168944Y-101100000D01*
X171036396Y-101100000D01*
X169833824Y-99897429D01*
X169819732Y-99880258D01*
X169751211Y-99824024D01*
X169673036Y-99782238D01*
X169588210Y-99756506D01*
X169522100Y-99749995D01*
X169522089Y-99749995D01*
X169499995Y-99747819D01*
X169477901Y-99749995D01*
X168400004Y-99749995D01*
X168400009Y-93283468D01*
X168497848Y-93283468D01*
X168500025Y-93305572D01*
X168500024Y-97388591D01*
X168497848Y-97410685D01*
X168500024Y-97432779D01*
X168500024Y-97432789D01*
X168506535Y-97498899D01*
X168517189Y-97534020D01*
X168532267Y-97583725D01*
X168574053Y-97661901D01*
X168616196Y-97713252D01*
X168630287Y-97730422D01*
X168647457Y-97744513D01*
X168865676Y-97962732D01*
X168865676Y-98095281D01*
X168892577Y-98230519D01*
X168945344Y-98357911D01*
X169021950Y-98472561D01*
X169119452Y-98570063D01*
X169234102Y-98646669D01*
X169361494Y-98699436D01*
X169496732Y-98726337D01*
X169634620Y-98726337D01*
X169769858Y-98699436D01*
X169897250Y-98646669D01*
X170011900Y-98570063D01*
X170109402Y-98472561D01*
X170186008Y-98357911D01*
X170238775Y-98230519D01*
X170265676Y-98095281D01*
X170265676Y-98045301D01*
X170625484Y-98045301D01*
X170491806Y-98134622D01*
X170284622Y-98341806D01*
X170121839Y-98585428D01*
X170009712Y-98856127D01*
X169952550Y-99143499D01*
X169952550Y-99436501D01*
X170009712Y-99723873D01*
X170121839Y-99994572D01*
X170284622Y-100238194D01*
X170491806Y-100445378D01*
X170735428Y-100608161D01*
X171006127Y-100720288D01*
X171293499Y-100777450D01*
X171586501Y-100777450D01*
X171873873Y-100720288D01*
X172144572Y-100608161D01*
X172388194Y-100445378D01*
X172595378Y-100238194D01*
X172750001Y-100006785D01*
X172750000Y-100960050D01*
X172656274Y-101053776D01*
X172579668Y-101168426D01*
X172526901Y-101295818D01*
X172500000Y-101431056D01*
X172500000Y-101568944D01*
X172526901Y-101704182D01*
X172579668Y-101831574D01*
X172656274Y-101946224D01*
X172753776Y-102043726D01*
X172868426Y-102120332D01*
X172995818Y-102173099D01*
X173131056Y-102200000D01*
X173268944Y-102200000D01*
X173404182Y-102173099D01*
X173531574Y-102120332D01*
X173646224Y-102043726D01*
X173743726Y-101946224D01*
X173820332Y-101831574D01*
X173820546Y-101831056D01*
X175500000Y-101831056D01*
X175500000Y-101968944D01*
X175526901Y-102104182D01*
X175579668Y-102231574D01*
X175656274Y-102346224D01*
X175753776Y-102443726D01*
X175868426Y-102520332D01*
X175995818Y-102573099D01*
X176131056Y-102600000D01*
X176268944Y-102600000D01*
X176367268Y-102580442D01*
X176253776Y-102656274D01*
X176156274Y-102753776D01*
X176079668Y-102868426D01*
X176026901Y-102995818D01*
X176000000Y-103131056D01*
X176000000Y-103268944D01*
X176026901Y-103404182D01*
X176079668Y-103531574D01*
X176156274Y-103646224D01*
X176173493Y-103663443D01*
X176130743Y-103766649D01*
X176100000Y-103921207D01*
X176100000Y-104078793D01*
X176130743Y-104233351D01*
X176191049Y-104378942D01*
X176278599Y-104509970D01*
X176390030Y-104621401D01*
X176521058Y-104708951D01*
X176666649Y-104769257D01*
X176821207Y-104800000D01*
X176978793Y-104800000D01*
X177133351Y-104769257D01*
X177278942Y-104708951D01*
X177409970Y-104621401D01*
X177521401Y-104509970D01*
X177608951Y-104378942D01*
X177669257Y-104233351D01*
X177700000Y-104078793D01*
X177700000Y-103921207D01*
X177669257Y-103766649D01*
X177608951Y-103621058D01*
X177521401Y-103490030D01*
X177409970Y-103378599D01*
X177381916Y-103359854D01*
X177400000Y-103268944D01*
X177400000Y-103131056D01*
X177373099Y-102995818D01*
X177320332Y-102868426D01*
X177243726Y-102753776D01*
X177146224Y-102656274D01*
X177031574Y-102579668D01*
X176904182Y-102526901D01*
X176768944Y-102500000D01*
X176631056Y-102500000D01*
X176532732Y-102519558D01*
X176646224Y-102443726D01*
X176739950Y-102350000D01*
X178277906Y-102350000D01*
X178300000Y-102352176D01*
X178322094Y-102350000D01*
X178322105Y-102350000D01*
X178388215Y-102343489D01*
X178473041Y-102317757D01*
X178551216Y-102275971D01*
X178619737Y-102219737D01*
X178633829Y-102202566D01*
X179886396Y-100950000D01*
X180550000Y-100950000D01*
X180550000Y-102540052D01*
X180520332Y-102468426D01*
X180443726Y-102353776D01*
X180346224Y-102256274D01*
X180231574Y-102179668D01*
X180104182Y-102126901D01*
X179968944Y-102100000D01*
X179831056Y-102100000D01*
X179695818Y-102126901D01*
X179568426Y-102179668D01*
X179453776Y-102256274D01*
X179356274Y-102353776D01*
X179279668Y-102468426D01*
X179226901Y-102595818D01*
X179200000Y-102731056D01*
X179200000Y-102868944D01*
X179226901Y-103004182D01*
X179279668Y-103131574D01*
X179356274Y-103246224D01*
X179450000Y-103339950D01*
X179450001Y-108113603D01*
X177863605Y-109700000D01*
X177831056Y-109700000D01*
X177695818Y-109726901D01*
X177568426Y-109779668D01*
X177453776Y-109856274D01*
X177356274Y-109953776D01*
X177279668Y-110068426D01*
X177226901Y-110195818D01*
X177200000Y-110331056D01*
X177200000Y-110468944D01*
X177226901Y-110604182D01*
X177279668Y-110731574D01*
X177356274Y-110846224D01*
X177453776Y-110943726D01*
X177568426Y-111020332D01*
X177695818Y-111073099D01*
X177831056Y-111100000D01*
X177968944Y-111100000D01*
X178104182Y-111073099D01*
X178231574Y-111020332D01*
X178346224Y-110943726D01*
X178443726Y-110846224D01*
X178520332Y-110731574D01*
X178573099Y-110604182D01*
X178600000Y-110468944D01*
X178600000Y-110331056D01*
X178584295Y-110252101D01*
X180202572Y-108633824D01*
X180219737Y-108619737D01*
X180233824Y-108602572D01*
X180233828Y-108602568D01*
X180275971Y-108551217D01*
X180317757Y-108473041D01*
X180343489Y-108388215D01*
X180350000Y-108322105D01*
X180350000Y-108322095D01*
X180352176Y-108300001D01*
X180350000Y-108277906D01*
X180350000Y-103339950D01*
X180443726Y-103246224D01*
X180520332Y-103131574D01*
X180550000Y-103059948D01*
X180550001Y-107940049D01*
X180526901Y-107995818D01*
X180500000Y-108131056D01*
X180500000Y-108268944D01*
X180526901Y-108404182D01*
X180579668Y-108531574D01*
X180656274Y-108646224D01*
X180753776Y-108743726D01*
X180868426Y-108820332D01*
X180995818Y-108873099D01*
X181131056Y-108900000D01*
X181268944Y-108900000D01*
X181404182Y-108873099D01*
X181531574Y-108820332D01*
X181646224Y-108743726D01*
X181743726Y-108646224D01*
X181820332Y-108531574D01*
X181873099Y-108404182D01*
X181900000Y-108268944D01*
X181900000Y-108131056D01*
X181873099Y-107995818D01*
X181820332Y-107868426D01*
X181743726Y-107753776D01*
X181646224Y-107656274D01*
X181531574Y-107579668D01*
X181450000Y-107545879D01*
X181450000Y-100522105D01*
X181452177Y-100500000D01*
X181450000Y-100477895D01*
X181450000Y-98908022D01*
X181468423Y-98920332D01*
X181595815Y-98973099D01*
X181731053Y-99000000D01*
X181868941Y-99000000D01*
X182004179Y-98973099D01*
X182131571Y-98920332D01*
X182246221Y-98843726D01*
X182289947Y-98800000D01*
X183875440Y-98800000D01*
X183900000Y-98802419D01*
X183924560Y-98800000D01*
X183998017Y-98792765D01*
X184092267Y-98764175D01*
X184179129Y-98717746D01*
X184255264Y-98655264D01*
X184270929Y-98636176D01*
X186607106Y-96300000D01*
X195475440Y-96300000D01*
X195500000Y-96302419D01*
X195524560Y-96300000D01*
X195598017Y-96292765D01*
X195692267Y-96264175D01*
X195779129Y-96217746D01*
X195855264Y-96155264D01*
X195870928Y-96136177D01*
X195907105Y-96100000D01*
X195968944Y-96100000D01*
X196104182Y-96073099D01*
X196231574Y-96020332D01*
X196346224Y-95943726D01*
X196443726Y-95846224D01*
X196520332Y-95731574D01*
X196573099Y-95604182D01*
X196600000Y-95468944D01*
X196600000Y-95331056D01*
X196573099Y-95195818D01*
X196520332Y-95068426D01*
X196443726Y-94953776D01*
X196346224Y-94856274D01*
X196231574Y-94779668D01*
X196104182Y-94726901D01*
X195968944Y-94700000D01*
X195831056Y-94700000D01*
X195695818Y-94726901D01*
X195568426Y-94779668D01*
X195453776Y-94856274D01*
X195356274Y-94953776D01*
X195279668Y-95068426D01*
X195226901Y-95195818D01*
X195206178Y-95300000D01*
X186424560Y-95300000D01*
X186400000Y-95297581D01*
X186375440Y-95300000D01*
X186301983Y-95307235D01*
X186207733Y-95335825D01*
X186120871Y-95382254D01*
X186044736Y-95444736D01*
X186029075Y-95463819D01*
X183692895Y-97800000D01*
X182289947Y-97800000D01*
X182246221Y-97756274D01*
X182131571Y-97679668D01*
X182004179Y-97626901D01*
X181868941Y-97600000D01*
X181731053Y-97600000D01*
X181595815Y-97626901D01*
X181468423Y-97679668D01*
X181450000Y-97691978D01*
X181450000Y-95639950D01*
X181543726Y-95546224D01*
X181620332Y-95431574D01*
X181673099Y-95304182D01*
X181700000Y-95168944D01*
X181700000Y-95031056D01*
X181673099Y-94895818D01*
X181620332Y-94768426D01*
X181543726Y-94653776D01*
X181539950Y-94650000D01*
X191077906Y-94650000D01*
X191100000Y-94652176D01*
X191122094Y-94650000D01*
X191122105Y-94650000D01*
X191188215Y-94643489D01*
X191273041Y-94617757D01*
X191351216Y-94575971D01*
X191419737Y-94519737D01*
X191433829Y-94502566D01*
X192296285Y-93640111D01*
X192366649Y-93669257D01*
X192521207Y-93700000D01*
X192678793Y-93700000D01*
X192833351Y-93669257D01*
X192978942Y-93608951D01*
X193109970Y-93521401D01*
X193221401Y-93409970D01*
X193308951Y-93278942D01*
X193369257Y-93133351D01*
X193400000Y-92978793D01*
X193400000Y-92821207D01*
X193369257Y-92666649D01*
X193326125Y-92562521D01*
X194966176Y-94202572D01*
X194980263Y-94219737D01*
X194997428Y-94233824D01*
X194997432Y-94233828D01*
X195048783Y-94275971D01*
X195126959Y-94317757D01*
X195211785Y-94343489D01*
X195277895Y-94350000D01*
X195277906Y-94350000D01*
X195300000Y-94352176D01*
X195322094Y-94350000D01*
X197413605Y-94350000D01*
X198656176Y-95592572D01*
X198670263Y-95609737D01*
X198687428Y-95623824D01*
X198687432Y-95623828D01*
X198738783Y-95665971D01*
X198763402Y-95679130D01*
X198816959Y-95707757D01*
X198901785Y-95733489D01*
X198967895Y-95740000D01*
X198967905Y-95740000D01*
X198990000Y-95742176D01*
X199012094Y-95740000D01*
X199198549Y-95740000D01*
X199198549Y-96790000D01*
X199204341Y-96848810D01*
X199221496Y-96905360D01*
X199249353Y-96957477D01*
X199286842Y-97003158D01*
X199332523Y-97040647D01*
X199384640Y-97068504D01*
X199441190Y-97085659D01*
X199500000Y-97091451D01*
X200500000Y-97091451D01*
X200500000Y-97092893D01*
X199292895Y-98300000D01*
X194824560Y-98300000D01*
X194800000Y-98297581D01*
X194775440Y-98300000D01*
X194701983Y-98307235D01*
X194607733Y-98335825D01*
X194520871Y-98382254D01*
X194444736Y-98444736D01*
X194429080Y-98463813D01*
X180990555Y-111902340D01*
X180978793Y-111900000D01*
X180821207Y-111900000D01*
X180666649Y-111930743D01*
X180521058Y-111991049D01*
X180390030Y-112078599D01*
X180278599Y-112190030D01*
X180191049Y-112321058D01*
X180130743Y-112466649D01*
X180100000Y-112621207D01*
X180100000Y-112778793D01*
X180130743Y-112933351D01*
X180191049Y-113078942D01*
X180278599Y-113209970D01*
X180390030Y-113321401D01*
X180521058Y-113408951D01*
X180666649Y-113469257D01*
X180821207Y-113500000D01*
X180978793Y-113500000D01*
X181133351Y-113469257D01*
X181278942Y-113408951D01*
X181409970Y-113321401D01*
X181521401Y-113209970D01*
X181608951Y-113078942D01*
X181669257Y-112933351D01*
X181700000Y-112778793D01*
X181700000Y-112621207D01*
X181697660Y-112609445D01*
X182274389Y-112032716D01*
X199200000Y-112032716D01*
X199200000Y-112387284D01*
X199269173Y-112735041D01*
X199404861Y-113062620D01*
X199601849Y-113357433D01*
X199852567Y-113608151D01*
X200147380Y-113805139D01*
X200474959Y-113940827D01*
X200822716Y-114010000D01*
X201177284Y-114010000D01*
X201525041Y-113940827D01*
X201852620Y-113805139D01*
X202147433Y-113608151D01*
X202398151Y-113357433D01*
X202595139Y-113062620D01*
X202730827Y-112735041D01*
X202800000Y-112387284D01*
X202800000Y-112032716D01*
X202730827Y-111684959D01*
X202595139Y-111357380D01*
X202398151Y-111062567D01*
X202147433Y-110811849D01*
X201852620Y-110614861D01*
X201525041Y-110479173D01*
X201177284Y-110410000D01*
X200822716Y-110410000D01*
X200474959Y-110479173D01*
X200147380Y-110614861D01*
X199852567Y-110811849D01*
X199601849Y-111062567D01*
X199404861Y-111357380D01*
X199269173Y-111684959D01*
X199200000Y-112032716D01*
X182274389Y-112032716D01*
X190744240Y-103562866D01*
X199100000Y-103562866D01*
X199100000Y-103937134D01*
X199173016Y-104304209D01*
X199316242Y-104649987D01*
X199524174Y-104961179D01*
X199788821Y-105225826D01*
X200100013Y-105433758D01*
X200445791Y-105576984D01*
X200812866Y-105650000D01*
X201187134Y-105650000D01*
X201554209Y-105576984D01*
X201899987Y-105433758D01*
X202211179Y-105225826D01*
X202475826Y-104961179D01*
X202683758Y-104649987D01*
X202826984Y-104304209D01*
X202900000Y-103937134D01*
X202900000Y-103562866D01*
X202826984Y-103195791D01*
X202683758Y-102850013D01*
X202475826Y-102538821D01*
X202211179Y-102274174D01*
X201899987Y-102066242D01*
X201554209Y-101923016D01*
X201187134Y-101850000D01*
X200812866Y-101850000D01*
X200445791Y-101923016D01*
X200100013Y-102066242D01*
X199788821Y-102274174D01*
X199524174Y-102538821D01*
X199316242Y-102850013D01*
X199173016Y-103195791D01*
X199100000Y-103562866D01*
X190744240Y-103562866D01*
X195007107Y-99300000D01*
X199475440Y-99300000D01*
X199500000Y-99302419D01*
X199524560Y-99300000D01*
X199598017Y-99292765D01*
X199692267Y-99264175D01*
X199779129Y-99217746D01*
X199855264Y-99155264D01*
X199870929Y-99136176D01*
X201336187Y-97670920D01*
X201355264Y-97655264D01*
X201417746Y-97579129D01*
X201464175Y-97492267D01*
X201492765Y-97398017D01*
X201500000Y-97324560D01*
X201500000Y-97324551D01*
X201502418Y-97300001D01*
X201500000Y-97275451D01*
X201500000Y-97091451D01*
X202500000Y-97091451D01*
X202558810Y-97085659D01*
X202615360Y-97068504D01*
X202667477Y-97040647D01*
X202713158Y-97003158D01*
X202750647Y-96957477D01*
X202778504Y-96905360D01*
X202795659Y-96848810D01*
X202801451Y-96790000D01*
X202801451Y-93790000D01*
X202795659Y-93731190D01*
X202778504Y-93674640D01*
X202750647Y-93622523D01*
X202713158Y-93576842D01*
X202667477Y-93539353D01*
X202615360Y-93511496D01*
X202558810Y-93494341D01*
X202500000Y-93488549D01*
X199500000Y-93488549D01*
X199441190Y-93494341D01*
X199384640Y-93511496D01*
X199332523Y-93539353D01*
X199286842Y-93576842D01*
X199249353Y-93622523D01*
X199221496Y-93674640D01*
X199204341Y-93731190D01*
X199198549Y-93790000D01*
X199198549Y-94840000D01*
X199176396Y-94840000D01*
X197933827Y-93597432D01*
X197919737Y-93580263D01*
X197851216Y-93524029D01*
X197773041Y-93482243D01*
X197688215Y-93456511D01*
X197622105Y-93450000D01*
X197622094Y-93450000D01*
X197600000Y-93447824D01*
X197577906Y-93450000D01*
X195486396Y-93450000D01*
X193783828Y-91747433D01*
X193769736Y-91730262D01*
X193701215Y-91674028D01*
X193623040Y-91632242D01*
X193538214Y-91606510D01*
X193472104Y-91599999D01*
X193472093Y-91599999D01*
X193449999Y-91597823D01*
X193427905Y-91599999D01*
X192072095Y-91599999D01*
X192050001Y-91597823D01*
X192027907Y-91599999D01*
X192027896Y-91599999D01*
X191961786Y-91606510D01*
X191876960Y-91632242D01*
X191798785Y-91674028D01*
X191730264Y-91730262D01*
X191716172Y-91747433D01*
X191497438Y-91966167D01*
X191497432Y-91966172D01*
X191497428Y-91966176D01*
X191480263Y-91980263D01*
X191466176Y-91997428D01*
X190313605Y-93150000D01*
X180986395Y-93150000D01*
X180833829Y-92997434D01*
X180819737Y-92980263D01*
X180751216Y-92924029D01*
X180673041Y-92882243D01*
X180588215Y-92856511D01*
X180522105Y-92850000D01*
X180522094Y-92850000D01*
X180500000Y-92847824D01*
X180477906Y-92850000D01*
X179639950Y-92850000D01*
X179546224Y-92756274D01*
X179431574Y-92679668D01*
X179304182Y-92626901D01*
X179168944Y-92600000D01*
X179031056Y-92600000D01*
X178895818Y-92626901D01*
X178768426Y-92679668D01*
X178653776Y-92756274D01*
X178556274Y-92853776D01*
X178479668Y-92968426D01*
X178426901Y-93095818D01*
X178400000Y-93231056D01*
X178400000Y-93368944D01*
X178407645Y-93407376D01*
X178310378Y-93261806D01*
X178103194Y-93054622D01*
X177859572Y-92891839D01*
X177588873Y-92779712D01*
X177301501Y-92722550D01*
X177008499Y-92722550D01*
X176721127Y-92779712D01*
X176450428Y-92891839D01*
X176206806Y-93054622D01*
X175999622Y-93261806D01*
X175836839Y-93505428D01*
X175724712Y-93776127D01*
X175667550Y-94063499D01*
X175667550Y-94356501D01*
X175724712Y-94643873D01*
X175836839Y-94914572D01*
X175999622Y-95158194D01*
X176206806Y-95365378D01*
X176450428Y-95528161D01*
X176721127Y-95640288D01*
X177008499Y-95697450D01*
X177301501Y-95697450D01*
X177511542Y-95655670D01*
X178264700Y-95655670D01*
X178264700Y-95812330D01*
X178295263Y-95965980D01*
X178355214Y-96110716D01*
X178442250Y-96240974D01*
X178553026Y-96351750D01*
X178683284Y-96438786D01*
X178828020Y-96498737D01*
X178981670Y-96529300D01*
X179138330Y-96529300D01*
X179291980Y-96498737D01*
X179436716Y-96438786D01*
X179566974Y-96351750D01*
X179677750Y-96240974D01*
X179764786Y-96110716D01*
X179824737Y-95965980D01*
X179855300Y-95812330D01*
X179855300Y-95655670D01*
X179824737Y-95502020D01*
X179764786Y-95357284D01*
X179677750Y-95227026D01*
X179566974Y-95116250D01*
X179436716Y-95029214D01*
X179291980Y-94969263D01*
X179138330Y-94938700D01*
X178981670Y-94938700D01*
X178828020Y-94969263D01*
X178683284Y-95029214D01*
X178553026Y-95116250D01*
X178442250Y-95227026D01*
X178355214Y-95357284D01*
X178295263Y-95502020D01*
X178264700Y-95655670D01*
X177511542Y-95655670D01*
X177588873Y-95640288D01*
X177859572Y-95528161D01*
X178103194Y-95365378D01*
X178310378Y-95158194D01*
X178473161Y-94914572D01*
X178585288Y-94643873D01*
X178642450Y-94356501D01*
X178642450Y-94063499D01*
X178585288Y-93776127D01*
X178584659Y-93774609D01*
X178653776Y-93843726D01*
X178768426Y-93920332D01*
X178895818Y-93973099D01*
X179031056Y-94000000D01*
X179168944Y-94000000D01*
X179304182Y-93973099D01*
X179431574Y-93920332D01*
X179468345Y-93895763D01*
X179426901Y-93995818D01*
X179400000Y-94131056D01*
X179400000Y-94268944D01*
X179426901Y-94404182D01*
X179479668Y-94531574D01*
X179556274Y-94646224D01*
X179653776Y-94743726D01*
X179768426Y-94820332D01*
X179895818Y-94873099D01*
X180031056Y-94900000D01*
X180168944Y-94900000D01*
X180304182Y-94873099D01*
X180342966Y-94857034D01*
X180326901Y-94895818D01*
X180300000Y-95031056D01*
X180300000Y-95168944D01*
X180326901Y-95304182D01*
X180379668Y-95431574D01*
X180456274Y-95546224D01*
X180550000Y-95639950D01*
X180550001Y-100050000D01*
X179722094Y-100050000D01*
X179700000Y-100047824D01*
X179677905Y-100050000D01*
X179677895Y-100050000D01*
X179611785Y-100056511D01*
X179526959Y-100082243D01*
X179448783Y-100124029D01*
X179397432Y-100166172D01*
X179397428Y-100166176D01*
X179380263Y-100180263D01*
X179366176Y-100197428D01*
X178113605Y-101450000D01*
X176739950Y-101450000D01*
X176646224Y-101356274D01*
X176531574Y-101279668D01*
X176404182Y-101226901D01*
X176268944Y-101200000D01*
X176131056Y-101200000D01*
X175995818Y-101226901D01*
X175868426Y-101279668D01*
X175753776Y-101356274D01*
X175656274Y-101453776D01*
X175579668Y-101568426D01*
X175526901Y-101695818D01*
X175500000Y-101831056D01*
X173820546Y-101831056D01*
X173873099Y-101704182D01*
X173900000Y-101568944D01*
X173900000Y-101431056D01*
X173873099Y-101295818D01*
X173820332Y-101168426D01*
X173743726Y-101053776D01*
X173650000Y-100960050D01*
X173650000Y-99143499D01*
X175667550Y-99143499D01*
X175667550Y-99436501D01*
X175724712Y-99723873D01*
X175836839Y-99994572D01*
X175999622Y-100238194D01*
X176206806Y-100445378D01*
X176450428Y-100608161D01*
X176721127Y-100720288D01*
X177008499Y-100777450D01*
X177301501Y-100777450D01*
X177588873Y-100720288D01*
X177859572Y-100608161D01*
X178103194Y-100445378D01*
X178310378Y-100238194D01*
X178473161Y-99994572D01*
X178585288Y-99723873D01*
X178642450Y-99436501D01*
X178642450Y-99143499D01*
X178585288Y-98856127D01*
X178473161Y-98585428D01*
X178310378Y-98341806D01*
X178103194Y-98134622D01*
X177859572Y-97971839D01*
X177588873Y-97859712D01*
X177301501Y-97802550D01*
X177008499Y-97802550D01*
X176721127Y-97859712D01*
X176450428Y-97971839D01*
X176206806Y-98134622D01*
X175999622Y-98341806D01*
X175836839Y-98585428D01*
X175724712Y-98856127D01*
X175667550Y-99143499D01*
X173650000Y-99143499D01*
X173650000Y-98796666D01*
X173652176Y-98774571D01*
X173650000Y-98752477D01*
X173650000Y-98752467D01*
X173643489Y-98686357D01*
X173617757Y-98601531D01*
X173596253Y-98561300D01*
X173575971Y-98523355D01*
X173533828Y-98472004D01*
X173533824Y-98472000D01*
X173519737Y-98454835D01*
X173502572Y-98440748D01*
X172749494Y-97687670D01*
X178264700Y-97687670D01*
X178264700Y-97844330D01*
X178295263Y-97997980D01*
X178355214Y-98142716D01*
X178442250Y-98272974D01*
X178553026Y-98383750D01*
X178683284Y-98470786D01*
X178828020Y-98530737D01*
X178981670Y-98561300D01*
X179138330Y-98561300D01*
X179291980Y-98530737D01*
X179436716Y-98470786D01*
X179566974Y-98383750D01*
X179677750Y-98272974D01*
X179764786Y-98142716D01*
X179824737Y-97997980D01*
X179855300Y-97844330D01*
X179855300Y-97687670D01*
X179824737Y-97534020D01*
X179764786Y-97389284D01*
X179677750Y-97259026D01*
X179566974Y-97148250D01*
X179436716Y-97061214D01*
X179291980Y-97001263D01*
X179138330Y-96970700D01*
X178981670Y-96970700D01*
X178828020Y-97001263D01*
X178683284Y-97061214D01*
X178553026Y-97148250D01*
X178442250Y-97259026D01*
X178355214Y-97389284D01*
X178295263Y-97534020D01*
X178264700Y-97687670D01*
X172749494Y-97687670D01*
X172354556Y-97292733D01*
X172340466Y-97275564D01*
X172271945Y-97219330D01*
X172193770Y-97177544D01*
X172124803Y-97156623D01*
X172144786Y-97126716D01*
X172204737Y-96981980D01*
X172235300Y-96828330D01*
X172235300Y-96671670D01*
X172204737Y-96518020D01*
X172144786Y-96373284D01*
X172057750Y-96243026D01*
X171946974Y-96132250D01*
X171816716Y-96045214D01*
X171671980Y-95985263D01*
X171518330Y-95954700D01*
X171361670Y-95954700D01*
X171208020Y-95985263D01*
X171063284Y-96045214D01*
X170933026Y-96132250D01*
X170822250Y-96243026D01*
X170735214Y-96373284D01*
X170675263Y-96518020D01*
X170644700Y-96671670D01*
X170644700Y-96828330D01*
X170675263Y-96981980D01*
X170735214Y-97126716D01*
X170747632Y-97145301D01*
X170381697Y-97145301D01*
X169900034Y-96663639D01*
X169900034Y-93676973D01*
X170223046Y-93353961D01*
X170121839Y-93505428D01*
X170009712Y-93776127D01*
X169952550Y-94063499D01*
X169952550Y-94356501D01*
X170009712Y-94643873D01*
X170121839Y-94914572D01*
X170284622Y-95158194D01*
X170491806Y-95365378D01*
X170735428Y-95528161D01*
X171006127Y-95640288D01*
X171293499Y-95697450D01*
X171586501Y-95697450D01*
X171873873Y-95640288D01*
X172144572Y-95528161D01*
X172388194Y-95365378D01*
X172595378Y-95158194D01*
X172758161Y-94914572D01*
X172870288Y-94643873D01*
X172927450Y-94356501D01*
X172927450Y-94063499D01*
X172870288Y-93776127D01*
X172758161Y-93505428D01*
X172595378Y-93261806D01*
X172388194Y-93054622D01*
X172144572Y-92891839D01*
X171873873Y-92779712D01*
X171586501Y-92722550D01*
X171293499Y-92722550D01*
X171006127Y-92779712D01*
X170735428Y-92891839D01*
X170583962Y-92993046D01*
X172150000Y-91427007D01*
X172150000Y-91577905D01*
X172147824Y-91600000D01*
X172150000Y-91622094D01*
X172150000Y-91622104D01*
X172156511Y-91688214D01*
X172181095Y-91769257D01*
X172182243Y-91773040D01*
X172224029Y-91851216D01*
X172258722Y-91893489D01*
X172280263Y-91919737D01*
X172297434Y-91933829D01*
X173300000Y-92936396D01*
X173300000Y-93068944D01*
X173326901Y-93204182D01*
X173379668Y-93331574D01*
X173456274Y-93446224D01*
X173553776Y-93543726D01*
X173668426Y-93620332D01*
X173795818Y-93673099D01*
X173931056Y-93700000D01*
X174068944Y-93700000D01*
X174204182Y-93673099D01*
X174331574Y-93620332D01*
X174446224Y-93543726D01*
X174543726Y-93446224D01*
X174620332Y-93331574D01*
X174673099Y-93204182D01*
X174700000Y-93068944D01*
X174700000Y-92931056D01*
X174673099Y-92795818D01*
X174620332Y-92668426D01*
X174543726Y-92553776D01*
X174446224Y-92456274D01*
X174331574Y-92379668D01*
X174204182Y-92326901D01*
X174068944Y-92300000D01*
X173936396Y-92300000D01*
X173050000Y-91413605D01*
X173050000Y-91234127D01*
X173784088Y-90500040D01*
X176742285Y-90500040D01*
X177694847Y-91452603D01*
X177708934Y-91469768D01*
X177726099Y-91483855D01*
X177726103Y-91483859D01*
X177777454Y-91526002D01*
X177855630Y-91567788D01*
X177940456Y-91593520D01*
X178006566Y-91600031D01*
X178006576Y-91600031D01*
X178028670Y-91602207D01*
X178050764Y-91600031D01*
X180249235Y-91600031D01*
X180271329Y-91602207D01*
X180293423Y-91600031D01*
X180293434Y-91600031D01*
X180359544Y-91593520D01*
X180444370Y-91567788D01*
X180522545Y-91526002D01*
X180591066Y-91469768D01*
X180605158Y-91452597D01*
X182007726Y-90050030D01*
X187213635Y-90050030D01*
X188916177Y-91752573D01*
X188930264Y-91769738D01*
X188947429Y-91783825D01*
X188947433Y-91783829D01*
X188998784Y-91825972D01*
X189076960Y-91867758D01*
X189161786Y-91893490D01*
X189227896Y-91900001D01*
X189227906Y-91900001D01*
X189250000Y-91902177D01*
X189272095Y-91900001D01*
X190337907Y-91900001D01*
X190360001Y-91902177D01*
X190382095Y-91900001D01*
X190382106Y-91900001D01*
X190448216Y-91893490D01*
X190533042Y-91867758D01*
X190611217Y-91825972D01*
X190679738Y-91769738D01*
X190693829Y-91752568D01*
X191202573Y-91243825D01*
X191219737Y-91229739D01*
X191233824Y-91212574D01*
X191233828Y-91212570D01*
X191275971Y-91161219D01*
X191317757Y-91083043D01*
X191324196Y-91061816D01*
X191343489Y-90998217D01*
X191350000Y-90932107D01*
X191350000Y-90932097D01*
X191351072Y-90921207D01*
X194200000Y-90921207D01*
X194200000Y-91078793D01*
X194230743Y-91233351D01*
X194291049Y-91378942D01*
X194378599Y-91509970D01*
X194490030Y-91621401D01*
X194621058Y-91708951D01*
X194766649Y-91769257D01*
X194921207Y-91800000D01*
X195078793Y-91800000D01*
X195233351Y-91769257D01*
X195378942Y-91708951D01*
X195509970Y-91621401D01*
X195537827Y-91593544D01*
X199834245Y-91593544D01*
X200006050Y-91840055D01*
X200343156Y-92002644D01*
X200705504Y-92096343D01*
X201079171Y-92117551D01*
X201449794Y-92065452D01*
X201803132Y-91942050D01*
X201993950Y-91840055D01*
X202165755Y-91593544D01*
X201000000Y-90427789D01*
X199834245Y-91593544D01*
X195537827Y-91593544D01*
X195621401Y-91509970D01*
X195708951Y-91378942D01*
X195769257Y-91233351D01*
X195800000Y-91078793D01*
X195800000Y-90921207D01*
X195769257Y-90766649D01*
X195708951Y-90621058D01*
X195621401Y-90490030D01*
X195509970Y-90378599D01*
X195378942Y-90291049D01*
X195374409Y-90289171D01*
X199092449Y-90289171D01*
X199144548Y-90659794D01*
X199267950Y-91013132D01*
X199369945Y-91203950D01*
X199616456Y-91375755D01*
X200782211Y-90210000D01*
X201217789Y-90210000D01*
X202383544Y-91375755D01*
X202630055Y-91203950D01*
X202792644Y-90866844D01*
X202886343Y-90504496D01*
X202907551Y-90130829D01*
X202855452Y-89760206D01*
X202732050Y-89406868D01*
X202630055Y-89216050D01*
X202383544Y-89044245D01*
X201217789Y-90210000D01*
X200782211Y-90210000D01*
X199616456Y-89044245D01*
X199369945Y-89216050D01*
X199207356Y-89553156D01*
X199113657Y-89915504D01*
X199092449Y-90289171D01*
X195374409Y-90289171D01*
X195233351Y-90230743D01*
X195078793Y-90200000D01*
X194921207Y-90200000D01*
X194766649Y-90230743D01*
X194621058Y-90291049D01*
X194490030Y-90378599D01*
X194378599Y-90490030D01*
X194291049Y-90621058D01*
X194230743Y-90766649D01*
X194200000Y-90921207D01*
X191351072Y-90921207D01*
X191352176Y-90910002D01*
X191350000Y-90887908D01*
X191350000Y-90386395D01*
X191986396Y-89750000D01*
X195777906Y-89750000D01*
X195800000Y-89752176D01*
X195822094Y-89750000D01*
X195822105Y-89750000D01*
X195888215Y-89743489D01*
X195973041Y-89717757D01*
X196051216Y-89675971D01*
X196119737Y-89619737D01*
X196133829Y-89602566D01*
X196909939Y-88826456D01*
X199834245Y-88826456D01*
X201000000Y-89992211D01*
X202165755Y-88826456D01*
X201993950Y-88579945D01*
X201656844Y-88417356D01*
X201294496Y-88323657D01*
X200920829Y-88302449D01*
X200550206Y-88354548D01*
X200196868Y-88477950D01*
X200006050Y-88579945D01*
X199834245Y-88826456D01*
X196909939Y-88826456D01*
X197802573Y-87933823D01*
X197819737Y-87919737D01*
X197833824Y-87902572D01*
X197833828Y-87902568D01*
X197875971Y-87851217D01*
X197917757Y-87773041D01*
X197923150Y-87755263D01*
X197943489Y-87688215D01*
X197950000Y-87622105D01*
X197950000Y-87622095D01*
X197952176Y-87600001D01*
X197950000Y-87577906D01*
X197950000Y-86161472D01*
X198009970Y-86121401D01*
X198121401Y-86009970D01*
X198208951Y-85878942D01*
X198269257Y-85733351D01*
X198300000Y-85578793D01*
X198300000Y-85421207D01*
X198269257Y-85266649D01*
X198208951Y-85121058D01*
X198121401Y-84990030D01*
X198009970Y-84878599D01*
X197878942Y-84791049D01*
X197741031Y-84733924D01*
X195628313Y-82621207D01*
X197200000Y-82621207D01*
X197200000Y-82778793D01*
X197230743Y-82933351D01*
X197291049Y-83078942D01*
X197378599Y-83209970D01*
X197490030Y-83321401D01*
X197621058Y-83408951D01*
X197766649Y-83469257D01*
X197921207Y-83500000D01*
X198078793Y-83500000D01*
X198233351Y-83469257D01*
X198378942Y-83408951D01*
X198509970Y-83321401D01*
X198621401Y-83209970D01*
X198628063Y-83200000D01*
X199198549Y-83200000D01*
X199198549Y-84290000D01*
X199204341Y-84348810D01*
X199221496Y-84405360D01*
X199249353Y-84457477D01*
X199286842Y-84503158D01*
X199332523Y-84540647D01*
X199384640Y-84568504D01*
X199441190Y-84585659D01*
X199500000Y-84591451D01*
X202500000Y-84591451D01*
X202558810Y-84585659D01*
X202615360Y-84568504D01*
X202667477Y-84540647D01*
X202713158Y-84503158D01*
X202750647Y-84457477D01*
X202778504Y-84405360D01*
X202795659Y-84348810D01*
X202801451Y-84290000D01*
X202801451Y-81290000D01*
X202795659Y-81231190D01*
X202778504Y-81174640D01*
X202750647Y-81122523D01*
X202713158Y-81076842D01*
X202667477Y-81039353D01*
X202615360Y-81011496D01*
X202558810Y-80994341D01*
X202500000Y-80988549D01*
X199500000Y-80988549D01*
X199441190Y-80994341D01*
X199384640Y-81011496D01*
X199332523Y-81039353D01*
X199286842Y-81076842D01*
X199249353Y-81122523D01*
X199221496Y-81174640D01*
X199204341Y-81231190D01*
X199198549Y-81290000D01*
X199198549Y-82200000D01*
X198628063Y-82200000D01*
X198621401Y-82190030D01*
X198509970Y-82078599D01*
X198378942Y-81991049D01*
X198233351Y-81930743D01*
X198078793Y-81900000D01*
X197921207Y-81900000D01*
X197766649Y-81930743D01*
X197621058Y-81991049D01*
X197490030Y-82078599D01*
X197378599Y-82190030D01*
X197291049Y-82321058D01*
X197230743Y-82466649D01*
X197200000Y-82621207D01*
X195628313Y-82621207D01*
X195600000Y-82592895D01*
X195600000Y-81989950D01*
X195643726Y-81946224D01*
X195720332Y-81831574D01*
X195773099Y-81704182D01*
X195800000Y-81568944D01*
X195800000Y-81431056D01*
X195773099Y-81295818D01*
X195720332Y-81168426D01*
X195643726Y-81053776D01*
X195546224Y-80956274D01*
X195431574Y-80879668D01*
X195304182Y-80826901D01*
X195168944Y-80800000D01*
X195031056Y-80800000D01*
X194895818Y-80826901D01*
X194768426Y-80879668D01*
X194653776Y-80956274D01*
X194556274Y-81053776D01*
X194479668Y-81168426D01*
X194426901Y-81295818D01*
X194400000Y-81431056D01*
X194400000Y-81568944D01*
X194426901Y-81704182D01*
X194479668Y-81831574D01*
X194556274Y-81946224D01*
X194600001Y-81989951D01*
X194600000Y-82775440D01*
X194597581Y-82800000D01*
X194600000Y-82824559D01*
X194607235Y-82898016D01*
X194635825Y-82992266D01*
X194682254Y-83079129D01*
X194744736Y-83155264D01*
X194763824Y-83170929D01*
X196768468Y-85175574D01*
X196730743Y-85266649D01*
X196700000Y-85421207D01*
X196700000Y-85578793D01*
X196730743Y-85733351D01*
X196791049Y-85878942D01*
X196878599Y-86009970D01*
X196950744Y-86082115D01*
X196957235Y-86148016D01*
X196985825Y-86242266D01*
X197032254Y-86329129D01*
X197050001Y-86350754D01*
X197050000Y-87413604D01*
X196529598Y-87934006D01*
X196543489Y-87888215D01*
X196550000Y-87822105D01*
X196550000Y-87822095D01*
X196552176Y-87800000D01*
X196550000Y-87777906D01*
X196550000Y-87761472D01*
X196609970Y-87721401D01*
X196721401Y-87609970D01*
X196808951Y-87478942D01*
X196869257Y-87333351D01*
X196900000Y-87178793D01*
X196900000Y-87021207D01*
X196869257Y-86866649D01*
X196808951Y-86721058D01*
X196721401Y-86590030D01*
X196609970Y-86478599D01*
X196478942Y-86391049D01*
X196333351Y-86330743D01*
X196178793Y-86300000D01*
X196021207Y-86300000D01*
X195866649Y-86330743D01*
X195721058Y-86391049D01*
X195590030Y-86478599D01*
X195478599Y-86590030D01*
X195391049Y-86721058D01*
X195330743Y-86866649D01*
X195300000Y-87021207D01*
X195300000Y-87178793D01*
X195330743Y-87333351D01*
X195391049Y-87478942D01*
X195478599Y-87609970D01*
X195566117Y-87697488D01*
X195113595Y-88150010D01*
X181429201Y-88150010D01*
X181407109Y-88147834D01*
X181385017Y-88150010D01*
X181385005Y-88150010D01*
X181318895Y-88156521D01*
X181234069Y-88182253D01*
X181183124Y-88209484D01*
X181155893Y-88224039D01*
X181104542Y-88266182D01*
X181104538Y-88266186D01*
X181087373Y-88280273D01*
X181073286Y-88297438D01*
X179670714Y-89700011D01*
X178629287Y-89700011D01*
X177676729Y-88747454D01*
X177662637Y-88730283D01*
X177594116Y-88674049D01*
X177515941Y-88632263D01*
X177431115Y-88606531D01*
X177365005Y-88600020D01*
X177364994Y-88600020D01*
X177342900Y-88597844D01*
X177320806Y-88600020D01*
X173205566Y-88600020D01*
X173183472Y-88597844D01*
X173161378Y-88600020D01*
X173161367Y-88600020D01*
X173095257Y-88606531D01*
X173010431Y-88632263D01*
X172932255Y-88674049D01*
X172880904Y-88716192D01*
X172880900Y-88716196D01*
X172863735Y-88730283D01*
X172849648Y-88747448D01*
X168647453Y-92949644D01*
X168630288Y-92963731D01*
X168616201Y-92980896D01*
X168616196Y-92980901D01*
X168574053Y-93032252D01*
X168532267Y-93110428D01*
X168506536Y-93195253D01*
X168497848Y-93283468D01*
X168400009Y-93283468D01*
X168400010Y-93055637D01*
X172955649Y-88500000D01*
X177892895Y-88500000D01*
X178300000Y-88907106D01*
X178300000Y-88968944D01*
X178326901Y-89104182D01*
X178379668Y-89231574D01*
X178456274Y-89346224D01*
X178553776Y-89443726D01*
X178668426Y-89520332D01*
X178795818Y-89573099D01*
X178931056Y-89600000D01*
X179068944Y-89600000D01*
X179204182Y-89573099D01*
X179331574Y-89520332D01*
X179446224Y-89443726D01*
X179543726Y-89346224D01*
X179620332Y-89231574D01*
X179673099Y-89104182D01*
X179700000Y-88968944D01*
X179700000Y-88831056D01*
X179673099Y-88695818D01*
X179620332Y-88568426D01*
X179543726Y-88453776D01*
X179446224Y-88356274D01*
X179331574Y-88279668D01*
X179204182Y-88226901D01*
X179068944Y-88200000D01*
X179007106Y-88200000D01*
X178707105Y-87900000D01*
X188075440Y-87900000D01*
X188100000Y-87902419D01*
X188124560Y-87900000D01*
X188198017Y-87892765D01*
X188292267Y-87864175D01*
X188379129Y-87817746D01*
X188455264Y-87755264D01*
X188470929Y-87736176D01*
X188707105Y-87500000D01*
X188768944Y-87500000D01*
X188904182Y-87473099D01*
X189031574Y-87420332D01*
X189146224Y-87343726D01*
X189243726Y-87246224D01*
X189320332Y-87131574D01*
X189373099Y-87004182D01*
X189400000Y-86868944D01*
X189400000Y-86731056D01*
X189373099Y-86595818D01*
X189320332Y-86468426D01*
X189243726Y-86353776D01*
X189146224Y-86256274D01*
X189031574Y-86179668D01*
X188904182Y-86126901D01*
X188768944Y-86100000D01*
X188631056Y-86100000D01*
X188495818Y-86126901D01*
X188368426Y-86179668D01*
X188253776Y-86256274D01*
X188156274Y-86353776D01*
X188079668Y-86468426D01*
X188026901Y-86595818D01*
X188000000Y-86731056D01*
X188000000Y-86792895D01*
X187892895Y-86900000D01*
X186007105Y-86900000D01*
X186970919Y-85936187D01*
X186970923Y-85936182D01*
X188307107Y-84600000D01*
X190992895Y-84600000D01*
X192700000Y-86307106D01*
X192700001Y-86710049D01*
X192656274Y-86753776D01*
X192579668Y-86868426D01*
X192526901Y-86995818D01*
X192500000Y-87131056D01*
X192500000Y-87268944D01*
X192526901Y-87404182D01*
X192579668Y-87531574D01*
X192656274Y-87646224D01*
X192753776Y-87743726D01*
X192868426Y-87820332D01*
X192995818Y-87873099D01*
X193131056Y-87900000D01*
X193268944Y-87900000D01*
X193404182Y-87873099D01*
X193531574Y-87820332D01*
X193646224Y-87743726D01*
X193743726Y-87646224D01*
X193820332Y-87531574D01*
X193873099Y-87404182D01*
X193900000Y-87268944D01*
X193900000Y-87131056D01*
X193873099Y-86995818D01*
X193820332Y-86868426D01*
X193743726Y-86753776D01*
X193700000Y-86710050D01*
X193700000Y-86124557D01*
X193702419Y-86099999D01*
X193694317Y-86017745D01*
X193692765Y-86001983D01*
X193664175Y-85907733D01*
X193617746Y-85820871D01*
X193555264Y-85744736D01*
X193536181Y-85729075D01*
X191570929Y-83763824D01*
X191555264Y-83744736D01*
X191479129Y-83682254D01*
X191392267Y-83635825D01*
X191298017Y-83607235D01*
X191224560Y-83600000D01*
X191200000Y-83597581D01*
X191175440Y-83600000D01*
X188124549Y-83600000D01*
X188099999Y-83597582D01*
X188075449Y-83600000D01*
X188075440Y-83600000D01*
X188001983Y-83607235D01*
X187907733Y-83635825D01*
X187820871Y-83682254D01*
X187744736Y-83744736D01*
X187729080Y-83763813D01*
X186263818Y-85229077D01*
X186263813Y-85229081D01*
X185292895Y-86200000D01*
X180124557Y-86200000D01*
X180099999Y-86197581D01*
X180075442Y-86200000D01*
X180075440Y-86200000D01*
X180001983Y-86207235D01*
X179907733Y-86235825D01*
X179820871Y-86282254D01*
X179799246Y-86300001D01*
X179000754Y-86300001D01*
X178979129Y-86282254D01*
X178892267Y-86235825D01*
X178798017Y-86207235D01*
X178724560Y-86200000D01*
X172224549Y-86200000D01*
X172199999Y-86197582D01*
X172175449Y-86200000D01*
X172175440Y-86200000D01*
X172101983Y-86207235D01*
X172007733Y-86235825D01*
X171920871Y-86282254D01*
X171844736Y-86344736D01*
X171829080Y-86363813D01*
X166163819Y-92029076D01*
X166144737Y-92044736D01*
X166082255Y-92120871D01*
X166074262Y-92135825D01*
X166035826Y-92207733D01*
X166007235Y-92301983D01*
X165997581Y-92400000D01*
X166000001Y-92424570D01*
X166000000Y-98192893D01*
X165292895Y-98900000D01*
X161524560Y-98900000D01*
X161500000Y-98897581D01*
X161475440Y-98900000D01*
X161401983Y-98907235D01*
X161307733Y-98935825D01*
X161220871Y-98982254D01*
X161144736Y-99044736D01*
X161129079Y-99063814D01*
X160663819Y-99529076D01*
X160644737Y-99544736D01*
X160582255Y-99620871D01*
X160551116Y-99679128D01*
X160535826Y-99707733D01*
X160507235Y-99801983D01*
X160497581Y-99900000D01*
X160500001Y-99924570D01*
X160500000Y-101192894D01*
X160392894Y-101300000D01*
X160331056Y-101300000D01*
X160195818Y-101326901D01*
X160068426Y-101379668D01*
X159953776Y-101456274D01*
X159856274Y-101553776D01*
X159779668Y-101668426D01*
X159726901Y-101795818D01*
X159700000Y-101931056D01*
X158528562Y-101931056D01*
X159218523Y-101241096D01*
X159230921Y-101230921D01*
X159271535Y-101181434D01*
X159301713Y-101124974D01*
X159320297Y-101063711D01*
X159325000Y-101015961D01*
X159325000Y-101015954D01*
X159326571Y-101000001D01*
X159325000Y-100984048D01*
X159325000Y-83667138D01*
X174450651Y-83667138D01*
X174500786Y-83811471D01*
X174666766Y-83873762D01*
X174841710Y-83902475D01*
X175018894Y-83896505D01*
X175191509Y-83856084D01*
X175299214Y-83811471D01*
X175349349Y-83667138D01*
X174900000Y-83217789D01*
X174450651Y-83667138D01*
X159325000Y-83667138D01*
X159325000Y-82941710D01*
X173997525Y-82941710D01*
X174003495Y-83118894D01*
X174043916Y-83291509D01*
X174088529Y-83399214D01*
X174232862Y-83449349D01*
X174682211Y-83000000D01*
X175117789Y-83000000D01*
X175567138Y-83449349D01*
X175711471Y-83399214D01*
X175773762Y-83233234D01*
X175802475Y-83058290D01*
X175796505Y-82881106D01*
X175756084Y-82708491D01*
X175711471Y-82600786D01*
X175567138Y-82550651D01*
X175117789Y-83000000D01*
X174682211Y-83000000D01*
X174232862Y-82550651D01*
X174088529Y-82600786D01*
X174026238Y-82766766D01*
X173997525Y-82941710D01*
X159325000Y-82941710D01*
X159325000Y-82332862D01*
X174450651Y-82332862D01*
X174900000Y-82782211D01*
X175349349Y-82332862D01*
X175299214Y-82188529D01*
X175133234Y-82126238D01*
X174958290Y-82097525D01*
X174781106Y-82103495D01*
X174608491Y-82143916D01*
X174500786Y-82188529D01*
X174450651Y-82332862D01*
X159325000Y-82332862D01*
X159325000Y-78562866D01*
X160850000Y-78562866D01*
X160850000Y-78937134D01*
X160923016Y-79304209D01*
X161066242Y-79649987D01*
X161274174Y-79961179D01*
X161538821Y-80225826D01*
X161850013Y-80433758D01*
X162195791Y-80576984D01*
X162562866Y-80650000D01*
X162937134Y-80650000D01*
X163304209Y-80576984D01*
X163649987Y-80433758D01*
X163961179Y-80225826D01*
X164225826Y-79961179D01*
X164433758Y-79649987D01*
X164576984Y-79304209D01*
X164650000Y-78937134D01*
X164650000Y-78562866D01*
X164576984Y-78195791D01*
X164516596Y-78050000D01*
X166458549Y-78050000D01*
X166458549Y-79450000D01*
X166464341Y-79508810D01*
X166481496Y-79565360D01*
X166509353Y-79617477D01*
X166546842Y-79663158D01*
X166592523Y-79700647D01*
X166644640Y-79728504D01*
X166701190Y-79745659D01*
X166760000Y-79751451D01*
X168160000Y-79751451D01*
X168218810Y-79745659D01*
X168275360Y-79728504D01*
X168327477Y-79700647D01*
X168373158Y-79663158D01*
X168410647Y-79617477D01*
X168438504Y-79565360D01*
X168439712Y-79561375D01*
X171946414Y-79561375D01*
X172021234Y-79726021D01*
X172221615Y-79808473D01*
X172434230Y-79850249D01*
X172650910Y-79849743D01*
X172863328Y-79806974D01*
X173058766Y-79726021D01*
X173133586Y-79561375D01*
X172540000Y-78967789D01*
X171946414Y-79561375D01*
X168439712Y-79561375D01*
X168455659Y-79508810D01*
X168461451Y-79450000D01*
X168461451Y-78644230D01*
X171439751Y-78644230D01*
X171440257Y-78860910D01*
X171483026Y-79073328D01*
X171563979Y-79268766D01*
X171728625Y-79343586D01*
X172322211Y-78750000D01*
X172757789Y-78750000D01*
X173351375Y-79343586D01*
X173516021Y-79268766D01*
X173598473Y-79068385D01*
X173640249Y-78855770D01*
X173639743Y-78639090D01*
X173596974Y-78426672D01*
X173516021Y-78231234D01*
X173351375Y-78156414D01*
X172757789Y-78750000D01*
X172322211Y-78750000D01*
X171728625Y-78156414D01*
X171563979Y-78231234D01*
X171481527Y-78431615D01*
X171439751Y-78644230D01*
X168461451Y-78644230D01*
X168461451Y-78050000D01*
X168455659Y-77991190D01*
X168439713Y-77938625D01*
X171946414Y-77938625D01*
X172540000Y-78532211D01*
X173022211Y-78050000D01*
X173958549Y-78050000D01*
X173958549Y-79450000D01*
X173964341Y-79508810D01*
X173981496Y-79565360D01*
X174009353Y-79617477D01*
X174046842Y-79663158D01*
X174092523Y-79700647D01*
X174144640Y-79728504D01*
X174201190Y-79745659D01*
X174260000Y-79751451D01*
X175660000Y-79751451D01*
X175718810Y-79745659D01*
X175775360Y-79728504D01*
X175827477Y-79700647D01*
X175873158Y-79663158D01*
X175910647Y-79617477D01*
X175938504Y-79565360D01*
X175939712Y-79561375D01*
X179446414Y-79561375D01*
X179521234Y-79726021D01*
X179721615Y-79808473D01*
X179934230Y-79850249D01*
X180150910Y-79849743D01*
X180363328Y-79806974D01*
X180558766Y-79726021D01*
X180633586Y-79561375D01*
X180040000Y-78967789D01*
X179446414Y-79561375D01*
X175939712Y-79561375D01*
X175955659Y-79508810D01*
X175961451Y-79450000D01*
X175961451Y-78644230D01*
X178939751Y-78644230D01*
X178940257Y-78860910D01*
X178983026Y-79073328D01*
X179063979Y-79268766D01*
X179228625Y-79343586D01*
X179822211Y-78750000D01*
X180257789Y-78750000D01*
X180851375Y-79343586D01*
X181016021Y-79268766D01*
X181098473Y-79068385D01*
X181140249Y-78855770D01*
X181139743Y-78639090D01*
X181096974Y-78426672D01*
X181016021Y-78231234D01*
X180851375Y-78156414D01*
X180257789Y-78750000D01*
X179822211Y-78750000D01*
X179228625Y-78156414D01*
X179063979Y-78231234D01*
X178981527Y-78431615D01*
X178939751Y-78644230D01*
X175961451Y-78644230D01*
X175961451Y-78050000D01*
X175955659Y-77991190D01*
X175939713Y-77938625D01*
X179446414Y-77938625D01*
X180040000Y-78532211D01*
X180522211Y-78050000D01*
X181458549Y-78050000D01*
X181458549Y-79450000D01*
X181464341Y-79508810D01*
X181481496Y-79565360D01*
X181509353Y-79617477D01*
X181546842Y-79663158D01*
X181592523Y-79700647D01*
X181644640Y-79728504D01*
X181701190Y-79745659D01*
X181760000Y-79751451D01*
X183160000Y-79751451D01*
X183218810Y-79745659D01*
X183275360Y-79728504D01*
X183327477Y-79700647D01*
X183373158Y-79663158D01*
X183410647Y-79617477D01*
X183438504Y-79565360D01*
X183439712Y-79561375D01*
X186946414Y-79561375D01*
X187021234Y-79726021D01*
X187221615Y-79808473D01*
X187434230Y-79850249D01*
X187650910Y-79849743D01*
X187863328Y-79806974D01*
X188058766Y-79726021D01*
X188133586Y-79561375D01*
X187540000Y-78967789D01*
X186946414Y-79561375D01*
X183439712Y-79561375D01*
X183455659Y-79508810D01*
X183461451Y-79450000D01*
X183461451Y-79200000D01*
X183671937Y-79200000D01*
X183678599Y-79209970D01*
X183790030Y-79321401D01*
X183921058Y-79408951D01*
X184066649Y-79469257D01*
X184221207Y-79500000D01*
X184378793Y-79500000D01*
X184533351Y-79469257D01*
X184678942Y-79408951D01*
X184809970Y-79321401D01*
X184921401Y-79209970D01*
X185008951Y-79078942D01*
X185069257Y-78933351D01*
X185100000Y-78778793D01*
X185100000Y-78644230D01*
X186439751Y-78644230D01*
X186440257Y-78860910D01*
X186483026Y-79073328D01*
X186563979Y-79268766D01*
X186728625Y-79343586D01*
X187322211Y-78750000D01*
X187757789Y-78750000D01*
X188351375Y-79343586D01*
X188516021Y-79268766D01*
X188598473Y-79068385D01*
X188640249Y-78855770D01*
X188639743Y-78639090D01*
X188596974Y-78426672D01*
X188516021Y-78231234D01*
X188351375Y-78156414D01*
X187757789Y-78750000D01*
X187322211Y-78750000D01*
X186728625Y-78156414D01*
X186563979Y-78231234D01*
X186481527Y-78431615D01*
X186439751Y-78644230D01*
X185100000Y-78644230D01*
X185100000Y-78621207D01*
X185069257Y-78466649D01*
X185008951Y-78321058D01*
X184921401Y-78190030D01*
X184809970Y-78078599D01*
X184678942Y-77991049D01*
X184552380Y-77938625D01*
X186946414Y-77938625D01*
X187540000Y-78532211D01*
X188022211Y-78050000D01*
X188958549Y-78050000D01*
X188958549Y-79450000D01*
X188964341Y-79508810D01*
X188981496Y-79565360D01*
X189009353Y-79617477D01*
X189046842Y-79663158D01*
X189092523Y-79700647D01*
X189144640Y-79728504D01*
X189201190Y-79745659D01*
X189260000Y-79751451D01*
X190660000Y-79751451D01*
X190718810Y-79745659D01*
X190775360Y-79728504D01*
X190827477Y-79700647D01*
X190873158Y-79663158D01*
X190910647Y-79617477D01*
X190938504Y-79565360D01*
X190939712Y-79561375D01*
X194446414Y-79561375D01*
X194521234Y-79726021D01*
X194721615Y-79808473D01*
X194934230Y-79850249D01*
X195150910Y-79849743D01*
X195363328Y-79806974D01*
X195558766Y-79726021D01*
X195633586Y-79561375D01*
X195040000Y-78967789D01*
X194446414Y-79561375D01*
X190939712Y-79561375D01*
X190955659Y-79508810D01*
X190961451Y-79450000D01*
X190961451Y-78644230D01*
X193939751Y-78644230D01*
X193940257Y-78860910D01*
X193983026Y-79073328D01*
X194063979Y-79268766D01*
X194228625Y-79343586D01*
X194822211Y-78750000D01*
X195257789Y-78750000D01*
X195851375Y-79343586D01*
X196016021Y-79268766D01*
X196088120Y-79093544D01*
X199834245Y-79093544D01*
X200006050Y-79340055D01*
X200343156Y-79502644D01*
X200705504Y-79596343D01*
X201079171Y-79617551D01*
X201449794Y-79565452D01*
X201803132Y-79442050D01*
X201993950Y-79340055D01*
X202165755Y-79093544D01*
X201000000Y-77927789D01*
X199834245Y-79093544D01*
X196088120Y-79093544D01*
X196098473Y-79068385D01*
X196140249Y-78855770D01*
X196139743Y-78639090D01*
X196096974Y-78426672D01*
X196016021Y-78231234D01*
X195851375Y-78156414D01*
X195257789Y-78750000D01*
X194822211Y-78750000D01*
X194228625Y-78156414D01*
X194063979Y-78231234D01*
X193981527Y-78431615D01*
X193939751Y-78644230D01*
X190961451Y-78644230D01*
X190961451Y-78050000D01*
X190955659Y-77991190D01*
X190939713Y-77938625D01*
X194446414Y-77938625D01*
X195040000Y-78532211D01*
X195633586Y-77938625D01*
X195565670Y-77789171D01*
X199092449Y-77789171D01*
X199144548Y-78159794D01*
X199267950Y-78513132D01*
X199369945Y-78703950D01*
X199616456Y-78875755D01*
X200782211Y-77710000D01*
X201217789Y-77710000D01*
X202383544Y-78875755D01*
X202630055Y-78703950D01*
X202792644Y-78366844D01*
X202886343Y-78004496D01*
X202907551Y-77630829D01*
X202855452Y-77260206D01*
X202732050Y-76906868D01*
X202630055Y-76716050D01*
X202383544Y-76544245D01*
X201217789Y-77710000D01*
X200782211Y-77710000D01*
X199616456Y-76544245D01*
X199369945Y-76716050D01*
X199207356Y-77053156D01*
X199113657Y-77415504D01*
X199092449Y-77789171D01*
X195565670Y-77789171D01*
X195558766Y-77773979D01*
X195358385Y-77691527D01*
X195145770Y-77649751D01*
X194929090Y-77650257D01*
X194716672Y-77693026D01*
X194521234Y-77773979D01*
X194446414Y-77938625D01*
X190939713Y-77938625D01*
X190938504Y-77934640D01*
X190910647Y-77882523D01*
X190873158Y-77836842D01*
X190827477Y-77799353D01*
X190775360Y-77771496D01*
X190718810Y-77754341D01*
X190660000Y-77748549D01*
X189260000Y-77748549D01*
X189201190Y-77754341D01*
X189144640Y-77771496D01*
X189092523Y-77799353D01*
X189046842Y-77836842D01*
X189009353Y-77882523D01*
X188981496Y-77934640D01*
X188964341Y-77991190D01*
X188958549Y-78050000D01*
X188022211Y-78050000D01*
X188133586Y-77938625D01*
X188058766Y-77773979D01*
X187858385Y-77691527D01*
X187645770Y-77649751D01*
X187429090Y-77650257D01*
X187216672Y-77693026D01*
X187021234Y-77773979D01*
X186946414Y-77938625D01*
X184552380Y-77938625D01*
X184533351Y-77930743D01*
X184378793Y-77900000D01*
X184221207Y-77900000D01*
X184066649Y-77930743D01*
X183921058Y-77991049D01*
X183790030Y-78078599D01*
X183678599Y-78190030D01*
X183671937Y-78200000D01*
X183461451Y-78200000D01*
X183461451Y-78050000D01*
X183455659Y-77991190D01*
X183438504Y-77934640D01*
X183410647Y-77882523D01*
X183373158Y-77836842D01*
X183327477Y-77799353D01*
X183275360Y-77771496D01*
X183218810Y-77754341D01*
X183160000Y-77748549D01*
X181760000Y-77748549D01*
X181701190Y-77754341D01*
X181644640Y-77771496D01*
X181592523Y-77799353D01*
X181546842Y-77836842D01*
X181509353Y-77882523D01*
X181481496Y-77934640D01*
X181464341Y-77991190D01*
X181458549Y-78050000D01*
X180522211Y-78050000D01*
X180633586Y-77938625D01*
X180558766Y-77773979D01*
X180358385Y-77691527D01*
X180145770Y-77649751D01*
X179929090Y-77650257D01*
X179716672Y-77693026D01*
X179521234Y-77773979D01*
X179446414Y-77938625D01*
X175939713Y-77938625D01*
X175938504Y-77934640D01*
X175910647Y-77882523D01*
X175873158Y-77836842D01*
X175827477Y-77799353D01*
X175775360Y-77771496D01*
X175718810Y-77754341D01*
X175660000Y-77748549D01*
X174260000Y-77748549D01*
X174201190Y-77754341D01*
X174144640Y-77771496D01*
X174092523Y-77799353D01*
X174046842Y-77836842D01*
X174009353Y-77882523D01*
X173981496Y-77934640D01*
X173964341Y-77991190D01*
X173958549Y-78050000D01*
X173022211Y-78050000D01*
X173133586Y-77938625D01*
X173058766Y-77773979D01*
X172858385Y-77691527D01*
X172645770Y-77649751D01*
X172429090Y-77650257D01*
X172216672Y-77693026D01*
X172021234Y-77773979D01*
X171946414Y-77938625D01*
X168439713Y-77938625D01*
X168438504Y-77934640D01*
X168410647Y-77882523D01*
X168373158Y-77836842D01*
X168327477Y-77799353D01*
X168275360Y-77771496D01*
X168218810Y-77754341D01*
X168160000Y-77748549D01*
X166760000Y-77748549D01*
X166701190Y-77754341D01*
X166644640Y-77771496D01*
X166592523Y-77799353D01*
X166546842Y-77836842D01*
X166509353Y-77882523D01*
X166481496Y-77934640D01*
X166464341Y-77991190D01*
X166458549Y-78050000D01*
X164516596Y-78050000D01*
X164433758Y-77850013D01*
X164225826Y-77538821D01*
X163961179Y-77274174D01*
X163649987Y-77066242D01*
X163304209Y-76923016D01*
X162937134Y-76850000D01*
X162562866Y-76850000D01*
X162195791Y-76923016D01*
X161850013Y-77066242D01*
X161538821Y-77274174D01*
X161274174Y-77538821D01*
X161066242Y-77850013D01*
X160923016Y-78195791D01*
X160850000Y-78562866D01*
X159325000Y-78562866D01*
X159325000Y-77134618D01*
X160348109Y-76111509D01*
X169000000Y-76111509D01*
X169000000Y-76308491D01*
X169038429Y-76501689D01*
X169113811Y-76683678D01*
X169223249Y-76847463D01*
X169362537Y-76986751D01*
X169526322Y-77096189D01*
X169708311Y-77171571D01*
X169901509Y-77210000D01*
X170098491Y-77210000D01*
X170291689Y-77171571D01*
X170473678Y-77096189D01*
X170637463Y-76986751D01*
X170776751Y-76847463D01*
X170875283Y-76700000D01*
X171071937Y-76700000D01*
X171078599Y-76709970D01*
X171190030Y-76821401D01*
X171321058Y-76908951D01*
X171466649Y-76969257D01*
X171621207Y-77000000D01*
X171778793Y-77000000D01*
X171933351Y-76969257D01*
X172078942Y-76908951D01*
X172209970Y-76821401D01*
X172321401Y-76709970D01*
X172408951Y-76578942D01*
X172469257Y-76433351D01*
X172500000Y-76278793D01*
X172500000Y-76121207D01*
X172498071Y-76111509D01*
X176500000Y-76111509D01*
X176500000Y-76308491D01*
X176538429Y-76501689D01*
X176613811Y-76683678D01*
X176723249Y-76847463D01*
X176862537Y-76986751D01*
X177026322Y-77096189D01*
X177208311Y-77171571D01*
X177401509Y-77210000D01*
X177598491Y-77210000D01*
X177791689Y-77171571D01*
X177973678Y-77096189D01*
X178137463Y-76986751D01*
X178276751Y-76847463D01*
X178368601Y-76710000D01*
X178678629Y-76710000D01*
X178790030Y-76821401D01*
X178921058Y-76908951D01*
X179066649Y-76969257D01*
X179221207Y-77000000D01*
X179378793Y-77000000D01*
X179533351Y-76969257D01*
X179678942Y-76908951D01*
X179809970Y-76821401D01*
X179921401Y-76709970D01*
X180008951Y-76578942D01*
X180069257Y-76433351D01*
X180100000Y-76278793D01*
X180100000Y-76121207D01*
X180098071Y-76111509D01*
X184000000Y-76111509D01*
X184000000Y-76308491D01*
X184038429Y-76501689D01*
X184113811Y-76683678D01*
X184223249Y-76847463D01*
X184362537Y-76986751D01*
X184526322Y-77096189D01*
X184708311Y-77171571D01*
X184901509Y-77210000D01*
X185098491Y-77210000D01*
X185291689Y-77171571D01*
X185473678Y-77096189D01*
X185637463Y-76986751D01*
X185776751Y-76847463D01*
X185808465Y-76800000D01*
X186171937Y-76800000D01*
X186178599Y-76809970D01*
X186290030Y-76921401D01*
X186421058Y-77008951D01*
X186566649Y-77069257D01*
X186721207Y-77100000D01*
X186878793Y-77100000D01*
X187033351Y-77069257D01*
X187178942Y-77008951D01*
X187309970Y-76921401D01*
X187421401Y-76809970D01*
X187508951Y-76678942D01*
X187569257Y-76533351D01*
X187600000Y-76378793D01*
X187600000Y-76221207D01*
X187578181Y-76111509D01*
X191500000Y-76111509D01*
X191500000Y-76308491D01*
X191538429Y-76501689D01*
X191613811Y-76683678D01*
X191723249Y-76847463D01*
X191862537Y-76986751D01*
X192026322Y-77096189D01*
X192208311Y-77171571D01*
X192401509Y-77210000D01*
X192598491Y-77210000D01*
X192791689Y-77171571D01*
X192973678Y-77096189D01*
X193137463Y-76986751D01*
X193276751Y-76847463D01*
X193368601Y-76710000D01*
X193578629Y-76710000D01*
X193690030Y-76821401D01*
X193821058Y-76908951D01*
X193966649Y-76969257D01*
X194121207Y-77000000D01*
X194278793Y-77000000D01*
X194433351Y-76969257D01*
X194578942Y-76908951D01*
X194709970Y-76821401D01*
X194821401Y-76709970D01*
X194908951Y-76578942D01*
X194969257Y-76433351D01*
X194990519Y-76326456D01*
X199834245Y-76326456D01*
X201000000Y-77492211D01*
X202165755Y-76326456D01*
X201993950Y-76079945D01*
X201656844Y-75917356D01*
X201294496Y-75823657D01*
X200920829Y-75802449D01*
X200550206Y-75854548D01*
X200196868Y-75977950D01*
X200006050Y-76079945D01*
X199834245Y-76326456D01*
X194990519Y-76326456D01*
X195000000Y-76278793D01*
X195000000Y-76121207D01*
X194969257Y-75966649D01*
X194908951Y-75821058D01*
X194821401Y-75690030D01*
X194709970Y-75578599D01*
X194578942Y-75491049D01*
X194433351Y-75430743D01*
X194278793Y-75400000D01*
X194121207Y-75400000D01*
X193966649Y-75430743D01*
X193821058Y-75491049D01*
X193690030Y-75578599D01*
X193578599Y-75690030D01*
X193565255Y-75710000D01*
X193368601Y-75710000D01*
X193276751Y-75572537D01*
X193137463Y-75433249D01*
X192973678Y-75323811D01*
X192791689Y-75248429D01*
X192598491Y-75210000D01*
X192401509Y-75210000D01*
X192208311Y-75248429D01*
X192026322Y-75323811D01*
X191862537Y-75433249D01*
X191723249Y-75572537D01*
X191613811Y-75736322D01*
X191538429Y-75918311D01*
X191500000Y-76111509D01*
X187578181Y-76111509D01*
X187569257Y-76066649D01*
X187508951Y-75921058D01*
X187421401Y-75790030D01*
X187309970Y-75678599D01*
X187178942Y-75591049D01*
X187033351Y-75530743D01*
X186878793Y-75500000D01*
X186721207Y-75500000D01*
X186566649Y-75530743D01*
X186421058Y-75591049D01*
X186290030Y-75678599D01*
X186178599Y-75790030D01*
X186171937Y-75800000D01*
X185912565Y-75800000D01*
X185886189Y-75736322D01*
X185776751Y-75572537D01*
X185637463Y-75433249D01*
X185473678Y-75323811D01*
X185291689Y-75248429D01*
X185098491Y-75210000D01*
X184901509Y-75210000D01*
X184708311Y-75248429D01*
X184526322Y-75323811D01*
X184362537Y-75433249D01*
X184223249Y-75572537D01*
X184113811Y-75736322D01*
X184038429Y-75918311D01*
X184000000Y-76111509D01*
X180098071Y-76111509D01*
X180069257Y-75966649D01*
X180008951Y-75821058D01*
X179921401Y-75690030D01*
X179809970Y-75578599D01*
X179678942Y-75491049D01*
X179533351Y-75430743D01*
X179378793Y-75400000D01*
X179221207Y-75400000D01*
X179066649Y-75430743D01*
X178921058Y-75491049D01*
X178790030Y-75578599D01*
X178678599Y-75690030D01*
X178665255Y-75710000D01*
X178368601Y-75710000D01*
X178276751Y-75572537D01*
X178137463Y-75433249D01*
X177973678Y-75323811D01*
X177791689Y-75248429D01*
X177598491Y-75210000D01*
X177401509Y-75210000D01*
X177208311Y-75248429D01*
X177026322Y-75323811D01*
X176862537Y-75433249D01*
X176723249Y-75572537D01*
X176613811Y-75736322D01*
X176538429Y-75918311D01*
X176500000Y-76111509D01*
X172498071Y-76111509D01*
X172469257Y-75966649D01*
X172408951Y-75821058D01*
X172321401Y-75690030D01*
X172209970Y-75578599D01*
X172078942Y-75491049D01*
X171933351Y-75430743D01*
X171778793Y-75400000D01*
X171621207Y-75400000D01*
X171466649Y-75430743D01*
X171321058Y-75491049D01*
X171190030Y-75578599D01*
X171078599Y-75690030D01*
X171071937Y-75700000D01*
X170861919Y-75700000D01*
X170776751Y-75572537D01*
X170637463Y-75433249D01*
X170473678Y-75323811D01*
X170291689Y-75248429D01*
X170098491Y-75210000D01*
X169901509Y-75210000D01*
X169708311Y-75248429D01*
X169526322Y-75323811D01*
X169362537Y-75433249D01*
X169223249Y-75572537D01*
X169113811Y-75736322D01*
X169038429Y-75918311D01*
X169000000Y-76111509D01*
X160348109Y-76111509D01*
X161134619Y-75325000D01*
X164484047Y-75325000D01*
X164500000Y-75326571D01*
X164515953Y-75325000D01*
X164515961Y-75325000D01*
X164563711Y-75320297D01*
X164624974Y-75301713D01*
X164681434Y-75271535D01*
X164730921Y-75230921D01*
X164741101Y-75218517D01*
X166134619Y-73825000D01*
X194365382Y-73825000D01*
X195758904Y-75218523D01*
G37*
G04 #@! TD.AperFunction*
X173731931Y-106485858D02*
X173717789Y-106500000D01*
X173731931Y-106514142D01*
X173572073Y-106674000D01*
X173427927Y-106674000D01*
X173268069Y-106514142D01*
X173282211Y-106500000D01*
X173268069Y-106485858D01*
X173427927Y-106326000D01*
X173572073Y-106326000D01*
X173731931Y-106485858D01*
X173731931Y-106485858D02*
X173572073Y-106326000D01*
G04 #@! TA.AperFunction,Conductor*
G36*
X173731931Y-106485858D02*
G01*
X173717789Y-106500000D01*
X173731931Y-106514142D01*
X173572073Y-106674000D01*
X173427927Y-106674000D01*
X173268069Y-106514142D01*
X173282211Y-106500000D01*
X173268069Y-106485858D01*
X173427927Y-106326000D01*
X173572073Y-106326000D01*
X173731931Y-106485858D01*
G37*
G04 #@! TD.AperFunction*
X174831931Y-106485858D02*
X174817789Y-106500000D01*
X174831931Y-106514142D01*
X174692073Y-106654000D01*
X174507927Y-106654000D01*
X174368069Y-106514142D01*
X174382211Y-106500000D01*
X174368069Y-106485858D01*
X174507927Y-106346000D01*
X174692073Y-106346000D01*
X174831931Y-106485858D01*
X174831931Y-106485858D02*
X174692073Y-106346000D01*
G04 #@! TA.AperFunction,Conductor*
G36*
X174831931Y-106485858D02*
G01*
X174817789Y-106500000D01*
X174831931Y-106514142D01*
X174692073Y-106654000D01*
X174507927Y-106654000D01*
X174368069Y-106514142D01*
X174382211Y-106500000D01*
X174368069Y-106485858D01*
X174507927Y-106346000D01*
X174692073Y-106346000D01*
X174831931Y-106485858D01*
G37*
G04 #@! TD.AperFunction*
X172631931Y-106485858D02*
X172617789Y-106500000D01*
X172631931Y-106514142D01*
X172492073Y-106654000D01*
X172307927Y-106654000D01*
X172168069Y-106514142D01*
X172182211Y-106500000D01*
X172168069Y-106485858D01*
X172307927Y-106346000D01*
X172492073Y-106346000D01*
X172631931Y-106485858D01*
X172631931Y-106485858D02*
X172492073Y-106346000D01*
G04 #@! TA.AperFunction,Conductor*
G36*
X172631931Y-106485858D02*
G01*
X172617789Y-106500000D01*
X172631931Y-106514142D01*
X172492073Y-106654000D01*
X172307927Y-106654000D01*
X172168069Y-106514142D01*
X172182211Y-106500000D01*
X172168069Y-106485858D01*
X172307927Y-106346000D01*
X172492073Y-106346000D01*
X172631931Y-106485858D01*
G37*
G04 #@! TD.AperFunction*
G04 #@! TD*
M02*
