G04 #@! TF.GenerationSoftware,KiCad,Pcbnew,6.0.9-8da3e8f707~116~ubuntu20.04.1*
G04 #@! TF.CreationDate,2023-04-19T18:18:50+00:00*
G04 #@! TF.ProjectId,LEC032002,4c454330-3332-4303-9032-2e6b69636164,rev?*
G04 #@! TF.SameCoordinates,Original*
G04 #@! TF.FileFunction,Other,Comment*
%FSLAX46Y46*%
G04 Gerber Fmt 4.6, Leading zero omitted, Abs format (unit mm)*
G04 Created by KiCad (PCBNEW 6.0.9-8da3e8f707~116~ubuntu20.04.1) date 2023-04-19 18:18:50*
%MOMM*%
%LPD*%
G01*
G04 APERTURE LIST*
%ADD10C,0.070000*%
%ADD11C,0.150000*%
G04 APERTURE END LIST*
D10*
G04 #@! TO.C,PROG1*
X174011904Y-96930952D02*
X174011904Y-96530952D01*
X174240476Y-96930952D02*
X174069047Y-96702380D01*
X174240476Y-96530952D02*
X174011904Y-96759523D01*
X174411904Y-96721428D02*
X174545238Y-96721428D01*
X174602380Y-96930952D02*
X174411904Y-96930952D01*
X174411904Y-96530952D01*
X174602380Y-96530952D01*
X174773809Y-96721428D02*
X174907142Y-96721428D01*
X174964285Y-96930952D02*
X174773809Y-96930952D01*
X174773809Y-96530952D01*
X174964285Y-96530952D01*
X175135714Y-96930952D02*
X175135714Y-96530952D01*
X175288095Y-96530952D01*
X175326190Y-96550000D01*
X175345238Y-96569047D01*
X175364285Y-96607142D01*
X175364285Y-96664285D01*
X175345238Y-96702380D01*
X175326190Y-96721428D01*
X175288095Y-96740476D01*
X175135714Y-96740476D01*
X175611904Y-96530952D02*
X175688095Y-96530952D01*
X175726190Y-96550000D01*
X175764285Y-96588095D01*
X175783333Y-96664285D01*
X175783333Y-96797619D01*
X175764285Y-96873809D01*
X175726190Y-96911904D01*
X175688095Y-96930952D01*
X175611904Y-96930952D01*
X175573809Y-96911904D01*
X175535714Y-96873809D01*
X175516666Y-96797619D01*
X175516666Y-96664285D01*
X175535714Y-96588095D01*
X175573809Y-96550000D01*
X175611904Y-96530952D01*
X175954761Y-96530952D02*
X175954761Y-96854761D01*
X175973809Y-96892857D01*
X175992857Y-96911904D01*
X176030952Y-96930952D01*
X176107142Y-96930952D01*
X176145238Y-96911904D01*
X176164285Y-96892857D01*
X176183333Y-96854761D01*
X176183333Y-96530952D01*
X176316666Y-96530952D02*
X176545238Y-96530952D01*
X176430952Y-96930952D02*
X176430952Y-96530952D01*
D11*
G04 #@! TO.C,H3*
X165950000Y-116250000D02*
G75*
G03*
X165950000Y-116250000I-3200000J0D01*
G01*
G04 #@! TO.C,H1*
X165950000Y-78750000D02*
G75*
G03*
X165950000Y-78750000I-3200000J0D01*
G01*
G04 #@! TO.C,H2*
X204200000Y-103750000D02*
G75*
G03*
X204200000Y-103750000I-3200000J0D01*
G01*
G04 #@! TD*
M02*
