G04 #@! TF.GenerationSoftware,KiCad,Pcbnew,6.0.9-8da3e8f707~116~ubuntu20.04.1*
G04 #@! TF.CreationDate,2023-04-19T18:10:52+00:00*
G04 #@! TF.ProjectId,LEC032002,4c454330-3332-4303-9032-2e6b69636164,rev?*
G04 #@! TF.SameCoordinates,Original*
G04 #@! TF.FileFunction,Legend,Top*
G04 #@! TF.FilePolarity,Positive*
%FSLAX46Y46*%
G04 Gerber Fmt 4.6, Leading zero omitted, Abs format (unit mm)*
G04 Created by KiCad (PCBNEW 6.0.9-8da3e8f707~116~ubuntu20.04.1) date 2023-04-19 18:10:52*
%MOMM*%
%LPD*%
G01*
G04 APERTURE LIST*
%ADD10C,0.120000*%
%ADD11C,0.150000*%
%ADD12C,0.200000*%
%ADD13C,0.010000*%
G04 APERTURE END LIST*
D10*
X159750000Y-82750000D02*
X159750000Y-92750000D01*
X159750000Y-92750000D02*
X164000000Y-92750000D01*
X164000000Y-92750000D02*
X164000000Y-82750000D01*
X164000000Y-82750000D02*
X159750000Y-82750000D01*
D11*
X194476190Y-73797619D02*
X194476190Y-74797619D01*
X194238095Y-74797619D01*
X194095238Y-74750000D01*
X194000000Y-74654761D01*
X193952380Y-74559523D01*
X193904761Y-74369047D01*
X193904761Y-74226190D01*
X193952380Y-74035714D01*
X194000000Y-73940476D01*
X194095238Y-73845238D01*
X194238095Y-73797619D01*
X194476190Y-73797619D01*
X193476190Y-74321428D02*
X193142857Y-74321428D01*
X193000000Y-73797619D02*
X193476190Y-73797619D01*
X193476190Y-74797619D01*
X193000000Y-74797619D01*
X192095238Y-73797619D02*
X192571428Y-73797619D01*
X192571428Y-74797619D01*
X191809523Y-74083333D02*
X191333333Y-74083333D01*
X191904761Y-73797619D02*
X191571428Y-74797619D01*
X191238095Y-73797619D01*
X190714285Y-74273809D02*
X190714285Y-73797619D01*
X191047619Y-74797619D02*
X190714285Y-74273809D01*
X190380952Y-74797619D01*
X205678571Y-112654761D02*
X205726190Y-112511904D01*
X205773809Y-112464285D01*
X205869047Y-112416666D01*
X206011904Y-112416666D01*
X206107142Y-112464285D01*
X206154761Y-112511904D01*
X206202380Y-112607142D01*
X206202380Y-112988095D01*
X205202380Y-112988095D01*
X205202380Y-112654761D01*
X205250000Y-112559523D01*
X205297619Y-112511904D01*
X205392857Y-112464285D01*
X205488095Y-112464285D01*
X205583333Y-112511904D01*
X205630952Y-112559523D01*
X205678571Y-112654761D01*
X205678571Y-112988095D01*
X205297619Y-112035714D02*
X205250000Y-111988095D01*
X205202380Y-111892857D01*
X205202380Y-111654761D01*
X205250000Y-111559523D01*
X205297619Y-111511904D01*
X205392857Y-111464285D01*
X205488095Y-111464285D01*
X205630952Y-111511904D01*
X206202380Y-112083333D01*
X206202380Y-111464285D01*
X157797619Y-103940476D02*
X158797619Y-103940476D01*
X158797619Y-104321428D01*
X158750000Y-104416666D01*
X158702380Y-104464285D01*
X158607142Y-104511904D01*
X158464285Y-104511904D01*
X158369047Y-104464285D01*
X158321428Y-104416666D01*
X158273809Y-104321428D01*
X158273809Y-103940476D01*
X158797619Y-105130952D02*
X158797619Y-105321428D01*
X158750000Y-105416666D01*
X158654761Y-105511904D01*
X158464285Y-105559523D01*
X158130952Y-105559523D01*
X157940476Y-105511904D01*
X157845238Y-105416666D01*
X157797619Y-105321428D01*
X157797619Y-105130952D01*
X157845238Y-105035714D01*
X157940476Y-104940476D01*
X158130952Y-104892857D01*
X158464285Y-104892857D01*
X158654761Y-104940476D01*
X158750000Y-105035714D01*
X158797619Y-105130952D01*
X158797619Y-105892857D02*
X157797619Y-106130952D01*
X158511904Y-106321428D01*
X157797619Y-106511904D01*
X158797619Y-106750000D01*
X158321428Y-107130952D02*
X158321428Y-107464285D01*
X157797619Y-107607142D02*
X157797619Y-107130952D01*
X158797619Y-107130952D01*
X158797619Y-107607142D01*
X157797619Y-108607142D02*
X158273809Y-108273809D01*
X157797619Y-108035714D02*
X158797619Y-108035714D01*
X158797619Y-108416666D01*
X158750000Y-108511904D01*
X158702380Y-108559523D01*
X158607142Y-108607142D01*
X158464285Y-108607142D01*
X158369047Y-108559523D01*
X158321428Y-108511904D01*
X158273809Y-108416666D01*
X158273809Y-108035714D01*
X205678571Y-117904761D02*
X205726190Y-117761904D01*
X205773809Y-117714285D01*
X205869047Y-117666666D01*
X206011904Y-117666666D01*
X206107142Y-117714285D01*
X206154761Y-117761904D01*
X206202380Y-117857142D01*
X206202380Y-118238095D01*
X205202380Y-118238095D01*
X205202380Y-117904761D01*
X205250000Y-117809523D01*
X205297619Y-117761904D01*
X205392857Y-117714285D01*
X205488095Y-117714285D01*
X205583333Y-117761904D01*
X205630952Y-117809523D01*
X205678571Y-117904761D01*
X205678571Y-118238095D01*
X206202380Y-116714285D02*
X206202380Y-117285714D01*
X206202380Y-117000000D02*
X205202380Y-117000000D01*
X205345238Y-117095238D01*
X205440476Y-117190476D01*
X205488095Y-117285714D01*
X163452380Y-91250000D02*
X163452380Y-91726190D01*
X162452380Y-91726190D01*
X162928571Y-90916666D02*
X162928571Y-90583333D01*
X163452380Y-90440476D02*
X163452380Y-90916666D01*
X162452380Y-90916666D01*
X162452380Y-90440476D01*
X163357142Y-89440476D02*
X163404761Y-89488095D01*
X163452380Y-89630952D01*
X163452380Y-89726190D01*
X163404761Y-89869047D01*
X163309523Y-89964285D01*
X163214285Y-90011904D01*
X163023809Y-90059523D01*
X162880952Y-90059523D01*
X162690476Y-90011904D01*
X162595238Y-89964285D01*
X162500000Y-89869047D01*
X162452380Y-89726190D01*
X162452380Y-89630952D01*
X162500000Y-89488095D01*
X162547619Y-89440476D01*
X162452380Y-88821428D02*
X162452380Y-88726190D01*
X162500000Y-88630952D01*
X162547619Y-88583333D01*
X162642857Y-88535714D01*
X162833333Y-88488095D01*
X163071428Y-88488095D01*
X163261904Y-88535714D01*
X163357142Y-88583333D01*
X163404761Y-88630952D01*
X163452380Y-88726190D01*
X163452380Y-88821428D01*
X163404761Y-88916666D01*
X163357142Y-88964285D01*
X163261904Y-89011904D01*
X163071428Y-89059523D01*
X162833333Y-89059523D01*
X162642857Y-89011904D01*
X162547619Y-88964285D01*
X162500000Y-88916666D01*
X162452380Y-88821428D01*
X162452380Y-88154761D02*
X162452380Y-87535714D01*
X162833333Y-87869047D01*
X162833333Y-87726190D01*
X162880952Y-87630952D01*
X162928571Y-87583333D01*
X163023809Y-87535714D01*
X163261904Y-87535714D01*
X163357142Y-87583333D01*
X163404761Y-87630952D01*
X163452380Y-87726190D01*
X163452380Y-88011904D01*
X163404761Y-88107142D01*
X163357142Y-88154761D01*
X162547619Y-87154761D02*
X162500000Y-87107142D01*
X162452380Y-87011904D01*
X162452380Y-86773809D01*
X162500000Y-86678571D01*
X162547619Y-86630952D01*
X162642857Y-86583333D01*
X162738095Y-86583333D01*
X162880952Y-86630952D01*
X163452380Y-87202380D01*
X163452380Y-86583333D01*
X162452380Y-85964285D02*
X162452380Y-85869047D01*
X162500000Y-85773809D01*
X162547619Y-85726190D01*
X162642857Y-85678571D01*
X162833333Y-85630952D01*
X163071428Y-85630952D01*
X163261904Y-85678571D01*
X163357142Y-85726190D01*
X163404761Y-85773809D01*
X163452380Y-85869047D01*
X163452380Y-85964285D01*
X163404761Y-86059523D01*
X163357142Y-86107142D01*
X163261904Y-86154761D01*
X163071428Y-86202380D01*
X162833333Y-86202380D01*
X162642857Y-86154761D01*
X162547619Y-86107142D01*
X162500000Y-86059523D01*
X162452380Y-85964285D01*
X162452380Y-85011904D02*
X162452380Y-84916666D01*
X162500000Y-84821428D01*
X162547619Y-84773809D01*
X162642857Y-84726190D01*
X162833333Y-84678571D01*
X163071428Y-84678571D01*
X163261904Y-84726190D01*
X163357142Y-84773809D01*
X163404761Y-84821428D01*
X163452380Y-84916666D01*
X163452380Y-85011904D01*
X163404761Y-85107142D01*
X163357142Y-85154761D01*
X163261904Y-85202380D01*
X163071428Y-85250000D01*
X162833333Y-85250000D01*
X162642857Y-85202380D01*
X162547619Y-85154761D01*
X162500000Y-85107142D01*
X162452380Y-85011904D01*
X162547619Y-84297619D02*
X162500000Y-84250000D01*
X162452380Y-84154761D01*
X162452380Y-83916666D01*
X162500000Y-83821428D01*
X162547619Y-83773809D01*
X162642857Y-83726190D01*
X162738095Y-83726190D01*
X162880952Y-83773809D01*
X163452380Y-84345238D01*
X163452380Y-83726190D01*
X177321428Y-120678571D02*
X177464285Y-120726190D01*
X177511904Y-120773809D01*
X177559523Y-120869047D01*
X177559523Y-121011904D01*
X177511904Y-121107142D01*
X177464285Y-121154761D01*
X177369047Y-121202380D01*
X176988095Y-121202380D01*
X176988095Y-120202380D01*
X177321428Y-120202380D01*
X177416666Y-120250000D01*
X177464285Y-120297619D01*
X177511904Y-120392857D01*
X177511904Y-120488095D01*
X177464285Y-120583333D01*
X177416666Y-120630952D01*
X177321428Y-120678571D01*
X176988095Y-120678571D01*
X206202380Y-94488095D02*
X205202380Y-94488095D01*
X206202380Y-93535714D02*
X206202380Y-94011904D01*
X205202380Y-94011904D01*
X206154761Y-93250000D02*
X206202380Y-93107142D01*
X206202380Y-92869047D01*
X206154761Y-92773809D01*
X206107142Y-92726190D01*
X206011904Y-92678571D01*
X205916666Y-92678571D01*
X205821428Y-92726190D01*
X205773809Y-92773809D01*
X205726190Y-92869047D01*
X205678571Y-93059523D01*
X205630952Y-93154761D01*
X205583333Y-93202380D01*
X205488095Y-93250000D01*
X205392857Y-93250000D01*
X205297619Y-93202380D01*
X205250000Y-93154761D01*
X205202380Y-93059523D01*
X205202380Y-92821428D01*
X205250000Y-92678571D01*
X206202380Y-90964285D02*
X206202380Y-91535714D01*
X206202380Y-91250000D02*
X205202380Y-91250000D01*
X205345238Y-91345238D01*
X205440476Y-91440476D01*
X205488095Y-91535714D01*
X172011904Y-120916666D02*
X172488095Y-120916666D01*
X171916666Y-121202380D02*
X172250000Y-120202380D01*
X172583333Y-121202380D01*
X206202380Y-81988095D02*
X205202380Y-81988095D01*
X206202380Y-81035714D02*
X206202380Y-81511904D01*
X205202380Y-81511904D01*
X206154761Y-80750000D02*
X206202380Y-80607142D01*
X206202380Y-80369047D01*
X206154761Y-80273809D01*
X206107142Y-80226190D01*
X206011904Y-80178571D01*
X205916666Y-80178571D01*
X205821428Y-80226190D01*
X205773809Y-80273809D01*
X205726190Y-80369047D01*
X205678571Y-80559523D01*
X205630952Y-80654761D01*
X205583333Y-80702380D01*
X205488095Y-80750000D01*
X205392857Y-80750000D01*
X205297619Y-80702380D01*
X205250000Y-80654761D01*
X205202380Y-80559523D01*
X205202380Y-80321428D01*
X205250000Y-80178571D01*
X205297619Y-79035714D02*
X205250000Y-78988095D01*
X205202380Y-78892857D01*
X205202380Y-78654761D01*
X205250000Y-78559523D01*
X205297619Y-78511904D01*
X205392857Y-78464285D01*
X205488095Y-78464285D01*
X205630952Y-78511904D01*
X206202380Y-79083333D01*
X206202380Y-78464285D01*
X174000000Y-73797619D02*
X174000000Y-74797619D01*
X173666666Y-74083333D01*
X173333333Y-74797619D01*
X173333333Y-73797619D01*
X172904761Y-74083333D02*
X172428571Y-74083333D01*
X173000000Y-73797619D02*
X172666666Y-74797619D01*
X172333333Y-73797619D01*
X172095238Y-74797619D02*
X171428571Y-73797619D01*
X171428571Y-74797619D02*
X172095238Y-73797619D01*
X170333333Y-73845238D02*
X170190476Y-73797619D01*
X169952380Y-73797619D01*
X169857142Y-73845238D01*
X169809523Y-73892857D01*
X169761904Y-73988095D01*
X169761904Y-74083333D01*
X169809523Y-74178571D01*
X169857142Y-74226190D01*
X169952380Y-74273809D01*
X170142857Y-74321428D01*
X170238095Y-74369047D01*
X170285714Y-74416666D01*
X170333333Y-74511904D01*
X170333333Y-74607142D01*
X170285714Y-74702380D01*
X170238095Y-74750000D01*
X170142857Y-74797619D01*
X169904761Y-74797619D01*
X169761904Y-74750000D01*
X169333333Y-73797619D02*
X169333333Y-74797619D01*
X168952380Y-74797619D01*
X168857142Y-74750000D01*
X168809523Y-74702380D01*
X168761904Y-74607142D01*
X168761904Y-74464285D01*
X168809523Y-74369047D01*
X168857142Y-74321428D01*
X168952380Y-74273809D01*
X169333333Y-74273809D01*
X168333333Y-74321428D02*
X168000000Y-74321428D01*
X167857142Y-73797619D02*
X168333333Y-73797619D01*
X168333333Y-74797619D01*
X167857142Y-74797619D01*
X167428571Y-74321428D02*
X167095238Y-74321428D01*
X166952380Y-73797619D02*
X167428571Y-73797619D01*
X167428571Y-74797619D01*
X166952380Y-74797619D01*
X166523809Y-73797619D02*
X166523809Y-74797619D01*
X166285714Y-74797619D01*
X166142857Y-74750000D01*
X166047619Y-74654761D01*
X166000000Y-74559523D01*
X165952380Y-74369047D01*
X165952380Y-74226190D01*
X166000000Y-74035714D01*
X166047619Y-73940476D01*
X166142857Y-73845238D01*
X166285714Y-73797619D01*
X166523809Y-73797619D01*
X187071428Y-73797619D02*
X187071428Y-74797619D01*
X186833333Y-74797619D01*
X186690476Y-74750000D01*
X186595238Y-74654761D01*
X186547619Y-74559523D01*
X186500000Y-74369047D01*
X186500000Y-74226190D01*
X186547619Y-74035714D01*
X186595238Y-73940476D01*
X186690476Y-73845238D01*
X186833333Y-73797619D01*
X187071428Y-73797619D01*
X186071428Y-74321428D02*
X185738095Y-74321428D01*
X185595238Y-73797619D02*
X186071428Y-73797619D01*
X186071428Y-74797619D01*
X185595238Y-74797619D01*
X184595238Y-73892857D02*
X184642857Y-73845238D01*
X184785714Y-73797619D01*
X184880952Y-73797619D01*
X185023809Y-73845238D01*
X185119047Y-73940476D01*
X185166666Y-74035714D01*
X185214285Y-74226190D01*
X185214285Y-74369047D01*
X185166666Y-74559523D01*
X185119047Y-74654761D01*
X185023809Y-74750000D01*
X184880952Y-74797619D01*
X184785714Y-74797619D01*
X184642857Y-74750000D01*
X184595238Y-74702380D01*
X184166666Y-74321428D02*
X183833333Y-74321428D01*
X183690476Y-73797619D02*
X184166666Y-73797619D01*
X184166666Y-74797619D01*
X183690476Y-74797619D01*
X182785714Y-73797619D02*
X183261904Y-73797619D01*
X183261904Y-74797619D01*
X179595238Y-74083333D02*
X179119047Y-74083333D01*
X179690476Y-73797619D02*
X179357142Y-74797619D01*
X179023809Y-73797619D01*
X178119047Y-73892857D02*
X178166666Y-73845238D01*
X178309523Y-73797619D01*
X178404761Y-73797619D01*
X178547619Y-73845238D01*
X178642857Y-73940476D01*
X178690476Y-74035714D01*
X178738095Y-74226190D01*
X178738095Y-74369047D01*
X178690476Y-74559523D01*
X178642857Y-74654761D01*
X178547619Y-74750000D01*
X178404761Y-74797619D01*
X178309523Y-74797619D01*
X178166666Y-74750000D01*
X178119047Y-74702380D01*
X177119047Y-73892857D02*
X177166666Y-73845238D01*
X177309523Y-73797619D01*
X177404761Y-73797619D01*
X177547619Y-73845238D01*
X177642857Y-73940476D01*
X177690476Y-74035714D01*
X177738095Y-74226190D01*
X177738095Y-74369047D01*
X177690476Y-74559523D01*
X177642857Y-74654761D01*
X177547619Y-74750000D01*
X177404761Y-74797619D01*
X177309523Y-74797619D01*
X177166666Y-74750000D01*
X177119047Y-74702380D01*
X176690476Y-74321428D02*
X176357142Y-74321428D01*
X176214285Y-73797619D02*
X176690476Y-73797619D01*
X176690476Y-74797619D01*
X176214285Y-74797619D01*
X175309523Y-73797619D02*
X175785714Y-73797619D01*
X175785714Y-74797619D01*
G04 #@! TO.C,C1*
X186085714Y-89033333D02*
X186123809Y-89071428D01*
X186161904Y-89185714D01*
X186161904Y-89261904D01*
X186123809Y-89376190D01*
X186047619Y-89452380D01*
X185971428Y-89490476D01*
X185819047Y-89528571D01*
X185704761Y-89528571D01*
X185552380Y-89490476D01*
X185476190Y-89452380D01*
X185400000Y-89376190D01*
X185361904Y-89261904D01*
X185361904Y-89185714D01*
X185400000Y-89071428D01*
X185438095Y-89033333D01*
X186161904Y-88271428D02*
X186161904Y-88728571D01*
X186161904Y-88500000D02*
X185361904Y-88500000D01*
X185476190Y-88576190D01*
X185552380Y-88652380D01*
X185590476Y-88728571D01*
G04 #@! TO.C,C2*
X165285714Y-91133333D02*
X165323809Y-91171428D01*
X165361904Y-91285714D01*
X165361904Y-91361904D01*
X165323809Y-91476190D01*
X165247619Y-91552380D01*
X165171428Y-91590476D01*
X165019047Y-91628571D01*
X164904761Y-91628571D01*
X164752380Y-91590476D01*
X164676190Y-91552380D01*
X164600000Y-91476190D01*
X164561904Y-91361904D01*
X164561904Y-91285714D01*
X164600000Y-91171428D01*
X164638095Y-91133333D01*
X164638095Y-90828571D02*
X164600000Y-90790476D01*
X164561904Y-90714285D01*
X164561904Y-90523809D01*
X164600000Y-90447619D01*
X164638095Y-90409523D01*
X164714285Y-90371428D01*
X164790476Y-90371428D01*
X164904761Y-90409523D01*
X165361904Y-90866666D01*
X165361904Y-90371428D01*
G04 #@! TO.C,C3*
X172485714Y-83233333D02*
X172523809Y-83271428D01*
X172561904Y-83385714D01*
X172561904Y-83461904D01*
X172523809Y-83576190D01*
X172447619Y-83652380D01*
X172371428Y-83690476D01*
X172219047Y-83728571D01*
X172104761Y-83728571D01*
X171952380Y-83690476D01*
X171876190Y-83652380D01*
X171800000Y-83576190D01*
X171761904Y-83461904D01*
X171761904Y-83385714D01*
X171800000Y-83271428D01*
X171838095Y-83233333D01*
X171761904Y-82966666D02*
X171761904Y-82471428D01*
X172066666Y-82738095D01*
X172066666Y-82623809D01*
X172104761Y-82547619D01*
X172142857Y-82509523D01*
X172219047Y-82471428D01*
X172409523Y-82471428D01*
X172485714Y-82509523D01*
X172523809Y-82547619D01*
X172561904Y-82623809D01*
X172561904Y-82852380D01*
X172523809Y-82928571D01*
X172485714Y-82966666D01*
G04 #@! TO.C,C4*
X187966666Y-93685714D02*
X187928571Y-93723809D01*
X187814285Y-93761904D01*
X187738095Y-93761904D01*
X187623809Y-93723809D01*
X187547619Y-93647619D01*
X187509523Y-93571428D01*
X187471428Y-93419047D01*
X187471428Y-93304761D01*
X187509523Y-93152380D01*
X187547619Y-93076190D01*
X187623809Y-93000000D01*
X187738095Y-92961904D01*
X187814285Y-92961904D01*
X187928571Y-93000000D01*
X187966666Y-93038095D01*
X188652380Y-93228571D02*
X188652380Y-93761904D01*
X188461904Y-92923809D02*
X188271428Y-93495238D01*
X188766666Y-93495238D01*
G04 #@! TO.C,C5*
X175585714Y-84433333D02*
X175623809Y-84471428D01*
X175661904Y-84585714D01*
X175661904Y-84661904D01*
X175623809Y-84776190D01*
X175547619Y-84852380D01*
X175471428Y-84890476D01*
X175319047Y-84928571D01*
X175204761Y-84928571D01*
X175052380Y-84890476D01*
X174976190Y-84852380D01*
X174900000Y-84776190D01*
X174861904Y-84661904D01*
X174861904Y-84585714D01*
X174900000Y-84471428D01*
X174938095Y-84433333D01*
X174861904Y-83709523D02*
X174861904Y-84090476D01*
X175242857Y-84128571D01*
X175204761Y-84090476D01*
X175166666Y-84014285D01*
X175166666Y-83823809D01*
X175204761Y-83747619D01*
X175242857Y-83709523D01*
X175319047Y-83671428D01*
X175509523Y-83671428D01*
X175585714Y-83709523D01*
X175623809Y-83747619D01*
X175661904Y-83823809D01*
X175661904Y-84014285D01*
X175623809Y-84090476D01*
X175585714Y-84128571D01*
G04 #@! TO.C,C6*
X183085714Y-92033333D02*
X183123809Y-92071428D01*
X183161904Y-92185714D01*
X183161904Y-92261904D01*
X183123809Y-92376190D01*
X183047619Y-92452380D01*
X182971428Y-92490476D01*
X182819047Y-92528571D01*
X182704761Y-92528571D01*
X182552380Y-92490476D01*
X182476190Y-92452380D01*
X182400000Y-92376190D01*
X182361904Y-92261904D01*
X182361904Y-92185714D01*
X182400000Y-92071428D01*
X182438095Y-92033333D01*
X182361904Y-91347619D02*
X182361904Y-91500000D01*
X182400000Y-91576190D01*
X182438095Y-91614285D01*
X182552380Y-91690476D01*
X182704761Y-91728571D01*
X183009523Y-91728571D01*
X183085714Y-91690476D01*
X183123809Y-91652380D01*
X183161904Y-91576190D01*
X183161904Y-91423809D01*
X183123809Y-91347619D01*
X183085714Y-91309523D01*
X183009523Y-91271428D01*
X182819047Y-91271428D01*
X182742857Y-91309523D01*
X182704761Y-91347619D01*
X182666666Y-91423809D01*
X182666666Y-91576190D01*
X182704761Y-91652380D01*
X182742857Y-91690476D01*
X182819047Y-91728571D01*
G04 #@! TO.C,C7*
X178755714Y-107133333D02*
X178793809Y-107171428D01*
X178831904Y-107285714D01*
X178831904Y-107361904D01*
X178793809Y-107476190D01*
X178717619Y-107552380D01*
X178641428Y-107590476D01*
X178489047Y-107628571D01*
X178374761Y-107628571D01*
X178222380Y-107590476D01*
X178146190Y-107552380D01*
X178070000Y-107476190D01*
X178031904Y-107361904D01*
X178031904Y-107285714D01*
X178070000Y-107171428D01*
X178108095Y-107133333D01*
X178031904Y-106866666D02*
X178031904Y-106333333D01*
X178831904Y-106676190D01*
G04 #@! TO.C,C8*
X180085714Y-104033333D02*
X180123809Y-104071428D01*
X180161904Y-104185714D01*
X180161904Y-104261904D01*
X180123809Y-104376190D01*
X180047619Y-104452380D01*
X179971428Y-104490476D01*
X179819047Y-104528571D01*
X179704761Y-104528571D01*
X179552380Y-104490476D01*
X179476190Y-104452380D01*
X179400000Y-104376190D01*
X179361904Y-104261904D01*
X179361904Y-104185714D01*
X179400000Y-104071428D01*
X179438095Y-104033333D01*
X179704761Y-103576190D02*
X179666666Y-103652380D01*
X179628571Y-103690476D01*
X179552380Y-103728571D01*
X179514285Y-103728571D01*
X179438095Y-103690476D01*
X179400000Y-103652380D01*
X179361904Y-103576190D01*
X179361904Y-103423809D01*
X179400000Y-103347619D01*
X179438095Y-103309523D01*
X179514285Y-103271428D01*
X179552380Y-103271428D01*
X179628571Y-103309523D01*
X179666666Y-103347619D01*
X179704761Y-103423809D01*
X179704761Y-103576190D01*
X179742857Y-103652380D01*
X179780952Y-103690476D01*
X179857142Y-103728571D01*
X180009523Y-103728571D01*
X180085714Y-103690476D01*
X180123809Y-103652380D01*
X180161904Y-103576190D01*
X180161904Y-103423809D01*
X180123809Y-103347619D01*
X180085714Y-103309523D01*
X180009523Y-103271428D01*
X179857142Y-103271428D01*
X179780952Y-103309523D01*
X179742857Y-103347619D01*
X179704761Y-103423809D01*
G04 #@! TO.C,C9*
X177366666Y-110885714D02*
X177328571Y-110923809D01*
X177214285Y-110961904D01*
X177138095Y-110961904D01*
X177023809Y-110923809D01*
X176947619Y-110847619D01*
X176909523Y-110771428D01*
X176871428Y-110619047D01*
X176871428Y-110504761D01*
X176909523Y-110352380D01*
X176947619Y-110276190D01*
X177023809Y-110200000D01*
X177138095Y-110161904D01*
X177214285Y-110161904D01*
X177328571Y-110200000D01*
X177366666Y-110238095D01*
X177747619Y-110961904D02*
X177900000Y-110961904D01*
X177976190Y-110923809D01*
X178014285Y-110885714D01*
X178090476Y-110771428D01*
X178128571Y-110619047D01*
X178128571Y-110314285D01*
X178090476Y-110238095D01*
X178052380Y-110200000D01*
X177976190Y-110161904D01*
X177823809Y-110161904D01*
X177747619Y-110200000D01*
X177709523Y-110238095D01*
X177671428Y-110314285D01*
X177671428Y-110504761D01*
X177709523Y-110580952D01*
X177747619Y-110619047D01*
X177823809Y-110657142D01*
X177976190Y-110657142D01*
X178052380Y-110619047D01*
X178090476Y-110580952D01*
X178128571Y-110504761D01*
G04 #@! TO.C,D1*
X169361904Y-94290476D02*
X168561904Y-94290476D01*
X168561904Y-94100000D01*
X168600000Y-93985714D01*
X168676190Y-93909523D01*
X168752380Y-93871428D01*
X168904761Y-93833333D01*
X169019047Y-93833333D01*
X169171428Y-93871428D01*
X169247619Y-93909523D01*
X169323809Y-93985714D01*
X169361904Y-94100000D01*
X169361904Y-94290476D01*
X169361904Y-93071428D02*
X169361904Y-93528571D01*
X169361904Y-93300000D02*
X168561904Y-93300000D01*
X168676190Y-93376190D01*
X168752380Y-93452380D01*
X168790476Y-93528571D01*
G04 #@! TO.C,D11*
X159228571Y-100761904D02*
X159228571Y-99961904D01*
X159419047Y-99961904D01*
X159533333Y-100000000D01*
X159609523Y-100076190D01*
X159647619Y-100152380D01*
X159685714Y-100304761D01*
X159685714Y-100419047D01*
X159647619Y-100571428D01*
X159609523Y-100647619D01*
X159533333Y-100723809D01*
X159419047Y-100761904D01*
X159228571Y-100761904D01*
X160447619Y-100761904D02*
X159990476Y-100761904D01*
X160219047Y-100761904D02*
X160219047Y-99961904D01*
X160142857Y-100076190D01*
X160066666Y-100152380D01*
X159990476Y-100190476D01*
X161209523Y-100761904D02*
X160752380Y-100761904D01*
X160980952Y-100761904D02*
X160980952Y-99961904D01*
X160904761Y-100076190D01*
X160828571Y-100152380D01*
X160752380Y-100190476D01*
G04 #@! TO.C,D3*
X195309523Y-115161904D02*
X195309523Y-114361904D01*
X195500000Y-114361904D01*
X195614285Y-114400000D01*
X195690476Y-114476190D01*
X195728571Y-114552380D01*
X195766666Y-114704761D01*
X195766666Y-114819047D01*
X195728571Y-114971428D01*
X195690476Y-115047619D01*
X195614285Y-115123809D01*
X195500000Y-115161904D01*
X195309523Y-115161904D01*
X196033333Y-114361904D02*
X196528571Y-114361904D01*
X196261904Y-114666666D01*
X196376190Y-114666666D01*
X196452380Y-114704761D01*
X196490476Y-114742857D01*
X196528571Y-114819047D01*
X196528571Y-115009523D01*
X196490476Y-115085714D01*
X196452380Y-115123809D01*
X196376190Y-115161904D01*
X196147619Y-115161904D01*
X196071428Y-115123809D01*
X196033333Y-115085714D01*
G04 #@! TO.C,D4*
X180009523Y-115161904D02*
X180009523Y-114361904D01*
X180200000Y-114361904D01*
X180314285Y-114400000D01*
X180390476Y-114476190D01*
X180428571Y-114552380D01*
X180466666Y-114704761D01*
X180466666Y-114819047D01*
X180428571Y-114971428D01*
X180390476Y-115047619D01*
X180314285Y-115123809D01*
X180200000Y-115161904D01*
X180009523Y-115161904D01*
X181152380Y-114628571D02*
X181152380Y-115161904D01*
X180961904Y-114323809D02*
X180771428Y-114895238D01*
X181266666Y-114895238D01*
G04 #@! TO.C,D5*
X195409523Y-102161904D02*
X195409523Y-101361904D01*
X195600000Y-101361904D01*
X195714285Y-101400000D01*
X195790476Y-101476190D01*
X195828571Y-101552380D01*
X195866666Y-101704761D01*
X195866666Y-101819047D01*
X195828571Y-101971428D01*
X195790476Y-102047619D01*
X195714285Y-102123809D01*
X195600000Y-102161904D01*
X195409523Y-102161904D01*
X196590476Y-101361904D02*
X196209523Y-101361904D01*
X196171428Y-101742857D01*
X196209523Y-101704761D01*
X196285714Y-101666666D01*
X196476190Y-101666666D01*
X196552380Y-101704761D01*
X196590476Y-101742857D01*
X196628571Y-101819047D01*
X196628571Y-102009523D01*
X196590476Y-102085714D01*
X196552380Y-102123809D01*
X196476190Y-102161904D01*
X196285714Y-102161904D01*
X196209523Y-102123809D01*
X196171428Y-102085714D01*
G04 #@! TO.C,D6*
X179809523Y-101961904D02*
X179809523Y-101161904D01*
X180000000Y-101161904D01*
X180114285Y-101200000D01*
X180190476Y-101276190D01*
X180228571Y-101352380D01*
X180266666Y-101504761D01*
X180266666Y-101619047D01*
X180228571Y-101771428D01*
X180190476Y-101847619D01*
X180114285Y-101923809D01*
X180000000Y-101961904D01*
X179809523Y-101961904D01*
X180952380Y-101161904D02*
X180800000Y-101161904D01*
X180723809Y-101200000D01*
X180685714Y-101238095D01*
X180609523Y-101352380D01*
X180571428Y-101504761D01*
X180571428Y-101809523D01*
X180609523Y-101885714D01*
X180647619Y-101923809D01*
X180723809Y-101961904D01*
X180876190Y-101961904D01*
X180952380Y-101923809D01*
X180990476Y-101885714D01*
X181028571Y-101809523D01*
X181028571Y-101619047D01*
X180990476Y-101542857D01*
X180952380Y-101504761D01*
X180876190Y-101466666D01*
X180723809Y-101466666D01*
X180647619Y-101504761D01*
X180609523Y-101542857D01*
X180571428Y-101619047D01*
G04 #@! TO.C,D7*
X195309523Y-118661904D02*
X195309523Y-117861904D01*
X195500000Y-117861904D01*
X195614285Y-117900000D01*
X195690476Y-117976190D01*
X195728571Y-118052380D01*
X195766666Y-118204761D01*
X195766666Y-118319047D01*
X195728571Y-118471428D01*
X195690476Y-118547619D01*
X195614285Y-118623809D01*
X195500000Y-118661904D01*
X195309523Y-118661904D01*
X196033333Y-117861904D02*
X196566666Y-117861904D01*
X196223809Y-118661904D01*
G04 #@! TO.C,D8*
X180009523Y-118461904D02*
X180009523Y-117661904D01*
X180200000Y-117661904D01*
X180314285Y-117700000D01*
X180390476Y-117776190D01*
X180428571Y-117852380D01*
X180466666Y-118004761D01*
X180466666Y-118119047D01*
X180428571Y-118271428D01*
X180390476Y-118347619D01*
X180314285Y-118423809D01*
X180200000Y-118461904D01*
X180009523Y-118461904D01*
X180923809Y-118004761D02*
X180847619Y-117966666D01*
X180809523Y-117928571D01*
X180771428Y-117852380D01*
X180771428Y-117814285D01*
X180809523Y-117738095D01*
X180847619Y-117700000D01*
X180923809Y-117661904D01*
X181076190Y-117661904D01*
X181152380Y-117700000D01*
X181190476Y-117738095D01*
X181228571Y-117814285D01*
X181228571Y-117852380D01*
X181190476Y-117928571D01*
X181152380Y-117966666D01*
X181076190Y-118004761D01*
X180923809Y-118004761D01*
X180847619Y-118042857D01*
X180809523Y-118080952D01*
X180771428Y-118157142D01*
X180771428Y-118309523D01*
X180809523Y-118385714D01*
X180847619Y-118423809D01*
X180923809Y-118461904D01*
X181076190Y-118461904D01*
X181152380Y-118423809D01*
X181190476Y-118385714D01*
X181228571Y-118309523D01*
X181228571Y-118157142D01*
X181190476Y-118080952D01*
X181152380Y-118042857D01*
X181076190Y-118004761D01*
G04 #@! TO.C,D9*
X195409523Y-105661904D02*
X195409523Y-104861904D01*
X195600000Y-104861904D01*
X195714285Y-104900000D01*
X195790476Y-104976190D01*
X195828571Y-105052380D01*
X195866666Y-105204761D01*
X195866666Y-105319047D01*
X195828571Y-105471428D01*
X195790476Y-105547619D01*
X195714285Y-105623809D01*
X195600000Y-105661904D01*
X195409523Y-105661904D01*
X196247619Y-105661904D02*
X196400000Y-105661904D01*
X196476190Y-105623809D01*
X196514285Y-105585714D01*
X196590476Y-105471428D01*
X196628571Y-105319047D01*
X196628571Y-105014285D01*
X196590476Y-104938095D01*
X196552380Y-104900000D01*
X196476190Y-104861904D01*
X196323809Y-104861904D01*
X196247619Y-104900000D01*
X196209523Y-104938095D01*
X196171428Y-105014285D01*
X196171428Y-105204761D01*
X196209523Y-105280952D01*
X196247619Y-105319047D01*
X196323809Y-105357142D01*
X196476190Y-105357142D01*
X196552380Y-105319047D01*
X196590476Y-105280952D01*
X196628571Y-105204761D01*
G04 #@! TO.C,D10*
X179328571Y-105461904D02*
X179328571Y-104661904D01*
X179519047Y-104661904D01*
X179633333Y-104700000D01*
X179709523Y-104776190D01*
X179747619Y-104852380D01*
X179785714Y-105004761D01*
X179785714Y-105119047D01*
X179747619Y-105271428D01*
X179709523Y-105347619D01*
X179633333Y-105423809D01*
X179519047Y-105461904D01*
X179328571Y-105461904D01*
X180547619Y-105461904D02*
X180090476Y-105461904D01*
X180319047Y-105461904D02*
X180319047Y-104661904D01*
X180242857Y-104776190D01*
X180166666Y-104852380D01*
X180090476Y-104890476D01*
X181042857Y-104661904D02*
X181119047Y-104661904D01*
X181195238Y-104700000D01*
X181233333Y-104738095D01*
X181271428Y-104814285D01*
X181309523Y-104966666D01*
X181309523Y-105157142D01*
X181271428Y-105309523D01*
X181233333Y-105385714D01*
X181195238Y-105423809D01*
X181119047Y-105461904D01*
X181042857Y-105461904D01*
X180966666Y-105423809D01*
X180928571Y-105385714D01*
X180890476Y-105309523D01*
X180852380Y-105157142D01*
X180852380Y-104966666D01*
X180890476Y-104814285D01*
X180928571Y-104738095D01*
X180966666Y-104700000D01*
X181042857Y-104661904D01*
G04 #@! TO.C,J1*
X162661904Y-106516666D02*
X163233333Y-106516666D01*
X163347619Y-106554761D01*
X163423809Y-106630952D01*
X163461904Y-106745238D01*
X163461904Y-106821428D01*
X163461904Y-105716666D02*
X163461904Y-106173809D01*
X163461904Y-105945238D02*
X162661904Y-105945238D01*
X162776190Y-106021428D01*
X162852380Y-106097619D01*
X162890476Y-106173809D01*
G04 #@! TO.C,J2*
X200561904Y-115016666D02*
X201133333Y-115016666D01*
X201247619Y-115054761D01*
X201323809Y-115130952D01*
X201361904Y-115245238D01*
X201361904Y-115321428D01*
X200638095Y-114673809D02*
X200600000Y-114635714D01*
X200561904Y-114559523D01*
X200561904Y-114369047D01*
X200600000Y-114292857D01*
X200638095Y-114254761D01*
X200714285Y-114216666D01*
X200790476Y-114216666D01*
X200904761Y-114254761D01*
X201361904Y-114711904D01*
X201361904Y-114216666D01*
G04 #@! TO.C,J3*
X174433333Y-115561904D02*
X174433333Y-116133333D01*
X174395238Y-116247619D01*
X174319047Y-116323809D01*
X174204761Y-116361904D01*
X174128571Y-116361904D01*
X174738095Y-115561904D02*
X175233333Y-115561904D01*
X174966666Y-115866666D01*
X175080952Y-115866666D01*
X175157142Y-115904761D01*
X175195238Y-115942857D01*
X175233333Y-116019047D01*
X175233333Y-116209523D01*
X175195238Y-116285714D01*
X175157142Y-116323809D01*
X175080952Y-116361904D01*
X174852380Y-116361904D01*
X174776190Y-116323809D01*
X174738095Y-116285714D01*
G04 #@! TO.C,J4*
X200561904Y-80516666D02*
X201133333Y-80516666D01*
X201247619Y-80554761D01*
X201323809Y-80630952D01*
X201361904Y-80745238D01*
X201361904Y-80821428D01*
X200828571Y-79792857D02*
X201361904Y-79792857D01*
X200523809Y-79983333D02*
X201095238Y-80173809D01*
X201095238Y-79678571D01*
G04 #@! TO.C,J5*
X200461904Y-93066666D02*
X201033333Y-93066666D01*
X201147619Y-93104761D01*
X201223809Y-93180952D01*
X201261904Y-93295238D01*
X201261904Y-93371428D01*
X200461904Y-92304761D02*
X200461904Y-92685714D01*
X200842857Y-92723809D01*
X200804761Y-92685714D01*
X200766666Y-92609523D01*
X200766666Y-92419047D01*
X200804761Y-92342857D01*
X200842857Y-92304761D01*
X200919047Y-92266666D01*
X201109523Y-92266666D01*
X201185714Y-92304761D01*
X201223809Y-92342857D01*
X201261904Y-92419047D01*
X201261904Y-92609523D01*
X201223809Y-92685714D01*
X201185714Y-92723809D01*
G04 #@! TO.C,R1*
X192566666Y-92261904D02*
X192300000Y-91880952D01*
X192109523Y-92261904D02*
X192109523Y-91461904D01*
X192414285Y-91461904D01*
X192490476Y-91500000D01*
X192528571Y-91538095D01*
X192566666Y-91614285D01*
X192566666Y-91728571D01*
X192528571Y-91804761D01*
X192490476Y-91842857D01*
X192414285Y-91880952D01*
X192109523Y-91880952D01*
X193328571Y-92261904D02*
X192871428Y-92261904D01*
X193100000Y-92261904D02*
X193100000Y-91461904D01*
X193023809Y-91576190D01*
X192947619Y-91652380D01*
X192871428Y-91690476D01*
G04 #@! TO.C,R2*
X169066666Y-110661904D02*
X168800000Y-110280952D01*
X168609523Y-110661904D02*
X168609523Y-109861904D01*
X168914285Y-109861904D01*
X168990476Y-109900000D01*
X169028571Y-109938095D01*
X169066666Y-110014285D01*
X169066666Y-110128571D01*
X169028571Y-110204761D01*
X168990476Y-110242857D01*
X168914285Y-110280952D01*
X168609523Y-110280952D01*
X169371428Y-109938095D02*
X169409523Y-109900000D01*
X169485714Y-109861904D01*
X169676190Y-109861904D01*
X169752380Y-109900000D01*
X169790476Y-109938095D01*
X169828571Y-110014285D01*
X169828571Y-110090476D01*
X169790476Y-110204761D01*
X169333333Y-110661904D01*
X169828571Y-110661904D01*
G04 #@! TO.C,R3*
X163861904Y-93733333D02*
X163480952Y-94000000D01*
X163861904Y-94190476D02*
X163061904Y-94190476D01*
X163061904Y-93885714D01*
X163100000Y-93809523D01*
X163138095Y-93771428D01*
X163214285Y-93733333D01*
X163328571Y-93733333D01*
X163404761Y-93771428D01*
X163442857Y-93809523D01*
X163480952Y-93885714D01*
X163480952Y-94190476D01*
X163061904Y-93466666D02*
X163061904Y-92971428D01*
X163366666Y-93238095D01*
X163366666Y-93123809D01*
X163404761Y-93047619D01*
X163442857Y-93009523D01*
X163519047Y-92971428D01*
X163709523Y-92971428D01*
X163785714Y-93009523D01*
X163823809Y-93047619D01*
X163861904Y-93123809D01*
X163861904Y-93352380D01*
X163823809Y-93428571D01*
X163785714Y-93466666D01*
G04 #@! TO.C,R4*
X196161904Y-111333333D02*
X195780952Y-111600000D01*
X196161904Y-111790476D02*
X195361904Y-111790476D01*
X195361904Y-111485714D01*
X195400000Y-111409523D01*
X195438095Y-111371428D01*
X195514285Y-111333333D01*
X195628571Y-111333333D01*
X195704761Y-111371428D01*
X195742857Y-111409523D01*
X195780952Y-111485714D01*
X195780952Y-111790476D01*
X195628571Y-110647619D02*
X196161904Y-110647619D01*
X195323809Y-110838095D02*
X195895238Y-111028571D01*
X195895238Y-110533333D01*
G04 #@! TO.C,R5*
X196161904Y-98433333D02*
X195780952Y-98700000D01*
X196161904Y-98890476D02*
X195361904Y-98890476D01*
X195361904Y-98585714D01*
X195400000Y-98509523D01*
X195438095Y-98471428D01*
X195514285Y-98433333D01*
X195628571Y-98433333D01*
X195704761Y-98471428D01*
X195742857Y-98509523D01*
X195780952Y-98585714D01*
X195780952Y-98890476D01*
X195361904Y-97709523D02*
X195361904Y-98090476D01*
X195742857Y-98128571D01*
X195704761Y-98090476D01*
X195666666Y-98014285D01*
X195666666Y-97823809D01*
X195704761Y-97747619D01*
X195742857Y-97709523D01*
X195819047Y-97671428D01*
X196009523Y-97671428D01*
X196085714Y-97709523D01*
X196123809Y-97747619D01*
X196161904Y-97823809D01*
X196161904Y-98014285D01*
X196123809Y-98090476D01*
X196085714Y-98128571D01*
G04 #@! TO.C,R6*
X180061904Y-110333333D02*
X179680952Y-110600000D01*
X180061904Y-110790476D02*
X179261904Y-110790476D01*
X179261904Y-110485714D01*
X179300000Y-110409523D01*
X179338095Y-110371428D01*
X179414285Y-110333333D01*
X179528571Y-110333333D01*
X179604761Y-110371428D01*
X179642857Y-110409523D01*
X179680952Y-110485714D01*
X179680952Y-110790476D01*
X179261904Y-109647619D02*
X179261904Y-109800000D01*
X179300000Y-109876190D01*
X179338095Y-109914285D01*
X179452380Y-109990476D01*
X179604761Y-110028571D01*
X179909523Y-110028571D01*
X179985714Y-109990476D01*
X180023809Y-109952380D01*
X180061904Y-109876190D01*
X180061904Y-109723809D01*
X180023809Y-109647619D01*
X179985714Y-109609523D01*
X179909523Y-109571428D01*
X179719047Y-109571428D01*
X179642857Y-109609523D01*
X179604761Y-109647619D01*
X179566666Y-109723809D01*
X179566666Y-109876190D01*
X179604761Y-109952380D01*
X179642857Y-109990476D01*
X179719047Y-110028571D01*
G04 #@! TO.C,R7*
X180961904Y-99933333D02*
X180580952Y-100200000D01*
X180961904Y-100390476D02*
X180161904Y-100390476D01*
X180161904Y-100085714D01*
X180200000Y-100009523D01*
X180238095Y-99971428D01*
X180314285Y-99933333D01*
X180428571Y-99933333D01*
X180504761Y-99971428D01*
X180542857Y-100009523D01*
X180580952Y-100085714D01*
X180580952Y-100390476D01*
X180161904Y-99666666D02*
X180161904Y-99133333D01*
X180961904Y-99476190D01*
G04 #@! TO.C,RV1*
X192023809Y-79061904D02*
X191757142Y-78680952D01*
X191566666Y-79061904D02*
X191566666Y-78261904D01*
X191871428Y-78261904D01*
X191947619Y-78300000D01*
X191985714Y-78338095D01*
X192023809Y-78414285D01*
X192023809Y-78528571D01*
X191985714Y-78604761D01*
X191947619Y-78642857D01*
X191871428Y-78680952D01*
X191566666Y-78680952D01*
X192252380Y-78261904D02*
X192519047Y-79061904D01*
X192785714Y-78261904D01*
X193471428Y-79061904D02*
X193014285Y-79061904D01*
X193242857Y-79061904D02*
X193242857Y-78261904D01*
X193166666Y-78376190D01*
X193090476Y-78452380D01*
X193014285Y-78490476D01*
G04 #@! TO.C,RV2*
X184523809Y-79261904D02*
X184257142Y-78880952D01*
X184066666Y-79261904D02*
X184066666Y-78461904D01*
X184371428Y-78461904D01*
X184447619Y-78500000D01*
X184485714Y-78538095D01*
X184523809Y-78614285D01*
X184523809Y-78728571D01*
X184485714Y-78804761D01*
X184447619Y-78842857D01*
X184371428Y-78880952D01*
X184066666Y-78880952D01*
X184752380Y-78461904D02*
X185019047Y-79261904D01*
X185285714Y-78461904D01*
X185514285Y-78538095D02*
X185552380Y-78500000D01*
X185628571Y-78461904D01*
X185819047Y-78461904D01*
X185895238Y-78500000D01*
X185933333Y-78538095D01*
X185971428Y-78614285D01*
X185971428Y-78690476D01*
X185933333Y-78804761D01*
X185476190Y-79261904D01*
X185971428Y-79261904D01*
G04 #@! TO.C,RV3*
X177023809Y-79161904D02*
X176757142Y-78780952D01*
X176566666Y-79161904D02*
X176566666Y-78361904D01*
X176871428Y-78361904D01*
X176947619Y-78400000D01*
X176985714Y-78438095D01*
X177023809Y-78514285D01*
X177023809Y-78628571D01*
X176985714Y-78704761D01*
X176947619Y-78742857D01*
X176871428Y-78780952D01*
X176566666Y-78780952D01*
X177252380Y-78361904D02*
X177519047Y-79161904D01*
X177785714Y-78361904D01*
X177976190Y-78361904D02*
X178471428Y-78361904D01*
X178204761Y-78666666D01*
X178319047Y-78666666D01*
X178395238Y-78704761D01*
X178433333Y-78742857D01*
X178471428Y-78819047D01*
X178471428Y-79009523D01*
X178433333Y-79085714D01*
X178395238Y-79123809D01*
X178319047Y-79161904D01*
X178090476Y-79161904D01*
X178014285Y-79123809D01*
X177976190Y-79085714D01*
G04 #@! TO.C,U1*
X185531904Y-87009523D02*
X186179523Y-87009523D01*
X186255714Y-86971428D01*
X186293809Y-86933333D01*
X186331904Y-86857142D01*
X186331904Y-86704761D01*
X186293809Y-86628571D01*
X186255714Y-86590476D01*
X186179523Y-86552380D01*
X185531904Y-86552380D01*
X186331904Y-85752380D02*
X186331904Y-86209523D01*
X186331904Y-85980952D02*
X185531904Y-85980952D01*
X185646190Y-86057142D01*
X185722380Y-86133333D01*
X185760476Y-86209523D01*
G04 #@! TO.C,U2*
X178061904Y-89409523D02*
X178709523Y-89409523D01*
X178785714Y-89371428D01*
X178823809Y-89333333D01*
X178861904Y-89257142D01*
X178861904Y-89104761D01*
X178823809Y-89028571D01*
X178785714Y-88990476D01*
X178709523Y-88952380D01*
X178061904Y-88952380D01*
X178138095Y-88609523D02*
X178100000Y-88571428D01*
X178061904Y-88495238D01*
X178061904Y-88304761D01*
X178100000Y-88228571D01*
X178138095Y-88190476D01*
X178214285Y-88152380D01*
X178290476Y-88152380D01*
X178404761Y-88190476D01*
X178861904Y-88647619D01*
X178861904Y-88152380D01*
G04 #@! TO.C,U3*
X170990476Y-102561904D02*
X170990476Y-103209523D01*
X171028571Y-103285714D01*
X171066666Y-103323809D01*
X171142857Y-103361904D01*
X171295238Y-103361904D01*
X171371428Y-103323809D01*
X171409523Y-103285714D01*
X171447619Y-103209523D01*
X171447619Y-102561904D01*
X171752380Y-102561904D02*
X172247619Y-102561904D01*
X171980952Y-102866666D01*
X172095238Y-102866666D01*
X172171428Y-102904761D01*
X172209523Y-102942857D01*
X172247619Y-103019047D01*
X172247619Y-103209523D01*
X172209523Y-103285714D01*
X172171428Y-103323809D01*
X172095238Y-103361904D01*
X171866666Y-103361904D01*
X171790476Y-103323809D01*
X171752380Y-103285714D01*
G04 #@! TO.C,U4*
X193690476Y-108161904D02*
X193690476Y-108809523D01*
X193728571Y-108885714D01*
X193766666Y-108923809D01*
X193842857Y-108961904D01*
X193995238Y-108961904D01*
X194071428Y-108923809D01*
X194109523Y-108885714D01*
X194147619Y-108809523D01*
X194147619Y-108161904D01*
X194871428Y-108428571D02*
X194871428Y-108961904D01*
X194680952Y-108123809D02*
X194490476Y-108695238D01*
X194985714Y-108695238D01*
G04 #@! TO.C,U5*
X193690476Y-95261904D02*
X193690476Y-95909523D01*
X193728571Y-95985714D01*
X193766666Y-96023809D01*
X193842857Y-96061904D01*
X193995238Y-96061904D01*
X194071428Y-96023809D01*
X194109523Y-95985714D01*
X194147619Y-95909523D01*
X194147619Y-95261904D01*
X194909523Y-95261904D02*
X194528571Y-95261904D01*
X194490476Y-95642857D01*
X194528571Y-95604761D01*
X194604761Y-95566666D01*
X194795238Y-95566666D01*
X194871428Y-95604761D01*
X194909523Y-95642857D01*
X194947619Y-95719047D01*
X194947619Y-95909523D01*
X194909523Y-95985714D01*
X194871428Y-96023809D01*
X194795238Y-96061904D01*
X194604761Y-96061904D01*
X194528571Y-96023809D01*
X194490476Y-95985714D01*
G04 #@! TO.C,RV4*
X169523809Y-79061904D02*
X169257142Y-78680952D01*
X169066666Y-79061904D02*
X169066666Y-78261904D01*
X169371428Y-78261904D01*
X169447619Y-78300000D01*
X169485714Y-78338095D01*
X169523809Y-78414285D01*
X169523809Y-78528571D01*
X169485714Y-78604761D01*
X169447619Y-78642857D01*
X169371428Y-78680952D01*
X169066666Y-78680952D01*
X169752380Y-78261904D02*
X170019047Y-79061904D01*
X170285714Y-78261904D01*
X170895238Y-78528571D02*
X170895238Y-79061904D01*
X170704761Y-78223809D02*
X170514285Y-78795238D01*
X171009523Y-78795238D01*
G04 #@! TO.C,D2*
X162609523Y-100861904D02*
X162609523Y-100061904D01*
X162800000Y-100061904D01*
X162914285Y-100100000D01*
X162990476Y-100176190D01*
X163028571Y-100252380D01*
X163066666Y-100404761D01*
X163066666Y-100519047D01*
X163028571Y-100671428D01*
X162990476Y-100747619D01*
X162914285Y-100823809D01*
X162800000Y-100861904D01*
X162609523Y-100861904D01*
X163371428Y-100138095D02*
X163409523Y-100100000D01*
X163485714Y-100061904D01*
X163676190Y-100061904D01*
X163752380Y-100100000D01*
X163790476Y-100138095D01*
X163828571Y-100214285D01*
X163828571Y-100290476D01*
X163790476Y-100404761D01*
X163333333Y-100861904D01*
X163828571Y-100861904D01*
G04 #@! TO.C,R9*
X159861904Y-95133333D02*
X159480952Y-95400000D01*
X159861904Y-95590476D02*
X159061904Y-95590476D01*
X159061904Y-95285714D01*
X159100000Y-95209523D01*
X159138095Y-95171428D01*
X159214285Y-95133333D01*
X159328571Y-95133333D01*
X159404761Y-95171428D01*
X159442857Y-95209523D01*
X159480952Y-95285714D01*
X159480952Y-95590476D01*
X159861904Y-94752380D02*
X159861904Y-94600000D01*
X159823809Y-94523809D01*
X159785714Y-94485714D01*
X159671428Y-94409523D01*
X159519047Y-94371428D01*
X159214285Y-94371428D01*
X159138095Y-94409523D01*
X159100000Y-94447619D01*
X159061904Y-94523809D01*
X159061904Y-94676190D01*
X159100000Y-94752380D01*
X159138095Y-94790476D01*
X159214285Y-94828571D01*
X159404761Y-94828571D01*
X159480952Y-94790476D01*
X159519047Y-94752380D01*
X159557142Y-94676190D01*
X159557142Y-94523809D01*
X159519047Y-94447619D01*
X159480952Y-94409523D01*
X159404761Y-94371428D01*
D10*
G04 #@! TO.C,C1*
X185240000Y-86812779D02*
X185240000Y-86487221D01*
X186260000Y-86812779D02*
X186260000Y-86487221D01*
G04 #@! TO.C,C2*
X166508750Y-91543750D02*
X167296250Y-91543750D01*
X166404437Y-90910000D02*
X167690000Y-90910000D01*
X166404437Y-90910000D02*
X165340000Y-89845563D01*
X165340000Y-84090000D02*
X167690000Y-84090000D01*
X165340000Y-89845563D02*
X165340000Y-84090000D01*
X171095563Y-90910000D02*
X169810000Y-90910000D01*
X172160000Y-84090000D02*
X169810000Y-84090000D01*
X172160000Y-89845563D02*
X172160000Y-84090000D01*
X171095563Y-90910000D02*
X172160000Y-89845563D01*
X166902500Y-91937500D02*
X166902500Y-91150000D01*
G04 #@! TO.C,C3*
X172990000Y-84412779D02*
X172990000Y-84087221D01*
X174010000Y-84412779D02*
X174010000Y-84087221D01*
G04 #@! TO.C,C4*
X190562779Y-92840000D02*
X190237221Y-92840000D01*
X190562779Y-93860000D02*
X190237221Y-93860000D01*
G04 #@! TO.C,C5*
X175990000Y-84412779D02*
X175990000Y-84087221D01*
X177010000Y-84412779D02*
X177010000Y-84087221D01*
G04 #@! TO.C,C6*
X179008750Y-91543750D02*
X179796250Y-91543750D01*
X183595563Y-90910000D02*
X184660000Y-89845563D01*
X183595563Y-90910000D02*
X182310000Y-90910000D01*
X178904437Y-90910000D02*
X180190000Y-90910000D01*
X177840000Y-89845563D02*
X177840000Y-84090000D01*
X184660000Y-84090000D02*
X182310000Y-84090000D01*
X179402500Y-91937500D02*
X179402500Y-91150000D01*
X184660000Y-89845563D02*
X184660000Y-84090000D01*
X177840000Y-84090000D02*
X180190000Y-84090000D01*
X178904437Y-90910000D02*
X177840000Y-89845563D01*
G04 #@! TO.C,C7*
X180410000Y-107162779D02*
X180410000Y-106837221D01*
X179390000Y-107162779D02*
X179390000Y-106837221D01*
G04 #@! TO.C,C8*
X177990000Y-103337221D02*
X177990000Y-103662779D01*
X179010000Y-103337221D02*
X179010000Y-103662779D01*
G04 #@! TO.C,C9*
X175412779Y-109740000D02*
X175087221Y-109740000D01*
X175412779Y-110760000D02*
X175087221Y-110760000D01*
G04 #@! TO.C,D1*
X167950000Y-98950000D02*
X168750000Y-98950000D01*
X168750000Y-94550000D02*
X168250000Y-94550000D01*
X168250000Y-94550000D02*
X168250000Y-93150000D01*
X163750000Y-94550000D02*
X164550000Y-94550000D01*
X163750000Y-98950000D02*
X163750000Y-94550000D01*
X164550000Y-98950000D02*
X163750000Y-98950000D01*
X168750000Y-98950000D02*
X168750000Y-94550000D01*
X167050000Y-98950000D02*
X165450000Y-98950000D01*
X167050000Y-94550000D02*
X165450000Y-94550000D01*
G04 #@! TO.C,D11*
X161235000Y-96915000D02*
X159765000Y-96915000D01*
X161235000Y-99200000D02*
X161235000Y-96915000D01*
X159765000Y-96915000D02*
X159765000Y-99200000D01*
G04 #@! TO.C,D3*
X188350000Y-113100000D02*
X193750000Y-113100000D01*
X188350000Y-113100000D02*
X188350000Y-116400000D01*
X188350000Y-116400000D02*
X193750000Y-116400000D01*
G04 #@! TO.C,D4*
X181350000Y-113100000D02*
X186750000Y-113100000D01*
X181350000Y-113100000D02*
X181350000Y-116400000D01*
X181350000Y-116400000D02*
X186750000Y-116400000D01*
G04 #@! TO.C,D5*
X188350000Y-100100000D02*
X188350000Y-103400000D01*
X188350000Y-100100000D02*
X193750000Y-100100000D01*
X188350000Y-103400000D02*
X193750000Y-103400000D01*
G04 #@! TO.C,D6*
X181350000Y-100100000D02*
X186750000Y-100100000D01*
X181350000Y-103400000D02*
X186750000Y-103400000D01*
X181350000Y-100100000D02*
X181350000Y-103400000D01*
G04 #@! TO.C,D7*
X195150000Y-119900000D02*
X195150000Y-116600000D01*
X195150000Y-116600000D02*
X189750000Y-116600000D01*
X195150000Y-119900000D02*
X189750000Y-119900000D01*
G04 #@! TO.C,D8*
X188150000Y-119900000D02*
X188150000Y-116600000D01*
X188150000Y-116600000D02*
X182750000Y-116600000D01*
X188150000Y-119900000D02*
X182750000Y-119900000D01*
G04 #@! TO.C,D9*
X195150000Y-106900000D02*
X189750000Y-106900000D01*
X195150000Y-103600000D02*
X189750000Y-103600000D01*
X195150000Y-106900000D02*
X195150000Y-103600000D01*
G04 #@! TO.C,D10*
X188150000Y-103600000D02*
X182750000Y-103600000D01*
X188150000Y-106900000D02*
X182750000Y-106900000D01*
X188150000Y-106900000D02*
X188150000Y-103600000D01*
G04 #@! TO.C,J1*
X159190000Y-111330000D02*
X167300000Y-111330000D01*
X167300000Y-101150000D02*
X159190000Y-101170000D01*
X160460000Y-111330000D02*
X160460000Y-101170000D01*
X159190000Y-101170000D02*
X159190000Y-111330000D01*
X167300000Y-111330000D02*
X167300000Y-101170000D01*
G04 #@! TO.C,J2*
X196690000Y-119830000D02*
X204810000Y-119830000D01*
X204810000Y-119830000D02*
X204810000Y-109670000D01*
X203540000Y-109670000D02*
X203540000Y-119830000D01*
X204810000Y-109670000D02*
X196690000Y-109670000D01*
X196690000Y-109670000D02*
X196690000Y-119830000D01*
G04 #@! TO.C,J3*
X179830000Y-119810000D02*
X179830000Y-111690000D01*
X179830000Y-118540000D02*
X169670000Y-118540000D01*
X169670000Y-119810000D02*
X179830000Y-119810000D01*
X179830000Y-111690000D02*
X169670000Y-111690000D01*
X169670000Y-111690000D02*
X169670000Y-119810000D01*
G04 #@! TO.C,J4*
X196690000Y-85330000D02*
X204810000Y-85330000D01*
X196690000Y-75170000D02*
X196690000Y-85330000D01*
X204810000Y-85330000D02*
X204810000Y-75170000D01*
X204810000Y-75170000D02*
X196690000Y-75170000D01*
X203540000Y-75170000D02*
X203540000Y-85330000D01*
G04 #@! TO.C,J5*
X203540000Y-87670000D02*
X203540000Y-97830000D01*
X196690000Y-87670000D02*
X196690000Y-97830000D01*
X204810000Y-97830000D02*
X204810000Y-87670000D01*
X204810000Y-87670000D02*
X196690000Y-87670000D01*
X196690000Y-97830000D02*
X204810000Y-97830000D01*
G04 #@! TO.C,PROG1*
X172710000Y-98020000D02*
X172075000Y-98020000D01*
X172075000Y-98020000D02*
X172075000Y-97385000D01*
G04 #@! TO.C,R1*
X190237221Y-91340000D02*
X190562779Y-91340000D01*
X190237221Y-92360000D02*
X190562779Y-92360000D01*
G04 #@! TO.C,R2*
X171337221Y-109740000D02*
X171662779Y-109740000D01*
X171337221Y-110760000D02*
X171662779Y-110760000D01*
G04 #@! TO.C,R3*
X161690000Y-95312779D02*
X161690000Y-94987221D01*
X162710000Y-95312779D02*
X162710000Y-94987221D01*
G04 #@! TO.C,R4*
X195010000Y-111412779D02*
X195010000Y-111087221D01*
X193990000Y-111412779D02*
X193990000Y-111087221D01*
G04 #@! TO.C,R5*
X193990000Y-98412779D02*
X193990000Y-98087221D01*
X195010000Y-98412779D02*
X195010000Y-98087221D01*
G04 #@! TO.C,R6*
X181510000Y-110337221D02*
X181510000Y-110662779D01*
X180490000Y-110337221D02*
X180490000Y-110662779D01*
G04 #@! TO.C,R7*
X180490000Y-97337221D02*
X180490000Y-97662779D01*
X181510000Y-97337221D02*
X181510000Y-97662779D01*
G04 #@! TO.C,RV1*
X189000000Y-75250000D02*
X196100000Y-75250000D01*
X189000000Y-80250000D02*
X189000000Y-75250000D01*
X196100000Y-75250000D02*
X196100000Y-82250000D01*
X189000000Y-80250000D02*
X191000000Y-82250000D01*
X191000000Y-82250000D02*
X196100000Y-82250000D01*
D12*
X190000000Y-81750000D02*
G75*
G03*
X190000000Y-81750000I-500000J0D01*
G01*
D10*
G04 #@! TO.C,RV2*
X181500000Y-80250000D02*
X183500000Y-82250000D01*
X183500000Y-82250000D02*
X188600000Y-82250000D01*
X181500000Y-75250000D02*
X188600000Y-75250000D01*
X181500000Y-80250000D02*
X181500000Y-75250000D01*
X188600000Y-75250000D02*
X188600000Y-82250000D01*
D12*
X182500000Y-81750000D02*
G75*
G03*
X182500000Y-81750000I-500000J0D01*
G01*
D10*
G04 #@! TO.C,RV3*
X181100000Y-75250000D02*
X181100000Y-82250000D01*
X174000000Y-75250000D02*
X181100000Y-75250000D01*
X176000000Y-82250000D02*
X181100000Y-82250000D01*
X174000000Y-80250000D02*
X176000000Y-82250000D01*
X174000000Y-80250000D02*
X174000000Y-75250000D01*
D12*
X175000000Y-81750000D02*
G75*
G03*
X175000000Y-81750000I-500000J0D01*
G01*
D10*
G04 #@! TO.C,U1*
X195685000Y-86400000D02*
X195685000Y-88350000D01*
X195685000Y-86400000D02*
X195685000Y-84450000D01*
X186815000Y-86400000D02*
X186815000Y-89850000D01*
X186815000Y-86400000D02*
X186815000Y-84450000D01*
G04 #@! TO.C,U2*
X172640000Y-87440000D02*
X172870000Y-87440000D01*
X173950000Y-90160000D02*
X172640000Y-90160000D01*
X177360000Y-87440000D02*
X177130000Y-87440000D01*
X177360000Y-90160000D02*
X176050000Y-90160000D01*
X172640000Y-90160000D02*
X172640000Y-87440000D01*
X177360000Y-87440000D02*
X177360000Y-90160000D01*
X177130000Y-86300000D02*
X177130000Y-87440000D01*
D11*
G04 #@! TO.C,U3*
X171250000Y-109225000D02*
X175750000Y-109225000D01*
X170125000Y-103675000D02*
X175750000Y-103675000D01*
D10*
G04 #@! TO.C,U4*
X184515000Y-107400000D02*
X184515000Y-112600000D01*
X184515000Y-112600000D02*
X186750000Y-112600000D01*
X188750000Y-112600000D02*
X190985000Y-112600000D01*
X190985000Y-112600000D02*
X190985000Y-107400000D01*
X190985000Y-107400000D02*
X184515000Y-107400000D01*
X188750000Y-112600000D02*
G75*
G03*
X186750000Y-112600000I-1000000J0D01*
G01*
G04 #@! TO.C,U5*
X184515000Y-94400000D02*
X184515000Y-99600000D01*
X188750000Y-99600000D02*
X190985000Y-99600000D01*
X190985000Y-99600000D02*
X190985000Y-94400000D01*
X184515000Y-99600000D02*
X186750000Y-99600000D01*
X190985000Y-94400000D02*
X184515000Y-94400000D01*
X188750000Y-99600000D02*
G75*
G03*
X186750000Y-99600000I-1000000J0D01*
G01*
G04 #@! TO.C,H3*
X165974903Y-116250000D02*
G75*
G03*
X165974903Y-116250000I-3224903J0D01*
G01*
G36*
X163250000Y-113050000D02*
G01*
X164250000Y-113350000D01*
X165050000Y-113950000D01*
X165550000Y-114650000D01*
X165850000Y-115350000D01*
X165950000Y-115750000D01*
X165950000Y-116250000D01*
X164350000Y-116250000D01*
X164350000Y-116150000D01*
X164250000Y-115750000D01*
X164050000Y-115350000D01*
X163650000Y-114950000D01*
X163250000Y-114750000D01*
X162850000Y-114650000D01*
X162750000Y-114650000D01*
X162750000Y-113025097D01*
X163250000Y-113050000D01*
G37*
D13*
X163250000Y-113050000D02*
X164250000Y-113350000D01*
X165050000Y-113950000D01*
X165550000Y-114650000D01*
X165850000Y-115350000D01*
X165950000Y-115750000D01*
X165950000Y-116250000D01*
X164350000Y-116250000D01*
X164350000Y-116150000D01*
X164250000Y-115750000D01*
X164050000Y-115350000D01*
X163650000Y-114950000D01*
X163250000Y-114750000D01*
X162850000Y-114650000D01*
X162750000Y-114650000D01*
X162750000Y-113025097D01*
X163250000Y-113050000D01*
G36*
X161150000Y-116350000D02*
G01*
X161250000Y-116750000D01*
X161450000Y-117150000D01*
X161850000Y-117550000D01*
X162250000Y-117750000D01*
X162650000Y-117850000D01*
X162750000Y-117850000D01*
X162750000Y-119474903D01*
X162250000Y-119450000D01*
X161250000Y-119150000D01*
X160450000Y-118550000D01*
X159950000Y-117850000D01*
X159650000Y-117150000D01*
X159550000Y-116750000D01*
X159550000Y-116250000D01*
X161150000Y-116250000D01*
X161150000Y-116350000D01*
G37*
X161150000Y-116350000D02*
X161250000Y-116750000D01*
X161450000Y-117150000D01*
X161850000Y-117550000D01*
X162250000Y-117750000D01*
X162650000Y-117850000D01*
X162750000Y-117850000D01*
X162750000Y-119474903D01*
X162250000Y-119450000D01*
X161250000Y-119150000D01*
X160450000Y-118550000D01*
X159950000Y-117850000D01*
X159650000Y-117150000D01*
X159550000Y-116750000D01*
X159550000Y-116250000D01*
X161150000Y-116250000D01*
X161150000Y-116350000D01*
D10*
G04 #@! TO.C,H1*
X165974903Y-78750000D02*
G75*
G03*
X165974903Y-78750000I-3224903J0D01*
G01*
G36*
X161150000Y-78850000D02*
G01*
X161250000Y-79250000D01*
X161450000Y-79650000D01*
X161850000Y-80050000D01*
X162250000Y-80250000D01*
X162650000Y-80350000D01*
X162750000Y-80350000D01*
X162750000Y-81974903D01*
X162250000Y-81950000D01*
X161250000Y-81650000D01*
X160450000Y-81050000D01*
X159950000Y-80350000D01*
X159650000Y-79650000D01*
X159550000Y-79250000D01*
X159550000Y-78750000D01*
X161150000Y-78750000D01*
X161150000Y-78850000D01*
G37*
D13*
X161150000Y-78850000D02*
X161250000Y-79250000D01*
X161450000Y-79650000D01*
X161850000Y-80050000D01*
X162250000Y-80250000D01*
X162650000Y-80350000D01*
X162750000Y-80350000D01*
X162750000Y-81974903D01*
X162250000Y-81950000D01*
X161250000Y-81650000D01*
X160450000Y-81050000D01*
X159950000Y-80350000D01*
X159650000Y-79650000D01*
X159550000Y-79250000D01*
X159550000Y-78750000D01*
X161150000Y-78750000D01*
X161150000Y-78850000D01*
G36*
X163250000Y-75550000D02*
G01*
X164250000Y-75850000D01*
X165050000Y-76450000D01*
X165550000Y-77150000D01*
X165850000Y-77850000D01*
X165950000Y-78250000D01*
X165950000Y-78750000D01*
X164350000Y-78750000D01*
X164350000Y-78650000D01*
X164250000Y-78250000D01*
X164050000Y-77850000D01*
X163650000Y-77450000D01*
X163250000Y-77250000D01*
X162850000Y-77150000D01*
X162750000Y-77150000D01*
X162750000Y-75525097D01*
X163250000Y-75550000D01*
G37*
X163250000Y-75550000D02*
X164250000Y-75850000D01*
X165050000Y-76450000D01*
X165550000Y-77150000D01*
X165850000Y-77850000D01*
X165950000Y-78250000D01*
X165950000Y-78750000D01*
X164350000Y-78750000D01*
X164350000Y-78650000D01*
X164250000Y-78250000D01*
X164050000Y-77850000D01*
X163650000Y-77450000D01*
X163250000Y-77250000D01*
X162850000Y-77150000D01*
X162750000Y-77150000D01*
X162750000Y-75525097D01*
X163250000Y-75550000D01*
D10*
G04 #@! TO.C,H2*
X204224903Y-103750000D02*
G75*
G03*
X204224903Y-103750000I-3224903J0D01*
G01*
G36*
X199400000Y-103850000D02*
G01*
X199500000Y-104250000D01*
X199700000Y-104650000D01*
X200100000Y-105050000D01*
X200500000Y-105250000D01*
X200900000Y-105350000D01*
X201000000Y-105350000D01*
X201000000Y-106974903D01*
X200500000Y-106950000D01*
X199500000Y-106650000D01*
X198700000Y-106050000D01*
X198200000Y-105350000D01*
X197900000Y-104650000D01*
X197800000Y-104250000D01*
X197800000Y-103750000D01*
X199400000Y-103750000D01*
X199400000Y-103850000D01*
G37*
D13*
X199400000Y-103850000D02*
X199500000Y-104250000D01*
X199700000Y-104650000D01*
X200100000Y-105050000D01*
X200500000Y-105250000D01*
X200900000Y-105350000D01*
X201000000Y-105350000D01*
X201000000Y-106974903D01*
X200500000Y-106950000D01*
X199500000Y-106650000D01*
X198700000Y-106050000D01*
X198200000Y-105350000D01*
X197900000Y-104650000D01*
X197800000Y-104250000D01*
X197800000Y-103750000D01*
X199400000Y-103750000D01*
X199400000Y-103850000D01*
G36*
X201500000Y-100550000D02*
G01*
X202500000Y-100850000D01*
X203300000Y-101450000D01*
X203800000Y-102150000D01*
X204100000Y-102850000D01*
X204200000Y-103250000D01*
X204200000Y-103750000D01*
X202600000Y-103750000D01*
X202600000Y-103650000D01*
X202500000Y-103250000D01*
X202300000Y-102850000D01*
X201900000Y-102450000D01*
X201500000Y-102250000D01*
X201100000Y-102150000D01*
X201000000Y-102150000D01*
X201000000Y-100525097D01*
X201500000Y-100550000D01*
G37*
X201500000Y-100550000D02*
X202500000Y-100850000D01*
X203300000Y-101450000D01*
X203800000Y-102150000D01*
X204100000Y-102850000D01*
X204200000Y-103250000D01*
X204200000Y-103750000D01*
X202600000Y-103750000D01*
X202600000Y-103650000D01*
X202500000Y-103250000D01*
X202300000Y-102850000D01*
X201900000Y-102450000D01*
X201500000Y-102250000D01*
X201100000Y-102150000D01*
X201000000Y-102150000D01*
X201000000Y-100525097D01*
X201500000Y-100550000D01*
D10*
G04 #@! TO.C,RV4*
X166500000Y-75250000D02*
X173600000Y-75250000D01*
X173600000Y-75250000D02*
X173600000Y-82250000D01*
X166500000Y-80250000D02*
X168500000Y-82250000D01*
X166500000Y-80250000D02*
X166500000Y-75250000D01*
X168500000Y-82250000D02*
X173600000Y-82250000D01*
D12*
X167500000Y-81750000D02*
G75*
G03*
X167500000Y-81750000I-500000J0D01*
G01*
D10*
G04 #@! TO.C,D2*
X162935000Y-99200000D02*
X162935000Y-96915000D01*
X162935000Y-96915000D02*
X161465000Y-96915000D01*
X161465000Y-96915000D02*
X161465000Y-99200000D01*
G04 #@! TO.C,R9*
X159990000Y-95262779D02*
X159990000Y-94937221D01*
X161010000Y-95262779D02*
X161010000Y-94937221D01*
G04 #@! TD*
M02*
