M48
; DRILL file {KiCad 6.0.9-8da3e8f707~116~ubuntu20.04.1} date Wed Apr 19 18:18:50 2023
; FORMAT={-:-/ absolute / metric / decimal}
; #@! TF.CreationDate,2023-04-19T18:18:50+00:00
; #@! TF.GenerationSoftware,Kicad,Pcbnew,6.0.9-8da3e8f707~116~ubuntu20.04.1
; #@! TF.FileFunction,MixedPlating,1,2
FMAT,2
METRIC
; #@! TA.AperFunction,Plated,PTH,ComponentDrill
T1C0.300
; #@! TA.AperFunction,Plated,PTH,ViaDrill
T2C0.400
; #@! TA.AperFunction,Plated,PTH,ComponentDrill
T3C0.700
; #@! TA.AperFunction,Plated,PTH,ComponentDrill
T4C1.520
; #@! TA.AperFunction,NonPlated,NPTH,ComponentDrill
T5C0.991
; #@! TA.AperFunction,NonPlated,NPTH,ComponentDrill
T6C2.375
; #@! TA.AperFunction,NonPlated,NPTH,ComponentDrill
T7C3.200
%
G90
G05
T1
X172.4Y-104.3
X172.4Y-105.4
X172.4Y-106.5
X172.4Y-107.6
X172.4Y-108.7
X173.5Y-104.3
X173.5Y-105.4
X173.5Y-106.5
X173.5Y-107.6
X173.5Y-108.7
X174.6Y-104.3
X174.6Y-105.4
X174.6Y-106.5
X174.6Y-107.6
X174.6Y-108.7
T2
X160.4Y-102.0
X162.1Y-100.4
X165.0Y-82.5
X165.0Y-85.0
X165.0Y-95.0
X165.0Y-97.5
X165.0Y-110.0
X167.0Y-83.0
X168.7Y-107.7
X168.9Y-106.6
X169.0Y-81.0
X169.4Y-102.0
X169.566Y-98.026
X170.0Y-80.0
X170.3Y-95.9
X170.8Y-111.6
X171.0Y-113.0
X171.1Y-101.8
X171.9Y-92.2
X172.0Y-81.0
X172.1Y-101.1
X172.4Y-111.6
X173.0Y-113.0
X173.2Y-95.0
X173.2Y-101.5
X173.9Y-111.7
X174.0Y-93.0
X174.2Y-91.8
X174.2Y-102.4
X175.0Y-98.8
X175.1Y-100.1
X175.3Y-103.0
X175.4Y-91.8
X176.0Y-81.0
X176.2Y-101.9
X176.5Y-91.8
X176.7Y-103.2
X177.5Y-80.0
X177.5Y-112.5
X177.6Y-91.9
X177.6Y-109.4
X177.9Y-110.4
X178.3Y-105.7
X178.9Y-81.6
X179.0Y-88.9
X179.1Y-93.3
X179.3Y-99.3
X179.4Y-86.0
X179.9Y-102.8
X180.1Y-94.2
X180.2Y-81.6
X180.9Y-112.7
X181.0Y-95.1
X181.2Y-108.2
X181.8Y-98.3
X181.8Y-107.4
X182.0Y-81.7
X183.6Y-92.1
X185.0Y-92.1
X185.0Y-95.0
X185.1Y-90.9
X185.7Y-83.1
X186.4Y-90.9
X186.4Y-92.1
X187.3Y-81.6
X187.5Y-97.5
X187.5Y-110.0
X187.6Y-86.0
X188.7Y-86.8
X190.0Y-86.0
X190.0Y-90.7
X190.0Y-97.5
X190.0Y-110.0
X192.5Y-92.8
X193.2Y-87.2
X195.0Y-91.0
X195.0Y-92.5
X195.0Y-107.5
X195.1Y-81.5
X195.9Y-95.4
X196.1Y-87.1
X196.6Y-82.5
X197.5Y-90.0
X197.5Y-92.5
X197.5Y-95.0
X197.5Y-97.5
X197.5Y-100.0
X197.5Y-115.0
T3
X167.46Y-78.75
X170.0Y-76.21
X172.54Y-78.75
X174.96Y-78.75
X177.5Y-76.21
X180.04Y-78.75
X182.46Y-78.75
X185.0Y-76.21
X187.54Y-78.75
X189.96Y-78.75
X192.5Y-76.21
X195.04Y-78.75
T4
X163.0Y-103.71
X163.0Y-108.79
X172.21Y-116.0
X177.29Y-116.0
X201.0Y-77.71
X201.0Y-82.79
X201.0Y-90.21
X201.0Y-95.29
X201.0Y-112.21
X201.0Y-117.29
T5
X171.44Y-96.75
X179.06Y-95.734
X179.06Y-97.766
T6
X171.44Y-94.21
X171.44Y-99.29
X177.155Y-94.21
X177.155Y-99.29
T7
X162.75Y-78.75
X162.75Y-116.25
X201.0Y-103.75
T0
M30
